<svg width="54" height="39" viewBox="0 0 54 39" fill="none" xmlns="http://www.w3.org/2000/svg">
<g clip-path="url(#clip0_281_5209)">
<path d="M54 33C54 36.3132 51.3132 39 48 39H6C2.6868 39 0 36.3132 0 33V6C0 2.6868 2.6868 0 6 0H48C51.3132 0 54 2.6868 54 6V33Z" fill="#009900"/>
<path d="M12.5052 13.938L9.6828 11.8872L6.8592 13.938L7.938 10.62L5.1144 8.568H8.604L9.6828 5.25L10.7604 8.568H14.25L11.4264 10.62L12.5052 13.938ZM19.5 0H6C2.6868 0 0 2.6868 0 6V19.5H19.5V0Z" fill="#EEEEEE"/>
<path d="M10.7603 8.5692L9.68266 5.25L8.60506 8.568H5.11426L7.93786 10.6188L6.85906 13.938L9.68266 11.886L12.5051 13.938L11.4263 10.6188L14.2499 8.568L10.7603 8.5692Z" fill="#009900"/>
</g>
<defs>
<clipPath id="clip0_281_5209">
<rect width="54" height="39" fill="white"/>
</clipPath>
</defs>
</svg>
