<svg width="56" height="56" viewBox="0 0 56 56" fill="none" xmlns="http://www.w3.org/2000/svg">
<path d="M2.26852 14.8828L15.1634 27.7777L1.82363 41.1174C0.0418597 42.8992 0.0418673 45.788 1.82363 47.5698L7.98533 53.7315C9.7671 55.5133 12.6559 55.5133 14.4377 53.7315L27.7775 40.3917L41.5623 54.1766C43.3441 55.9583 46.2329 55.9583 48.0147 54.1766L54.1764 48.0149C55.9581 46.2331 55.9581 43.3443 54.1764 41.5625L40.3915 27.7777L53.7315 14.4377C55.5132 12.6559 55.5132 9.7671 53.7315 7.98533L47.5698 1.82363C45.788 0.0418571 42.8992 0.0418679 41.1174 1.82363L27.7775 15.1636L14.8826 2.26871C13.1008 0.48694 10.212 0.486942 8.43022 2.26871L2.26852 8.43042C0.486762 10.2122 0.486751 13.101 2.26852 14.8828ZM18.478 28.8825C19.0882 28.2723 19.0882 27.283 18.478 26.6728L4.47823 12.6731C3.91685 12.1117 3.91685 11.2015 4.47823 10.6401L10.6399 4.47842C11.2013 3.91704 12.1115 3.91704 12.6729 4.47842L26.6726 18.4782C27.2828 19.0884 28.2721 19.0884 28.8823 18.4782L43.3271 4.03334C43.8885 3.47196 44.7987 3.47196 45.3601 4.03334L51.5218 10.195C52.0831 10.7564 52.0831 11.6666 51.5218 12.228L37.0769 26.6728C36.4667 27.283 36.4667 28.2723 37.0769 28.8825L51.9667 43.7722C52.528 44.3336 52.528 45.2438 51.9667 45.8052L45.805 51.9669C45.2436 52.5282 44.3334 52.5282 43.772 51.9669L28.8823 37.0771C28.2721 36.4669 27.2828 36.467 26.6726 37.0771L12.228 51.5218C11.6666 52.0832 10.7564 52.0832 10.195 51.5218L4.03334 45.3601C3.47196 44.7987 3.47196 43.8885 4.03334 43.3271L18.478 28.8825Z" fill="white" stroke="black" stroke-width="0.125" stroke-linejoin="round"/>
<path fill-rule="evenodd" clip-rule="evenodd" d="M18.4338 26.717C19.0196 27.3028 19.0196 28.2525 18.4338 28.8383L3.98914 43.283C3.40336 43.8687 3.40336 44.8185 3.98914 45.4043L10.1508 51.566C10.7366 52.1518 11.6864 52.1518 12.2722 51.566L26.7168 37.1213C27.3026 36.5356 28.2523 36.5356 28.8381 37.1213L43.7278 52.0111C44.3136 52.5968 45.2634 52.5968 45.8491 52.0111L52.0108 45.8494C52.5966 45.2636 52.5966 44.3138 52.0108 43.728L37.1211 28.8383C36.5353 28.2525 36.5353 27.3028 37.1211 26.717L51.566 12.2722C52.1517 11.6864 52.1517 10.7366 51.5659 10.1508L45.4043 3.98914C44.8185 3.40336 43.8687 3.40336 43.2829 3.98915L28.8381 18.434C28.2523 19.0198 27.3026 19.0198 26.7168 18.434L12.7171 4.43422C12.1313 3.84844 11.1815 3.84844 10.5957 4.43422L4.43404 10.5959C3.84825 11.1817 3.84825 12.1315 4.43404 12.7172L18.4338 26.717Z" fill="#EE1B29"/>
</svg>
