<svg width="66" height="66" viewBox="0 0 66 66" fill="none" xmlns="http://www.w3.org/2000/svg">
<path d="M60.3101 15.1891C60.9659 14.5333 60.9659 13.4701 60.3101 12.8143L53.1857 5.68991C52.5299 5.03413 51.4667 5.03413 50.8109 5.68991L34.1874 22.3134C33.5316 22.9692 32.4684 22.9692 31.8126 22.3134L15.1891 5.68991C14.5333 5.03413 13.4701 5.03413 12.8143 5.68991L5.68991 12.8143C5.03413 13.4701 5.03413 14.5333 5.68991 15.1891L22.3134 31.8126C22.9692 32.4684 22.9692 33.5316 22.3134 34.1874L5.68991 50.8109C5.03413 51.4667 5.03413 52.5299 5.68991 53.1857L12.8143 60.3101C13.4701 60.9659 14.5333 60.9659 15.1891 60.3101L31.8126 43.6866C32.4684 43.0308 33.5316 43.0308 34.1874 43.6866L50.8109 60.3101C51.4667 60.9659 52.5299 60.9659 53.1857 60.3101L60.3101 53.1857C60.9659 52.5299 60.9659 51.4667 60.3101 50.8109L43.6866 34.1874C43.0308 33.5316 43.0308 32.4684 43.6866 31.8126L60.3101 15.1891Z" fill="#EE1B29"/>
<path fill-rule="evenodd" clip-rule="evenodd" d="M56.1542 2.72143L63.2786 9.8458C65.5738 12.141 65.5738 15.8623 63.2786 18.1576L48.4361 33L63.2786 47.8424C65.5738 50.1377 65.5738 53.859 63.2786 56.1542L56.1542 63.2786C53.859 65.5738 50.1377 65.5738 47.8424 63.2786L33 48.4361L18.1576 63.2786C15.8623 65.5738 12.141 65.5738 9.84579 63.2786L2.72142 56.1542C0.426191 53.859 0.426194 50.1377 2.72142 47.8424L17.5639 33L2.72142 18.1576C0.426194 15.8623 0.426194 12.141 2.72142 9.84579L9.8458 2.72142C12.141 0.426192 15.8623 0.426193 18.1576 2.72142L33 17.5639L47.8424 2.72143C50.1377 0.426194 53.859 0.426194 56.1542 2.72143ZM60.3101 12.8143C60.9659 13.4701 60.9659 14.5333 60.3101 15.1891L43.6866 31.8126C43.0308 32.4684 43.0308 33.5316 43.6866 34.1874L60.3101 50.8109C60.9659 51.4667 60.9659 52.5299 60.3101 53.1857L53.1857 60.3101C52.5299 60.9659 51.4667 60.9659 50.8109 60.3101L34.1874 43.6866C33.5316 43.0308 32.4684 43.0308 31.8126 43.6866L15.1891 60.3101C14.5333 60.9659 13.4701 60.9659 12.8143 60.3101L5.68991 53.1857C5.03413 52.5299 5.03413 51.4667 5.68991 50.8109L22.3134 34.1874C22.9692 33.5316 22.9692 32.4684 22.3134 31.8126L5.68991 15.1891C5.03413 14.5333 5.03413 13.4701 5.68991 12.8143L12.8143 5.68991C13.4701 5.03413 14.5333 5.03413 15.1891 5.68991L31.8126 22.3134C32.4684 22.9692 33.5316 22.9692 34.1874 22.3134L50.8109 5.68991C51.4667 5.03413 52.5299 5.03413 53.1857 5.68991L60.3101 12.8143Z" fill="white"/>
<path d="M63.3228 9.8016L56.1984 2.67723C53.8788 0.357592 50.1179 0.357592 47.7982 2.67723L33 17.4755L18.2018 2.67723C15.8821 0.357591 12.1212 0.35759 9.8016 2.67723L2.67723 9.8016C0.357592 12.1212 0.357592 15.8821 2.67723 18.2018L17.4755 33L2.67723 47.7982C0.357592 50.1179 0.357589 53.8788 2.67723 56.1984L9.8016 63.3228C12.1212 65.6424 15.8821 65.6424 18.2018 63.3228L33 48.5245L47.7982 63.3228C50.1179 65.6424 53.8788 65.6424 56.1984 63.3228L63.3228 56.1984C65.6424 53.8788 65.6424 50.1179 63.3228 47.7982L48.5245 33L63.3228 18.2018C65.6424 15.8821 65.6424 12.1212 63.3228 9.8016Z" stroke="black" stroke-width="0.125"/>
</svg>
