<?xml version="1.0" encoding="UTF-8"?>
<svg id="Calque_2" xmlns="http://www.w3.org/2000/svg" viewBox="0 0 50 50">
  <g id="Calque_1-2">
    <path
      d="M24.96,18.36v13.76l-5.56,5.7c-1.77,1.93-1.76,4.94.06,6.78l10.27-10.51v-4.68h.91v15.38c.08,2.65,2.12,4.79,4.7,4.79v-31.05l4.72,4.85h3.29c1.11,0,2.02-.92,2.02-2.06s-.91-2.07-2.02-2.07c-.06,0-.11,0-.17.01h-1.36l-7.68-7.86c-.95-1.17-2.39-1.91-3.99-1.91h0c-1.38,0-2.62.55-3.55,1.44l-7.25,7.43v6.52c0,1.1.87,2,1.94,2s1.95-.89,1.95-2c0-.08-.01-4.74-.01-4.74l1.73-1.78Z"
      style="fill: #000000; stroke-width:0px;"/>
    <path d="M26.02,4.26c0-2.36,1.86-4.26,4.16-4.26s4.16,1.91,4.16,4.26-1.86,4.26-4.16,4.26-4.16-1.91-4.16-4.26Z"
          style="fill: #000000; fill-rule:evenodd; stroke-width:0px;"/>
    <path d="M0,47.71c0-1.34.91-2.28,2.18-2.28s2.14.94,2.14,2.28-.83,2.28-2.18,2.28c-1.27,0-2.14-.98-2.14-2.28Z"
          style="fill: #000000; stroke-width:0px;"/>
    <path d="M7.51,47.71c0-1.34.91-2.28,2.18-2.28s2.14.94,2.14,2.28-.83,2.28-2.18,2.28c-1.27,0-2.14-.98-2.14-2.28Z"
          style="fill: #000000; stroke-width:0px;"/>
    <path d="M15.01,47.71c0-1.34.91-2.28,2.18-2.28s2.14.94,2.14,2.28-.83,2.28-2.18,2.28c-1.27,0-2.14-.98-2.14-2.28Z"
          style="fill: #000000; stroke-width:0px;"/>
    <path d="M22.52,47.71c0-1.34.91-2.28,2.18-2.28s2.14.94,2.14,2.28-.83,2.28-2.18,2.28c-1.27,0-2.14-.98-2.14-2.28Z"
          style="fill: #000000; stroke-width:0px;"/>
  </g>
</svg>
