<svg width="41" height="41" viewBox="0 0 41 41" fill="none" xmlns="http://www.w3.org/2000/svg">
<path d="M20.35 19.07H24.29C25.31 19.07 26.15 19.92 26.15 20.92C26.15 21.94 25.32 22.78 24.29 22.78H18.74L15.26 19.31V26.3H23.71L33.28 35.87C31.6 37.55 28.86 37.59 27.13 35.92L21.92 30.69H11.15C9.57997 30.69 7.25998 30.73 7.24998 26.3V16.44C7.06998 13.6 8.94998 11.46 11.22 11.46C12.24 11.46 13.17 11.86 13.88 12.6L20.35 19.07Z" fill="#1F3C90"/>
<path d="M21.67 31.6799C21.63 32.0899 21.54 32.5199 21.43 32.9599C19.87 38.7199 13.88 42.1999 8.08 40.6099C2.29 39.0799 -1.18001 33.1199 0.399995 27.3199C1.22999 24.1099 3.48001 21.5799 6.27001 20.2799V22.7499C4.46001 23.8699 3.06 25.6599 2.5 27.8699C1.23 32.5199 3.99 37.2799 8.64999 38.5199C13.29 39.7799 18.05 37.0399 19.3 32.3999C19.38 32.1499 19.41 31.8999 19.47 31.6899H21.67V31.6799Z" fill="#1F3C90"/>
<path fill-rule="evenodd" clip-rule="evenodd" d="M7.33997 6.63992C7.33997 4.50992 9.08997 2.78992 11.23 2.78992C13.36 2.78992 15.09 4.50992 15.09 6.63992C15.09 8.76992 13.36 10.5299 11.23 10.5299C9.07997 10.5299 7.33997 8.76992 7.33997 6.63992Z" fill="#1F3C90"/>
<path d="M24.89 8.76995C24.89 4.42995 28.35 0.949951 32.68 0.949951C37.01 0.949951 40.51 4.42995 40.51 8.76995C40.51 13.11 37.02 16.6 32.68 16.6C28.36 16.61 24.89 13.11 24.89 8.76995Z" fill="#E3051C"/>
<path d="M38.9999 7.18994H26.4399V10.3499H38.9999V7.18994Z" fill="white"/>
</svg>
