<svg width="51" height="51" viewBox="0 0 51 51" fill="none" xmlns="http://www.w3.org/2000/svg">
<path d="M50.64 0.219971H0.640015V50.22H50.64V0.219971Z" fill="#1F3C90"/>
<path d="M49.28 1.56995H2V48.8399H49.28V1.56995Z" fill="white"/>
<path d="M25.35 23.07H29.29C30.31 23.07 31.15 23.92 31.15 24.92C31.15 25.94 30.32 26.78 29.29 26.78H23.74L20.26 23.31V30.3H28.71L38.28 39.87C36.6 41.55 33.86 41.59 32.13 39.92L26.92 34.69H16.15C14.58 34.69 12.26 34.73 12.25 30.3V20.44C12.07 17.6 13.95 15.46 16.22 15.46C17.24 15.46 18.17 15.86 18.88 16.6L25.35 23.07Z" fill="#1F3C90"/>
<path d="M26.67 35.6799C26.63 36.0899 26.54 36.5199 26.43 36.9599C24.87 42.7199 18.88 46.1999 13.08 44.6099C7.29 43.0799 3.81999 37.1199 5.39999 31.3199C6.22999 28.1099 8.48001 25.5799 11.27 24.2799V26.7499C9.46001 27.8699 8.06 29.6599 7.5 31.8699C6.23 36.5199 8.99 41.2799 13.65 42.5199C18.29 43.7799 23.05 41.0399 24.3 36.3999C24.38 36.1499 24.41 35.8999 24.47 35.6899H26.67V35.6799Z" fill="#1F3C90"/>
<path fill-rule="evenodd" clip-rule="evenodd" d="M12.34 10.6399C12.34 8.50992 14.09 6.78992 16.23 6.78992C18.36 6.78992 20.09 8.50992 20.09 10.6399C20.09 12.7699 18.36 14.5299 16.23 14.5299C14.08 14.5299 12.34 12.7699 12.34 10.6399Z" fill="#1F3C90"/>
<path d="M29.89 12.77C29.89 8.42995 33.35 4.94995 37.68 4.94995C42.01 4.94995 45.51 8.42995 45.51 12.77C45.51 17.11 42.02 20.6 37.68 20.6C33.36 20.61 29.89 17.11 29.89 12.77Z" fill="#E3051C"/>
<path d="M43.9999 11.1899H31.4399V14.3499H43.9999V11.1899Z" fill="white"/>
</svg>
