<svg width="51" height="51" viewBox="0 0 51 51" fill="none" xmlns="http://www.w3.org/2000/svg">
<path d="M50.64 0.219971H0.640015V50.22H50.64V0.219971Z" fill="#1F3C90"/>
<path d="M29.95 22.2899H33.7C34.69 22.2899 35.47 23.1199 35.47 24.0899C35.47 25.0799 34.69 25.8699 33.7 25.8699H28.42L25.09 22.5699V29.2399H33.19L42.31 38.3699C40.7 39.9799 38.1 39.9799 36.42 38.4199L31.45 33.4499H21.18C19.65 33.4499 17.46 33.4799 17.46 29.2199V19.8399C17.27 17.1099 19.1 15.0499 21.25 15.0499C22.22 15.0499 23.09 15.4799 23.78 16.1699L29.95 22.2899Z" fill="white"/>
<path d="M31.21 34.34C31.16 34.77 31.08 35.18 30.97 35.59C29.48 41.15 23.78 44.41 18.23 42.93C12.7 41.45 9.39002 35.74 10.88 30.17C11.71 27.12 13.84 24.7 16.54 23.48V25.82C14.77 26.89 13.48 28.6 12.89 30.73C11.68 35.15 14.34 39.72 18.76 40.91C23.21 42.1 27.78 39.47 28.95 35.02C29.05 34.8 29.08 34.59 29.14 34.33H31.21" fill="white"/>
<path d="M17.5 10.46C17.5 8.38 19.19 6.75 21.24 6.75C23.26 6.75 24.9 8.38 24.9 10.46C24.9 12.5 23.26 14.15 21.24 14.15C19.19 14.15 17.5 12.5 17.5 10.46Z" fill="white"/>
</svg>
