<?xml version="1.0" encoding="UTF-8"?><svg id="Layer_2" xmlns="http://www.w3.org/2000/svg" viewBox="0 0 283.46 283.46"><defs><style>.cls-1{fill:#3c91dc;}.cls-1,.cls-2{stroke-width:0px;}</style></defs><g id="Layer_1-2"><path class="cls-2" d="M104.64,107.45v89.56h-24.12v-89.56h-33.57v-19.64h91.25v19.64h-33.55ZM183.78,199.94c-6.19,0-11.75-.78-16.4-1.86l3.41-18.56c2.95,1.25,8.67,2.62,15,2.62,15.31,0,26.46-12.21,28.01-34.17-3.73,3.25-10.85,7.42-22.6,7.42-18.1,0-32.64-11.91-32.64-32.32,0-21.81,14.54-37.9,37.42-37.9,29.85,0,40.54,20.74,40.54,49.65,0,37.9-17.8,65.12-52.75,65.12M196.93,102.35c-10.82,0-16.4,8.81-16.4,18.25,0,10.2,6.81,17.64,17.65,17.64,6.95,0,12.52-2.62,14.67-6.04,1.25-1.86,1.25-6.19,1.25-9.44,0-10.36-6.02-20.41-17.17-20.41"/><path class="cls-1" d="M269.29,42.52H14.17c-7.83,0-14.17-6.35-14.17-14.17v-14.17C0,6.35,6.35,0,14.17,0h255.11c7.82,0,14.17,6.35,14.17,14.17v14.17c0,7.82-6.35,14.17-14.17,14.17M283.46,269.29v-14.17c0-7.82-6.35-14.17-14.17-14.17H14.17c-7.83,0-14.17,6.35-14.17,14.17v14.17c0,7.82,6.35,14.17,14.17,14.17h255.11c7.82,0,14.17-6.35,14.17-14.17"/></g></svg>