<?xml version="1.0" encoding="UTF-8"?><svg id="Layer_2" xmlns="http://www.w3.org/2000/svg" viewBox="0 0 283.46 283.46"><defs><style>.cls-1,.cls-2{stroke-width:0px;}.cls-2{fill:#ff5a00;}</style></defs><g id="Layer_1-2"><path class="cls-1" d="M156.82,199.72c-15.62,0-24.29-3.85-31.55-8.19l8.5-16.86c4.65,3.25,12.22,7.11,21.5,7.11,12.69,0,20.57-7.42,20.57-16.71,0-12.52-9.59-16.85-20.72-16.85h-11.29v-18.1h11.44c10.67,0,17.32-5.57,17.32-13.92,0-6.96-5.25-13.3-16.7-13.3-10.05,0-16.71,4.8-20.26,7.89l-7.89-16.09c9.27-6.19,19.34-9.75,33.1-9.75,22.27,0,34.96,13.3,34.96,27.85,0,11.29-6.04,20.26-17.64,24.6v.3c12.06,2.32,21.19,11.6,21.19,26.92,0,19.17-17.16,35.1-42.54,35.1M258.6,175.64c-5.82,0-8.72-3.61-9.67-8.5-5.12,6.06-9.91,9.09-18.42,9.09-10.96,0-18.42-7.92-18.42-18.54,0-16.9,17.72-20.16,31.49-20.16,2.56,0,4.09-.13,4.09-2.23v-4.07c0-4.42-2.8-8.62-11.44-8.62-7.22,0-12.7,3.37-15.39,5.71l-5.71-11.66c6.87-4.44,14.46-6.41,25.19-6.41,8.74,0,22.85,3.15,22.85,21.1v28.69c0,2.21.26,4.07,2.21,4.07.7,0,1.99-.35,2.69-.57l.93,10.6c-2.44.59-6.52,1.51-10.37,1.51M247.53,147.67c-1.75-.11-3.5-.11-4.9-.11-5.7,0-14.34,1.4-14.34,8.86,0,4.54,3.26,7.81,7.81,7.81,3.61,0,6.65-1.17,8.75-3.39,1.87-1.99,2.67-4.31,2.67-7.35v-5.82ZM69.94,107.53v89.56h-24.12v-89.56H12.24v-19.65h91.26v19.65h-33.56Z"/><path class="cls-2" d="M269.29,42.52H14.19c-7.82,0-14.19-6.35-14.19-14.17v-14.17C0,6.35,6.36,0,14.19,0h255.1c7.82,0,14.17,6.35,14.17,14.17v14.17c0,7.82-6.35,14.17-14.17,14.17M283.46,269.29v-14.17c0-7.82-6.35-14.17-14.17-14.17H14.19c-7.82,0-14.19,6.35-14.19,14.17v14.17c0,7.82,6.36,14.17,14.19,14.17h255.1c7.82,0,14.17-6.35,14.17-14.17"/></g></svg>