<svg xmlns="http://www.w3.org/2000/svg" width="377.953" height="377.953" viewBox="0 0 283.465 283.465"><g data-name="Layer"><clipPath id="a"><path transform="matrix(1 0 0 -1 0 283.465)" d="M0 283.465h283.465V0H0z"/></clipPath><g clip-path="url(#a)"><path d="M283.465 269.29v-14.174c0-7.825-6.362-14.174-14.186-14.174H14.187C6.35 240.942 0 247.292 0 255.116v14.174c0 7.825 6.35 14.175 14.187 14.175h255.092c7.824 0 14.186-6.35 14.186-14.174M269.279 42.524H14.187C6.35 42.524 0 36.174 0 28.35V14.174C0 6.351 6.35 0 14.187 0h255.092c7.824 0 14.186 6.35 14.186 14.174V28.35c0 7.824-6.362 14.174-14.186 14.174" fill="#00b397"/><path d="M67.064 107.452v89.547H42.93v-89.547H9.37V87.815h91.243v19.637zM239.602 106.992h-.309c-.454 1.844-3.552 8.503-7.885 15.316l-22.266 34.938h30.46zm21.657 67.269v22.729h-21.657v-22.73H190.43v-20.257l42.37-66.188h28.46v69.43h12.836v17.016zm-106.24 22.738v-85.837c-6.65 5.25-17.16 10.047-24.428 13.617l-7.43-16.706c11.445-4.796 25.208-12.064 36.027-20.258h19.032v109.184z" fill="#231f20"/></g></g></svg>