<svg xmlns="http://www.w3.org/2000/svg" width="377.953" height="377.952" viewBox="0 0 283.465 283.464"><g data-name="Layer"><clipPath id="a"><path transform="matrix(1 0 0 -1 0 283.464)" d="M0 283.464h283.465V0H0z"/></clipPath><g clip-path="url(#a)"><path d="M164.376 196.966v-14.387c2.775-12.674 15.3-24.274 29.85-36.961 7.261-6.337 15.148-14.224 15.148-24.75 0-9.424-6.187-17.324-18.087-17.324-9.587 0-16.237 6.963-18.874 9.9l-11.449-15.15c10.524-9.124 20.261-13.461 34.961-13.461 19.174 0 37.273 11.137 37.273 33.41 0 18.713-11.912 27.525-25.06 39.437-5.563 5.113-16.538 14.7-17.938 21.037h45.011v18.249zM105.94 107.42v89.546H81.816V107.42H48.243V87.77h91.26v19.65z" fill="#231f20"/><path d="M283.465 269.29v-14.175c0-7.825-6.35-14.175-14.174-14.175H14.175C6.35 240.94 0 247.29 0 255.115v14.174c0 7.825 6.35 14.174 14.175 14.174H269.29c7.824 0 14.174-6.349 14.174-14.174M269.29 42.522H14.175C6.35 42.522 0 36.173 0 28.348V14.174C0 6.35 6.35 0 14.175 0H269.29c7.824 0 14.174 6.35 14.174 14.175v14.174c0 7.825-6.35 14.174-14.174 14.174" fill="#bb4a9b"/></g></g></svg>