<svg xmlns="http://www.w3.org/2000/svg" width="377.953" height="377.953" viewBox="0 0 283.465 283.465"><g data-name="Layer"><clipPath id="a"><path transform="matrix(1 0 0 -1 0 283.465)" d="M0 283.465h283.465V0H0z"/></clipPath><g clip-path="url(#a)"><path d="M199.94 197.016v-14.387c2.786-12.687 15.31-24.274 29.846-36.961 7.275-6.337 15.161-14.25 15.161-24.75 0-9.424-6.199-17.336-18.098-17.336-9.587 0-16.237 6.975-18.86 9.9l-11.45-15.15c10.512-9.125 20.261-13.45 34.947-13.45 19.186 0 37.272 11.125 37.272 33.412 0 18.712-11.899 27.524-25.048 39.424-5.562 5.124-16.536 14.712-17.948 21.049h45.01v18.249zm-41.585 0v-85.834c-6.637 5.25-17.16 10.35-24.436 13.599l-7.424-16.7c11.45-4.812 25.223-12.074 36.034-20.261h19.024v109.196zm-87.969-89.56v89.56H46.263v-89.56H12.717V87.82h91.23v19.637z" fill="#231f20"/><path d="M283.465 269.29v-14.174c0-7.825-6.35-14.174-14.175-14.174H14.175C6.35 240.942 0 247.292 0 255.116v14.174c0 7.825 6.35 14.175 14.175 14.175H269.29c7.825 0 14.175-6.35 14.175-14.174M269.29 42.524H14.175C6.35 42.524 0 36.174 0 28.35V14.174C0 6.351 6.35 0 14.175 0H269.29c7.825 0 14.175 6.35 14.175 14.174V28.35c0 7.824-6.35 14.174-14.175 14.174" fill="#b80b4b"/></g></g></svg>