<?xml version="1.0" encoding="UTF-8"?><svg id="Layer_2" xmlns="http://www.w3.org/2000/svg" viewBox="0 0 283.46 283.46"><defs><style>.cls-1{fill:#6e491e;}.cls-1,.cls-2{stroke-width:0px;}</style></defs><g id="Layer_1-2"><path class="cls-2" d="M70.31,107.47v89.55h-24.11v-89.55H12.61v-19.65h91.27v19.65h-33.57ZM158.28,197.02v-85.85c-6.65,5.26-17.17,10.36-24.44,13.61l-7.41-16.7c11.44-4.8,25.2-12.06,36.02-20.26h19.04v109.2h-23.21ZM228.33,199.64c-15.61,0-24.27-3.87-31.55-8.2l8.49-16.85c4.65,3.25,12.24,7.11,21.51,7.11,12.69,0,20.56-7.42,20.56-16.7,0-12.52-9.58-16.86-20.72-16.86h-11.27v-18.1h11.44c10.66,0,17.32-5.57,17.32-13.92,0-6.96-5.25-13.3-16.7-13.3-10.05,0-16.71,4.8-20.26,7.89l-7.89-16.07c9.27-6.19,19.34-9.75,33.09-9.75,22.29,0,34.95,13.3,34.95,27.84,0,11.29-6.01,20.26-17.62,24.59v.31c12.07,2.32,21.19,11.6,21.19,26.91,0,19.19-17.17,35.11-42.52,35.11"/><path class="cls-1" d="M269.29,42.52H14.17c-7.83,0-14.17-6.35-14.17-14.17v-14.17C0,6.35,6.35,0,14.17,0h255.11c7.82,0,14.17,6.35,14.17,14.17v14.17c0,7.82-6.35,14.17-14.17,14.17M283.46,269.29v-14.17c0-7.82-6.35-14.17-14.17-14.17H14.17c-7.83,0-14.17,6.35-14.17,14.17v14.17c0,7.82,6.35,14.17,14.17,14.17h255.11c7.82,0,14.17-6.35,14.17-14.17"/></g></svg>