<?xml version="1.0" encoding="UTF-8"?><svg id="Layer_2" xmlns="http://www.w3.org/2000/svg" viewBox="0 0 283.46 283.46"><defs><style>.cls-1{fill:#0055c8;}.cls-1,.cls-2{stroke-width:0px;}</style></defs><g id="Layer_1-2"><path class="cls-2" d="M115,107.42v89.55h-24.12v-89.55h-33.57v-19.65h91.26v19.65h-33.56ZM202.97,196.97v-85.83c-6.65,5.25-17.17,10.36-24.44,13.6l-7.42-16.7c11.44-4.8,25.21-12.06,36.04-20.26h19.02v109.2h-23.2Z"/><path class="cls-1" d="M269.29,42.52H14.17c-7.82,0-14.17-6.35-14.17-14.17v-14.17C0,6.35,6.35,0,14.17,0h255.12c7.82,0,14.17,6.35,14.17,14.17v14.17c0,7.82-6.35,14.17-14.17,14.17M283.46,269.29v-14.17c0-7.82-6.35-14.17-14.17-14.17H14.17c-7.82,0-14.17,6.35-14.17,14.17v14.17c0,7.82,6.35,14.17,14.17,14.17h255.12c7.82,0,14.17-6.35,14.17-14.17"/></g></svg>