<svg xmlns="http://www.w3.org/2000/svg" width="377.953" height="377.952" viewBox="0 0 283.465 283.464"><g data-name="Layer"><clipPath id="a"><path transform="matrix(1 0 0 -1 0 283.464)" d="M0 283.464h283.465V0H0z"/></clipPath><g clip-path="url(#a)"><path d="M69.935 107.534v89.56H45.798v-89.56h-33.56V87.885h91.258v19.65zm171.293 16.937c-3.274 0-5.837 1.4-7.574 3.15-2.8 2.675-3.15 4.425-3.15 8.037v21.112c0 4.3 2.562 8.15 10.012 8.15 10.5 0 13.062-11.313 13.062-19.812 0-8.4-1.975-20.637-12.35-20.637m2.113 51.998c-4.675 0-10.15-1.862-13.3-4.775v2.788H214.18V88.21h16.437v32.174c4.2-6.05 8.975-10.137 16.925-10.137 16.311 0 23.074 17.374 23.074 32.411 0 13.987-7.35 33.811-27.274 33.811m-86.522 23.25c-15.624 0-24.274-3.85-31.549-8.188l8.487-16.862c4.663 3.25 12.238 7.112 21.512 7.112 12.7 0 20.574-7.424 20.574-16.71 0-12.526-9.574-16.85-20.736-16.85h-11.275v-18.1h11.437c10.675 0 17.324-5.575 17.324-13.925 0-6.962-5.249-13.299-16.699-13.299-10.062 0-16.699 4.8-20.262 7.887l-7.887-16.087c9.262-6.187 19.337-9.749 33.086-9.749 22.287 0 34.962 13.3 34.962 27.85 0 11.285-6.025 20.26-17.625 24.597v.301c12.075 2.325 21.187 11.6 21.187 26.924 0 19.174-17.174 35.098-42.536 35.098" fill="#231f20"/><path d="M283.465 269.29v-14.175c0-7.825-6.35-14.175-14.174-14.175H14.175C6.35 240.94 0 247.29 0 255.115v14.174c0 7.825 6.35 14.174 14.175 14.174H269.29c7.824 0 14.174-6.349 14.174-14.174M269.29 42.522H14.175C6.35 42.522 0 36.173 0 28.348V14.174C0 6.35 6.35 0 14.175 0H269.29c7.824 0 14.174 6.35 14.174 14.175v14.174c0 7.825-6.35 14.174-14.174 14.174" fill="#008c5a"/></g></g></svg>