<svg xmlns="http://www.w3.org/2000/svg" width="377.953" height="377.953" viewBox="0 0 283.465 283.465"><g data-name="Layer"><clipPath id="a"><path transform="matrix(1 0 0 -1 0 283.465)" d="M0 283.465h283.465V0H0z"/></clipPath><g clip-path="url(#a)"><path d="M228.328 199.64c-15.612 0-24.274-3.875-31.549-8.199l8.487-16.85c4.65 3.25 12.237 7.112 21.512 7.112 12.687 0 20.562-7.424 20.562-16.699 0-12.525-9.576-16.862-20.725-16.862h-11.274v-18.099h11.437c10.661 0 17.324-5.575 17.324-13.925 0-6.962-5.25-13.299-16.699-13.299-10.05 0-16.712 4.8-20.262 7.887l-7.887-16.074c9.274-6.188 19.336-9.75 33.086-9.75 22.286 0 34.948 13.3 34.948 27.836 0 11.287-6.01 20.262-17.624 24.587v.313c12.075 2.325 21.187 11.6 21.187 26.911 0 19.187-17.175 35.111-42.523 35.111m-70.047-2.625V111.17c-6.65 5.262-17.175 10.361-24.437 13.611l-7.413-16.699c11.437-4.8 25.2-12.062 36.024-20.262h19.037v109.196zM70.31 107.468v89.547H46.197v-89.547H12.611V87.82h91.271v19.65z" fill="#231f20"/><path d="M283.465 269.29v-14.174c0-7.825-6.35-14.174-14.175-14.174H14.175C6.35 240.942 0 247.292 0 255.116v14.174c0 7.825 6.35 14.175 14.175 14.175H269.29c7.825 0 14.175-6.35 14.175-14.174M269.29 42.524H14.175C6.35 42.524 0 36.174 0 28.35V14.174C0 6.351 6.35 0 14.175 0H269.29c7.825 0 14.175 6.35 14.175 14.174V28.35c0 7.824-6.35 14.174-14.175 14.174" fill="#8d6539"/></g></g></svg>