<?xml version="1.0" encoding="UTF-8"?><svg id="Layer_2" xmlns="http://www.w3.org/2000/svg" viewBox="0 0 283.46 283.46"><defs><style>.cls-1{fill:#dc9600;}.cls-1,.cls-2{stroke-width:0px;}</style></defs><g id="Layer_1-2"><path class="cls-2" d="M102.64,107.42v89.55h-24.14v-89.55h-33.55v-19.65h91.23v19.65h-33.55ZM225.69,174.23v22.74h-21.64v-22.74h-49.2v-20.26l42.38-66.2h28.45v69.45h12.85v17.01h-12.85ZM204.05,106.94h-.31c-.46,1.86-3.57,8.51-7.89,15.31l-22.27,34.96h30.47v-50.27Z"/><path class="cls-1" d="M269.28,42.52H14.19c-7.82,0-14.19-6.35-14.19-14.17v-14.17C0,6.35,6.36,0,14.19,0h255.09c7.82,0,14.19,6.35,14.19,14.17v14.17c0,7.82-6.36,14.17-14.19,14.17M283.46,269.29v-14.17c0-7.82-6.36-14.17-14.19-14.17H14.19c-7.82,0-14.19,6.35-14.19,14.17v14.17c0,7.82,6.36,14.17,14.19,14.17h255.09c7.82,0,14.19-6.35,14.19-14.17"/></g></svg>