<?xml version="1.0" encoding="UTF-8"?><svg id="Layer_2" xmlns="http://www.w3.org/2000/svg" viewBox="0 0 283.46 283.46"><defs><style>.cls-1,.cls-2{stroke-width:0px;}.cls-2{fill:#00a092;}</style></defs><g id="Layer_1-2"><path class="cls-2" d="M269.28,42.52H14.19c-7.84,0-14.19-6.35-14.19-14.17v-14.17C0,6.35,6.35,0,14.19,0h255.09c7.82,0,14.19,6.35,14.19,14.17v14.17c0,7.82-6.36,14.17-14.19,14.17M283.46,269.29v-14.17c0-7.82-6.36-14.17-14.19-14.17H14.19c-7.84,0-14.19,6.35-14.19,14.17v14.17c0,7.82,6.35,14.17,14.19,14.17h255.09c7.82,0,14.19-6.35,14.19-14.17"/><polygon class="cls-1" points="67.06 107.45 67.06 197 42.93 197 42.93 107.45 9.37 107.45 9.37 87.81 100.61 87.81 100.61 107.45 67.06 107.45"/><path class="cls-1" d="M155.02,197v-85.84c-6.65,5.25-17.16,10.05-24.43,13.62l-7.43-16.71c11.45-4.8,25.21-12.06,36.03-20.26h19.03v109.18h-23.2ZM261.26,174.26v22.73h-21.66v-22.73h-49.17v-20.26l42.37-66.19h28.46v69.43h12.84v17.01h-12.84ZM239.6,106.99h-.31c-.45,1.84-3.55,8.5-7.88,15.32l-22.27,34.94h30.46v-50.25Z"/></g></svg>