<svg xmlns="http://www.w3.org/2000/svg" width="377.953" height="377.953" viewBox="0 0 283.465 283.465"><g data-name="Layer"><clipPath id="a"><path transform="matrix(1 0 0 -1 0 283.465)" d="M0 283.465h283.465V0H0z"/></clipPath><g clip-path="url(#a)"><path d="M198.169 196.967h-24.886c0-14.387 3.85-23.674 13.437-41.448l26.597-49.498h-53.045V87.77h76.406v17.787c-23.973 41.61-38.51 74.222-38.51 91.409m-93.692-89.56v89.56H80.353v-89.56h-33.56V87.772h91.23v19.637z" fill="#231f20"/><path d="M283.465 269.29v-14.174c0-7.825-6.362-14.174-14.186-14.174H14.187C6.35 240.942 0 247.292 0 255.116v14.174c0 7.825 6.35 14.175 14.187 14.175h255.092c7.824 0 14.186-6.35 14.186-14.174M269.279 42.524H14.187C6.35 42.524 0 36.174 0 28.35V14.174C0 6.351 6.35 0 14.187 0h255.092c7.824 0 14.186 6.35 14.186 14.174V28.35c0 7.824-6.362 14.174-14.186 14.174" fill="#8d6539"/></g></g></svg>