<?xml version="1.0" encoding="UTF-8"?><svg id="Layer_2" xmlns="http://www.w3.org/2000/svg" viewBox="0 0 283.46 283.46"><defs><style>.cls-1,.cls-2{stroke-width:0px;}.cls-2{fill:#ff5a00;}</style></defs><g id="Layer_1-2"><path class="cls-1" d="M81,107.46v89.56h-24.15v-89.56H23.29v-19.64h91.25v19.64h-33.54ZM168.96,197.02v-85.83c-6.66,5.25-17.16,10.35-24.44,13.6l-7.42-16.7c11.44-4.81,25.2-12.07,36.04-20.26h19.01v109.2h-23.19ZM236.98,197.02v-85.83c-6.65,5.25-17.17,10.35-24.44,13.6l-7.42-16.7c11.44-4.81,25.21-12.07,36.04-20.26h19.02v109.2h-23.2Z"/><path class="cls-2" d="M269.29,42.52H14.17c-7.83,0-14.17-6.35-14.17-14.17v-14.17C0,6.35,6.35,0,14.17,0h255.11c7.82,0,14.17,6.35,14.17,14.17v14.17c0,7.82-6.35,14.17-14.17,14.17M283.46,269.29v-14.17c0-7.82-6.35-14.17-14.17-14.17H14.17c-7.83,0-14.17,6.35-14.17,14.17v14.17c0,7.82,6.35,14.17,14.17,14.17h255.11c7.82,0,14.17-6.35,14.17-14.17"/></g></svg>