<svg xmlns="http://www.w3.org/2000/svg" width="377.953" height="377.953" viewBox="0 0 283.465 283.465">
  <g data-name="Layer">
    <clipPath id="a">
      <path transform="matrix(1 0 0 -1 0 283.465)" d="M0 283.465h283.465V0H0z"/>
    </clipPath>
    <g clip-path="url(#a)">
      <path
        d="M197.86 146.541c-6.962 0-12.525 2.638-14.688 6.037-1.224 1.85-1.224 6.188-1.224 9.438 0 10.362 6.012 20.411 17.162 20.411 10.812 0 16.386-8.824 16.386-18.249 0-10.2-6.8-17.637-17.636-17.637m2.162 53.048c-29.849 0-40.511-20.712-40.511-49.635 0-37.899 17.774-65.123 52.735-65.123 6.188 0 11.75.775 16.387 1.862l-3.4 18.562c-2.937-1.25-8.662-2.625-14.999-2.625-15.299 0-26.449 12.212-27.998 34.174 3.712-3.25 10.836-7.425 22.599-7.425 18.074 0 32.623 11.912 32.623 32.324 0 21.8-14.549 37.886-37.436 37.886m-96.321-92.17v89.546H79.577v-89.547H46.016v-19.65h91.246v19.65z"
        fill="#231f20"/>
      <path
        d="M283.465 269.29v-14.174c0-7.825-6.35-14.174-14.175-14.174H14.175C6.35 240.942 0 247.292 0 255.116v14.174c0 7.825 6.35 14.175 14.175 14.175H269.29c7.825 0 14.175-6.35 14.175-14.174M269.29 42.524H14.175C6.35 42.524 0 36.174 0 28.35V14.174C0 6.351 6.35 0 14.175 0H269.29c7.825 0 14.175 6.35 14.175 14.174V28.35c0 7.824-6.35 14.174-14.175 14.174"
        fill="#ed1c2a"/>
    </g>
  </g>
</svg>
