<svg xmlns="http://www.w3.org/2000/svg" width="377.953" height="377.953" viewBox="0 0 283.465 283.465">
  <g data-name="Layer">
    <clipPath id="a">
      <path transform="matrix(1 0 0 -1 0 283.465)" d="M0 283.465h283.465V0H0z"/>
    </clipPath>
    <g clip-path="url(#a)">
      <path
        d="M196.933 102.348c-10.825 0-16.4 8.812-16.4 18.25 0 10.199 6.813 17.636 17.65 17.636 6.949 0 12.524-2.625 14.674-6.037 1.25-1.862 1.25-6.187 1.25-9.437 0-10.362-6.025-20.412-17.174-20.412m-13.15 97.597c-6.187 0-11.749-.775-16.399-1.863l3.412-18.562c2.95 1.25 8.675 2.625 14.999 2.625 15.313 0 26.462-12.212 28.012-34.173-3.725 3.249-10.849 7.424-22.599 7.424-18.099 0-32.636-11.912-32.636-32.323 0-21.812 14.537-37.9 37.423-37.9 29.849 0 40.536 20.737 40.536 49.649 0 37.899-17.799 65.123-52.748 65.123m-79.147-92.497v89.559H80.512v-89.56H46.939V87.812h91.246v19.637z"
        fill="#231f20"/>
      <path
        d="M283.465 269.29v-14.174c0-7.825-6.35-14.174-14.175-14.174H14.175C6.35 240.942 0 247.292 0 255.116v14.174c0 7.825 6.35 14.175 14.175 14.175H269.29c7.825 0 14.175-6.35 14.175-14.174M269.29 42.524H14.175C6.35 42.524 0 36.174 0 28.35V14.174C0 6.351 6.35 0 14.175 0H269.29c7.825 0 14.175 6.35 14.175 14.174V28.35c0 7.824-6.35 14.174-14.175 14.174"
        fill="#4c90cd"/>
    </g>
  </g>
</svg>
