<svg xmlns="http://www.w3.org/2000/svg" width="377.953" height="377.953" viewBox="0 0 283.465 283.465"><g data-name="Layer"><clipPath id="a"><path transform="matrix(1 0 0 -1 0 283.465)" d="M0 283.465h283.465V0H0z"/></clipPath><g clip-path="url(#a)"><path d="M198.57 100.29c-8.513 0-13.925 5.264-13.925 12.838 0 8.975 8.974 14.537 15.924 17.475 5.725-2.625 11.913-9.737 11.913-16.537 0-7.587-4.95-13.775-13.912-13.775m-2.625 47.024c-7.125 2.774-14.25 10.512-14.25 19.01 0 8.988 5.888 17.488 16.412 17.488 10.363 0 16.087-7.275 16.087-15.924 0-9.9-8.987-15.937-18.25-20.574m1.85 52.585c-24.274 0-38.037-14.537-38.037-31.086 0-14.537 8.189-23.662 18.7-29.074-9.436-5.887-15.311-13.3-15.311-24.6 0-18.1 16.412-30.623 35.11-30.623 19.174 0 35.1 9.437 35.1 28.149 0 10.212-5.25 18.874-15.45 25.049 10.05 4.8 18.862 14.087 18.862 28.46 0 20.75-16.563 33.725-38.974 33.725m-93.384-92.484v89.547H80.287v-89.547H46.712v-19.65h91.247v19.65z" fill="#231f20"/><path d="M283.465 269.29v-14.174c0-7.825-6.35-14.174-14.175-14.174H14.175C6.35 240.942 0 247.292 0 255.116v14.174c0 7.825 6.35 14.175 14.175 14.175H269.29c7.825 0 14.175-6.35 14.175-14.174M269.29 42.524H14.175C6.35 42.524 0 36.174 0 28.35V14.174C0 6.351 6.35 0 14.175 0H269.29c7.825 0 14.175 6.35 14.175 14.174V28.35c0 7.824-6.35 14.174-14.175 14.174" fill="#9b993b"/></g></g></svg>