<svg xmlns="http://www.w3.org/2000/svg" width="377.953" height="377.953" viewBox="0 0 283.465 283.465">
  <g data-name="Layer">
    <clipPath id="a">
      <path transform="matrix(1 0 0 -1 0 283.465)" d="M0 283.465h283.465V0H0z"/>
    </clipPath>
    <g clip-path="url(#a)">
      <path
        d="M204.053 106.943h-.313c-.463 1.863-3.575 8.513-7.887 15.312l-22.274 34.96h30.474zm21.636 67.285v22.737h-21.636v-22.737h-49.196v-20.261l42.383-66.198h28.448v69.447h12.849v17.012zm-123.053-66.81v89.547H78.5v-89.547H44.953v-19.65h91.23v19.65z"
        fill="#231f20"/>
      <path
        d="M283.465 269.29v-14.174c0-7.825-6.362-14.174-14.186-14.174H14.187C6.362 240.942 0 247.292 0 255.116v14.174c0 7.825 6.362 14.175 14.187 14.175h255.092c7.824 0 14.186-6.35 14.186-14.174M269.279 42.524H14.187C6.362 42.524 0 36.174 0 28.35V14.174C0 6.351 6.362 0 14.187 0h255.092c7.824 0 14.186 6.35 14.186 14.174V28.35c0 7.824-6.362 14.174-14.186 14.174"
        fill="#e0b03b"/>
    </g>
  </g>
</svg>
