<?xml version="1.0" encoding="UTF-8"?><svg id="Layer_2" xmlns="http://www.w3.org/2000/svg" viewBox="0 0 283.46 283.46"><defs><style>.cls-1,.cls-2{stroke-width:0px;}.cls-2{fill:#00643c;}</style></defs><g id="Layer_1-2"><path class="cls-1" d="M156.82,199.72c-15.62,0-24.27-3.85-31.55-8.19l8.49-16.86c4.66,3.25,12.24,7.11,21.51,7.11,12.7,0,20.57-7.42,20.57-16.71,0-12.52-9.57-16.85-20.74-16.85h-11.27v-18.1h11.44c10.67,0,17.32-5.57,17.32-13.92,0-6.96-5.25-13.3-16.7-13.3-10.06,0-16.7,4.8-20.26,7.89l-7.89-16.09c9.26-6.19,19.34-9.75,33.09-9.75,22.29,0,34.96,13.3,34.96,27.85,0,11.29-6.03,20.26-17.62,24.6v.3c12.07,2.32,21.19,11.6,21.19,26.92,0,19.17-17.17,35.1-42.54,35.1M243.34,176.47c-4.67,0-10.15-1.86-13.3-4.77v2.79h-15.86v-86.27h16.44v32.17c4.2-6.05,8.97-10.14,16.92-10.14,16.31,0,23.07,17.37,23.07,32.41,0,13.99-7.35,33.81-27.27,33.81M241.23,124.47c-3.27,0-5.84,1.4-7.57,3.15-2.8,2.67-3.15,4.42-3.15,8.04v21.11c0,4.3,2.56,8.15,10.01,8.15,10.5,0,13.06-11.31,13.06-19.81s-1.97-20.64-12.35-20.64M69.94,107.53v89.56h-24.14v-89.56H12.24v-19.65h91.26v19.65h-33.56Z"/><path class="cls-2" d="M269.29,42.52H14.17c-7.82,0-14.17-6.35-14.17-14.17v-14.17C0,6.35,6.35,0,14.17,0h255.12c7.82,0,14.17,6.35,14.17,14.17v14.17c0,7.82-6.35,14.17-14.17,14.17M283.46,269.29v-14.17c0-7.82-6.35-14.17-14.17-14.17H14.17c-7.82,0-14.17,6.35-14.17,14.17v14.17c0,7.82,6.35,14.17,14.17,14.17h255.12c7.82,0,14.17-6.35,14.17-14.17"/></g></svg>