<?xml version="1.0" encoding="UTF-8"?><svg id="Layer_2" xmlns="http://www.w3.org/2000/svg" viewBox="0 0 283.46 283.46"><defs><style>.cls-1,.cls-2{stroke-width:0px;}.cls-2{fill:#6e6e00;}</style></defs><g id="Layer_1-2"><path class="cls-1" d="M67.46,107.45v89.55h-24.14v-89.55H9.76v-19.64h91.24v19.64h-33.55ZM155.41,197v-85.83c-6.64,5.26-17.16,10.36-24.43,13.61l-7.42-16.71c11.45-4.79,25.22-12.05,36.03-20.25h19.02v109.18h-23.2ZM233.64,199.95c-32.95,0-39.43-32.49-39.43-57.7s7.11-57.69,40.06-57.69,39.43,32.47,39.43,57.69-7.11,57.7-40.06,57.7M233.96,102.96c-15.77,0-16.24,28.15-16.24,39.29s.77,39.44,16.24,39.44,16.09-28.61,16.09-39.44c0-11.45-.46-39.29-16.09-39.29"/><path class="cls-2" d="M269.28,42.52H14.19c-7.84,0-14.19-6.35-14.19-14.17v-14.17C0,6.35,6.35,0,14.19,0h255.09c7.82,0,14.19,6.35,14.19,14.17v14.17c0,7.82-6.36,14.17-14.19,14.17M283.46,269.29v-14.17c0-7.82-6.36-14.17-14.19-14.17H14.19c-7.84,0-14.19,6.35-14.19,14.17v14.17c0,7.82,6.35,14.17,14.19,14.17h255.09c7.82,0,14.19-6.35,14.19-14.17"/></g></svg>