<svg xmlns="http://www.w3.org/2000/svg" width="377.953" height="377.953" viewBox="0 0 283.465 283.465"><g data-name="Layer"><clipPath id="a"><path transform="matrix(1 0 0 -1 0 283.465)" d="M0 283.465h283.465V0H0z"/></clipPath><g clip-path="url(#a)"><path d="M233.958 102.964c-15.774 0-16.236 28.15-16.236 39.286 0 10.987.774 39.436 16.236 39.436 15.46 0 16.086-28.61 16.086-39.436 0-11.449-.462-39.286-16.086-39.286m-.313 96.984c-32.947 0-39.434-32.486-39.434-57.698 0-25.21 7.112-57.685 40.059-57.685 32.947 0 39.435 32.474 39.435 57.685 0 25.212-7.113 57.698-40.06 57.698m-78.231-2.95v-85.834c-6.637 5.262-17.161 10.362-24.435 13.612l-7.425-16.712c11.449-4.787 25.223-12.05 36.035-20.249h19.023v109.183zm-87.955-89.547v89.547H43.323v-89.547H9.763V87.815h91.243v19.636z" fill="#231f20"/><path d="M283.465 269.29v-14.174c0-7.825-6.362-14.174-14.186-14.174H14.187C6.35 240.942 0 247.292 0 255.116v14.174c0 7.825 6.35 14.175 14.187 14.175h255.092c7.824 0 14.186-6.35 14.186-14.174M269.279 42.524H14.187C6.35 42.524 0 36.174 0 28.35V14.174C0 6.351 6.35 0 14.187 0h255.092c7.824 0 14.186 6.35 14.186 14.174V28.35c0 7.824-6.362 14.174-14.186 14.174" fill="#9b993b"/></g></g></svg>