<?xml version="1.0" encoding="UTF-8"?><svg id="Layer_2" xmlns="http://www.w3.org/2000/svg" viewBox="0 0 283.46 283.46"><defs><style>.cls-1{fill:#640082;}.cls-1,.cls-2{stroke-width:0px;}</style></defs><g id="Layer_1-2"><path class="cls-2" d="M105.87,107.42v89.55h-24.12v-89.55h-33.56v-19.65h91.25v19.65h-33.56ZM193.84,199.59c-12.69,0-22.42-2.77-30.77-7.89l8.81-17.01c6.05,4.17,12.24,6.96,20.72,6.96s19.19-5.11,19.19-17.95c0-7.87-5.25-18.71-25.37-19.02-6.19,0-13.46-.15-17.01-.15l4.34-56.76h57.37v18.25h-39.29l-1.55,20.72c.64,0,2.01.16,3.1.16,29.86,1.39,41.91,18.25,41.91,34.64,0,20.87-16.55,38.05-41.45,38.05"/><path class="cls-1" d="M269.29,42.52H14.17c-7.82,0-14.17-6.35-14.17-14.17v-14.17C0,6.35,6.35,0,14.17,0h255.12c7.82,0,14.17,6.35,14.17,14.17v14.17c0,7.82-6.35,14.17-14.17,14.17M283.46,269.29v-14.17c0-7.82-6.35-14.17-14.17-14.17H14.17c-7.82,0-14.17,6.35-14.17,14.17v14.17c0,7.82,6.35,14.17,14.17,14.17h255.12c7.82,0,14.17-6.35,14.17-14.17"/></g></svg>