<?xml version="1.0" encoding="UTF-8"?><svg id="Layer_2" xmlns="http://www.w3.org/2000/svg" viewBox="0 0 283.46 283.46"><defs><style>.cls-1{fill:#6e491e;}.cls-1,.cls-2{stroke-width:0px;}</style></defs><g id="Layer_1-2"><path class="cls-2" d="M104.48,107.41v89.56h-24.12v-89.56h-33.56v-19.64h91.23v19.64h-33.55ZM198.17,196.97h-24.89c0-14.39,3.85-23.67,13.44-41.45l26.6-49.5h-53.05v-18.25h76.41v17.79c-23.97,41.61-38.51,74.22-38.51,91.41"/><path class="cls-1" d="M269.28,42.52H14.19c-7.84,0-14.19-6.35-14.19-14.17v-14.17C0,6.35,6.35,0,14.19,0h255.09c7.82,0,14.19,6.35,14.19,14.17v14.17c0,7.82-6.36,14.17-14.19,14.17M283.46,269.29v-14.17c0-7.82-6.36-14.17-14.19-14.17H14.19c-7.84,0-14.19,6.35-14.19,14.17v14.17c0,7.82,6.35,14.17,14.19,14.17h255.09c7.82,0,14.19-6.35,14.19-14.17"/></g></svg>