<?xml version="1.0" encoding="UTF-8"?><svg id="Layer_2" xmlns="http://www.w3.org/2000/svg" viewBox="0 0 283.46 283.46"><defs><style>.cls-1,.cls-2{stroke-width:0px;}.cls-2{fill:#ff1400;}</style></defs><g id="Layer_1-2"><path class="cls-1" d="M103.7,107.42v89.55h-24.12v-89.55h-33.56v-19.65h91.25v19.65h-33.56ZM200.02,199.59c-29.85,0-40.51-20.71-40.51-49.64,0-37.9,17.77-65.12,52.74-65.12,6.19,0,11.75.77,16.39,1.86l-3.4,18.56c-2.94-1.25-8.66-2.62-15-2.62-15.3,0-26.45,12.21-28,34.17,3.71-3.25,10.84-7.42,22.6-7.42,18.07,0,32.62,11.91,32.62,32.32,0,21.8-14.55,37.89-37.44,37.89M197.86,146.54c-6.96,0-12.52,2.64-14.69,6.04-1.22,1.85-1.22,6.19-1.22,9.44,0,10.36,6.01,20.41,17.16,20.41s16.39-8.82,16.39-18.25c0-10.2-6.8-17.64-17.64-17.64"/><path class="cls-2" d="M269.29,42.52H14.17c-7.83,0-14.17-6.35-14.17-14.17v-14.17C0,6.35,6.35,0,14.17,0h255.11c7.82,0,14.17,6.35,14.17,14.17v14.17c0,7.82-6.35,14.17-14.17,14.17M283.46,269.29v-14.17c0-7.82-6.35-14.17-14.17-14.17H14.17c-7.83,0-14.17,6.35-14.17,14.17v14.17c0,7.82,6.35,14.17,14.17,14.17h255.11c7.82,0,14.17-6.35,14.17-14.17"/></g></svg>