<svg xmlns="http://www.w3.org/2000/svg" width="377.953" height="377.953" viewBox="0 0 283.465 283.465"><g data-name="Layer"><clipPath id="a"><path transform="matrix(1 0 0 -1 0 283.465)" d="M0 283.465h283.465V0H0z"/></clipPath><g clip-path="url(#a)"><path d="M236.982 197.016v-85.834c-6.65 5.25-17.175 10.35-24.437 13.599l-7.424-16.7c11.436-4.812 25.211-12.074 36.036-20.261h19.024v109.196zm-68.023 0v-85.834c-6.662 5.25-17.161 10.35-24.436 13.599l-7.425-16.7c11.437-4.812 25.199-12.074 36.036-20.261h19.012v109.196zM81 107.456v89.56H56.851v-89.56H23.29V87.82h91.246v19.637z" fill="#231f20"/><path d="M283.465 269.29v-14.174c0-7.825-6.35-14.174-14.175-14.174H14.175C6.35 240.942 0 247.292 0 255.116v14.174c0 7.825 6.35 14.175 14.175 14.175H269.29c7.825 0 14.175-6.35 14.175-14.174M269.29 42.524H14.175C6.35 42.524 0 36.174 0 28.35V14.174C0 6.351 6.35 0 14.175 0H269.29c7.825 0 14.175 6.35 14.175 14.174V28.35c0 7.824-6.35 14.174-14.175 14.174" fill="#f78f4b"/></g></g></svg>