<svg xmlns="http://www.w3.org/2000/svg" width="377.953" height="377.952" viewBox="0 0 283.465 283.464"><g data-name="Layer"><clipPath id="a"><path transform="matrix(1 0 0 -1 0 283.464)" d="M0 283.464h283.465V0H0z"/></clipPath><g clip-path="url(#a)"><path d="M193.844 199.591c-12.687 0-22.424-2.775-30.774-7.887l8.812-17.012c6.05 4.175 12.237 6.962 20.724 6.962 8.512 0 19.187-5.112 19.187-17.949 0-7.875-5.25-18.712-25.374-19.024-6.187 0-13.462-.15-17.012-.15l4.338-56.76h57.373v18.25h-39.287l-1.549 20.723c.637 0 2.012.163 3.1.163 29.861 1.387 41.91 18.25 41.91 34.636 0 20.874-16.549 38.048-41.448 38.048m-87.972-92.17v89.545H81.748V107.42h-33.56V87.77h91.245v19.65z" fill="#231f20"/><path d="M283.465 269.29v-14.175c0-7.825-6.35-14.175-14.174-14.175H14.175C6.35 240.94 0 247.29 0 255.115v14.174c0 7.825 6.35 14.174 14.175 14.174H269.29c7.824 0 14.174-6.349 14.174-14.174M269.29 42.522H14.175C6.35 42.522 0 36.173 0 28.348V14.174C0 6.35 6.35 0 14.175 0H269.29c7.824 0 14.174 6.35 14.174 14.175v14.174c0 7.825-6.35 14.174-14.174 14.174" fill="#662c91"/></g></g></svg>