<?xml version="1.0" encoding="UTF-8"?><svg id="Layer_2" xmlns="http://www.w3.org/2000/svg" viewBox="0 0 283.46 283.46"><defs><style>.cls-1,.cls-2{stroke-width:0px;}.cls-2{fill:#6e6e00;}</style></defs><g id="Layer_1-2"><path class="cls-1" d="M104.41,107.41v89.55h-24.12v-89.55h-33.57v-19.65h91.25v19.65h-33.55ZM197.79,199.9c-24.27,0-38.04-14.54-38.04-31.09,0-14.54,8.19-23.66,18.7-29.07-9.44-5.89-15.31-13.3-15.31-24.6,0-18.1,16.41-30.62,35.11-30.62s35.1,9.44,35.1,28.15c0,10.21-5.25,18.87-15.45,25.05,10.05,4.8,18.86,14.09,18.86,28.46,0,20.75-16.56,33.72-38.97,33.72M195.94,147.31c-7.12,2.77-14.25,10.51-14.25,19.01,0,8.99,5.89,17.49,16.41,17.49s16.09-7.27,16.09-15.92c0-9.9-8.99-15.94-18.25-20.57M198.57,100.29c-8.51,0-13.92,5.26-13.92,12.84,0,8.97,8.97,14.54,15.92,17.47,5.72-2.62,11.91-9.74,11.91-16.54,0-7.59-4.95-13.77-13.91-13.77"/><path class="cls-2" d="M269.29,42.52H14.17c-7.83,0-14.17-6.35-14.17-14.17v-14.17C0,6.35,6.35,0,14.17,0h255.11c7.82,0,14.17,6.35,14.17,14.17v14.17c0,7.82-6.35,14.17-14.17,14.17M283.46,269.29v-14.17c0-7.82-6.35-14.17-14.17-14.17H14.17c-7.83,0-14.17,6.35-14.17,14.17v14.17c0,7.82,6.35,14.17,14.17,14.17h255.11c7.82,0,14.17-6.35,14.17-14.17"/></g></svg>