<?xml version="1.0" encoding="UTF-8"?><svg id="Layer_2" xmlns="http://www.w3.org/2000/svg" viewBox="0 0 283.46 283.46"><defs><style>.cls-1,.cls-2{stroke-width:0px;}.cls-2{fill:#a50034;}</style></defs><g id="Layer_1-2"><path class="cls-1" d="M70.39,107.46v89.56h-24.12v-89.56H12.72v-19.64h91.23v19.64h-33.56ZM158.35,197.02v-85.83c-6.64,5.25-17.16,10.35-24.44,13.6l-7.42-16.7c11.45-4.81,25.22-12.07,36.03-20.26h19.02v109.2h-23.2ZM199.94,197.02v-14.39c2.79-12.69,15.31-24.27,29.85-36.96,7.27-6.34,15.16-14.25,15.16-24.75,0-9.42-6.2-17.34-18.1-17.34-9.59,0-16.24,6.97-18.86,9.9l-11.45-15.15c10.51-9.12,20.26-13.45,34.95-13.45,19.19,0,37.27,11.12,37.27,33.41,0,18.71-11.9,27.52-25.05,39.42-5.56,5.12-16.54,14.71-17.95,21.05h45.01v18.25h-70.83Z"/><path class="cls-2" d="M269.29,42.52H14.17c-7.83,0-14.17-6.35-14.17-14.17v-14.17C0,6.35,6.35,0,14.17,0h255.11c7.82,0,14.17,6.35,14.17,14.17v14.17c0,7.82-6.35,14.17-14.17,14.17M283.46,269.29v-14.17c0-7.82-6.35-14.17-14.17-14.17H14.17c-7.83,0-14.17,6.35-14.17,14.17v14.17c0,7.82,6.35,14.17,14.17,14.17h255.11c7.82,0,14.17-6.35,14.17-14.17"/></g></svg>