<svg xmlns="http://www.w3.org/2000/svg" width="377.953" height="377.953" viewBox="0 0 283.465 283.465"><g data-name="Layer"><clipPath id="a"><path transform="matrix(1 0 0 -1 0 283.465)" d="M0 283.465h283.465V0H0z"/></clipPath><g clip-path="url(#a)"><path d="M202.968 196.967v-85.834c-6.65 5.25-17.175 10.362-24.438 13.599l-7.423-16.7c11.436-4.8 25.21-12.061 36.036-20.261h19.024v109.196zm-87.972-89.546v89.546H90.872V107.42H57.297V87.77h91.258v19.65z" fill="#231f20"/><path d="M283.465 269.29v-14.174c0-7.825-6.35-14.174-14.174-14.174H14.175C6.35 240.942 0 247.292 0 255.116v14.174c0 7.825 6.35 14.175 14.175 14.175H269.29c7.824 0 14.174-6.35 14.174-14.174M269.29 42.524H14.175C6.35 42.524 0 36.174 0 28.35V14.174C0 6.351 6.35 0 14.175 0H269.29c7.824 0 14.174 6.35 14.174 14.174V28.35c0 7.824-6.35 14.174-14.174 14.174" fill="#006db8"/></g></g></svg>