<?xml version="1.0" encoding="UTF-8"?><svg id="Layer_2" xmlns="http://www.w3.org/2000/svg" viewBox="0 0 283.46 283.46"><defs><style>.cls-1{fill:#a0006e;}.cls-1,.cls-2{stroke-width:0px;}</style></defs><g id="Layer_1-2"><path class="cls-2" d="M105.94,107.42v89.55h-24.12v-89.55h-33.57v-19.65h91.26v19.65h-33.56ZM164.38,196.97v-14.39c2.77-12.67,15.3-24.27,29.85-36.96,7.26-6.34,15.15-14.22,15.15-24.75,0-9.42-6.19-17.32-18.09-17.32-9.59,0-16.24,6.96-18.87,9.9l-11.45-15.15c10.52-9.12,20.26-13.46,34.96-13.46,19.17,0,37.27,11.14,37.27,33.41,0,18.71-11.91,27.52-25.06,39.44-5.56,5.11-16.54,14.7-17.94,21.04h45.01v18.25h-70.83Z"/><path class="cls-1" d="M269.29,42.52H14.17c-7.82,0-14.17-6.35-14.17-14.17v-14.17C0,6.35,6.35,0,14.17,0h255.12c7.82,0,14.17,6.35,14.17,14.17v14.17c0,7.82-6.35,14.17-14.17,14.17M283.46,269.29v-14.17c0-7.82-6.35-14.17-14.17-14.17H14.17c-7.82,0-14.17,6.35-14.17,14.17v14.17c0,7.82,6.35,14.17,14.17,14.17h255.12c7.82,0,14.17-6.35,14.17-14.17"/></g></svg>