<svg xmlns="http://www.w3.org/2000/svg" width="377.953" height="377.952" viewBox="0 0 283.465 283.464">
  <g data-name="Layer">
    <clipPath id="a">
      <path transform="matrix(1 0 0 -1 0 283.464)" d="M0 283.464h283.465V0H0z"/>
    </clipPath>
    <g clip-path="url(#a)">
      <path
        d="M69.935 107.534v89.56H45.811v-89.56H12.237V87.885h91.26v19.65zm177.593 40.136c-1.75-.112-3.5-.112-4.9-.112-5.699 0-14.337 1.4-14.337 8.862 0 4.537 3.263 7.812 7.813 7.812 3.612 0 6.65-1.175 8.75-3.387 1.874-1.988 2.674-4.313 2.674-7.35zm11.075 27.974c-5.825 0-8.725-3.612-9.675-8.5-5.125 6.063-9.912 9.087-18.424 9.087-10.962 0-18.425-7.924-18.425-18.536 0-16.9 17.725-20.162 31.487-20.162 2.562 0 4.087-.125 4.087-2.225v-4.075c0-4.424-2.8-8.624-11.437-8.624-7.225 0-12.699 3.374-15.387 5.712l-5.712-11.662c6.875-4.438 14.462-6.412 25.186-6.412 8.738 0 22.85 3.15 22.85 21.1v28.685c0 2.213.262 4.075 2.212 4.075.7 0 1.987-.35 2.687-.575l.925 10.6c-2.437.587-6.524 1.512-10.374 1.512M156.82 199.718c-15.624 0-24.286-3.85-31.549-8.187l8.5-16.862c4.65 3.25 12.225 7.112 21.5 7.112 12.686 0 20.573-7.424 20.573-16.71 0-12.526-9.587-16.85-20.724-16.85h-11.287v-18.1h11.437c10.675 0 17.324-5.575 17.324-13.925 0-6.962-5.249-13.299-16.699-13.299-10.049 0-16.712 4.8-20.262 7.887l-7.887-16.087c9.275-6.187 19.337-9.749 33.1-9.749 22.273 0 34.96 13.3 34.96 27.85 0 11.285-6.037 20.26-17.637 24.597v.301c12.062 2.325 21.187 11.6 21.187 26.924 0 19.174-17.162 35.098-42.536 35.098"
        fill="#231f20"/>
      <path
        d="M283.465 269.29v-14.175c0-7.825-6.35-14.175-14.174-14.175H14.188C6.363 240.94 0 247.29 0 255.115v14.174c0 7.825 6.363 14.174 14.188 14.174H269.29c7.824 0 14.174-6.349 14.174-14.174M269.29 42.522H14.188C6.363 42.522 0 36.173 0 28.348V14.174C0 6.35 6.363 0 14.188 0H269.29c7.824 0 14.174 6.35 14.174 14.175v14.174c0 7.825-6.35 14.174-14.174 14.174"
        fill="#f78f4b"/>
    </g>
  </g>
</svg>
