<?xml version="1.0" encoding="UTF-8"?><svg id="Layer_2" xmlns="http://www.w3.org/2000/svg" viewBox="0 0 283.46 283.46"><defs><style>.cls-1{fill:#640082;}</style></defs><g id="Layer_1-2"><g><path class="cls-1" d="m269.29,42.52H14.17c-7.82,0-14.17-6.35-14.17-14.17v-14.17C0,6.35,6.35,0,14.17,0h255.12c7.82,0,14.17,6.35,14.17,14.17v14.17c0,7.82-6.35,14.17-14.17,14.17m14.17,226.77v-14.17c0-7.82-6.35-14.17-14.17-14.17H14.17c-7.82,0-14.17,6.35-14.17,14.17v14.17c0,7.82,6.35,14.17,14.17,14.17h255.12c7.82,0,14.17-6.35,14.17-14.17"/><g><path d="m112.84,197.3h-25.34l-38.62-109.23h25.8l19.62,59.48c3.71,11.43,5.56,20.08,6.33,24.26h.31c.77-4.17,2.47-12.05,6.33-23.95l19.78-59.79h24.25l-38.47,109.23Z"/><path d="m195.65,200.08c-24.26,0-38.01-14.52-38.01-31.05,0-14.52,8.19-23.64,18.69-29.04-9.42-5.87-15.29-13.29-15.29-24.56,0-18.08,16.38-30.59,35.07-30.59s35.07,9.42,35.07,28.12c0,10.2-5.25,18.85-15.45,25.03,10.04,4.79,18.85,14.06,18.85,28.43,0,20.7-16.53,33.68-38.93,33.68Zm-1.85-52.53c-7.11,2.78-14.21,10.51-14.21,19,0,8.96,5.87,17.46,16.38,17.46s16.07-7.26,16.07-15.91c0-9.89-8.96-15.91-18.23-20.55Zm2.63-46.97c-8.5,0-13.91,5.25-13.91,12.82,0,8.96,8.96,14.52,15.91,17.46,5.72-2.63,11.9-9.73,11.9-16.53,0-7.57-4.94-13.75-13.9-13.75Z"/></g></g></g></svg>