<?xml version="1.0" encoding="UTF-8"?><svg id="Layer_2" xmlns="http://www.w3.org/2000/svg" viewBox="0 0 283.46 283.46"><defs><style>.cls-1{fill:#a0006e;}</style></defs><g id="Layer_1-2"><g><path class="cls-1" d="m269.29,42.52H14.17c-7.82,0-14.17-6.35-14.17-14.17v-14.17C0,6.35,6.35,0,14.17,0h255.12c7.82,0,14.17,6.35,14.17,14.17v14.17c0,7.82-6.35,14.17-14.17,14.17m14.17,226.77v-14.17c0-7.82-6.35-14.17-14.17-14.17H14.17c-7.82,0-14.17,6.35-14.17,14.17v14.17c0,7.82,6.35,14.17,14.17,14.17h255.12c7.82,0,14.17-6.35,14.17-14.17"/><g><path d="m114.31,196.99h-25.34l-38.62-109.23h25.8l19.62,59.48c3.71,11.43,5.56,20.08,6.33,24.26h.31c.77-4.17,2.47-12.05,6.33-23.95l19.78-59.79h24.26l-38.47,109.23Z"/><path d="m191.71,199.47c-12.67,0-22.4-2.78-30.75-7.88l8.81-16.99c6.03,4.17,12.21,6.95,20.7,6.95s19.16-5.1,19.16-17.92c0-7.88-5.25-18.69-25.34-19-6.18,0-13.44-.15-16.99-.15l4.33-56.7h57.32v18.23h-39.24l-1.54,20.7c.62,0,2.01.15,3.09.15,29.82,1.39,41.87,18.23,41.87,34.61,0,20.86-16.53,38.01-41.4,38.01Z"/></g></g></g></svg>