<?xml version="1.0" encoding="UTF-8"?><svg id="Layer_2" xmlns="http://www.w3.org/2000/svg" viewBox="0 0 283.46 283.46"><defs><style>.cls-1{fill:#ff82b4;}</style></defs><g id="Layer_1-2"><g><path class="cls-1" d="m269.29,42.52H14.17c-7.82,0-14.17-6.35-14.17-14.17v-14.17C0,6.35,6.35,0,14.17,0h255.12c7.82,0,14.17,6.35,14.17,14.17v14.17c0,7.82-6.35,14.17-14.17,14.17m14.17,226.77v-14.17c0-7.82-6.35-14.17-14.17-14.17H14.17c-7.82,0-14.17,6.35-14.17,14.17v14.17c0,7.82,6.35,14.17,14.17,14.17h255.12c7.82,0,14.17-6.35,14.17-14.17"/><g><path d="m72.83,197.3h-25.34L8.87,88.07h25.8l19.62,59.48c3.71,11.43,5.56,20.08,6.33,24.26h.31c.77-4.17,2.47-12.05,6.33-23.95l19.78-59.79h24.26l-38.47,109.23Z"/><path d="m146.37,197.15v-85.75c-6.64,5.25-17.15,10.35-24.41,13.6l-7.42-16.69c11.43-4.79,25.18-12.05,36-20.24h19v109.07h-23.17Z"/><path d="m234.58,200.08c-32.91,0-39.4-32.44-39.4-57.63s7.11-57.63,40.01-57.63,39.4,32.44,39.4,57.63-7.11,57.63-40.01,57.63Zm.31-96.87c-15.76,0-16.22,28.12-16.22,39.24s.77,39.4,16.22,39.4,16.07-28.58,16.07-39.4c0-11.43-.46-39.24-16.07-39.24Z"/></g></g></g></svg>