<?xml version="1.0" encoding="UTF-8"?><svg id="Layer_2" xmlns="http://www.w3.org/2000/svg" viewBox="0 0 283.46 283.46"><defs><style>.cls-1{fill:#6e491e;}</style></defs><g id="Layer_1-2"><g><path class="cls-1" d="m269.29,42.52H14.17c-7.82,0-14.17-6.35-14.17-14.17v-14.17C0,6.35,6.35,0,14.17,0h255.12c7.82,0,14.17,6.35,14.17,14.17v14.17c0,7.82-6.35,14.17-14.17,14.17m14.17,226.77v-14.17c0-7.82-6.35-14.17-14.17-14.17H14.17c-7.82,0-14.17,6.35-14.17,14.17v14.17c0,7.82,6.35,14.17,14.17,14.17h255.12c7.82,0,14.17-6.35,14.17-14.17"/><g><path d="m72.83,197.3h-25.34L8.87,88.07h25.8l19.62,59.48c3.71,11.43,5.56,20.08,6.33,24.26h.31c.77-4.17,2.47-12.05,6.33-23.95l19.78-59.79h24.25l-38.47,109.23Z"/><path d="m116.86,197.15v-14.37c2.78-12.67,15.29-24.26,29.82-36.92,7.26-6.33,15.14-14.21,15.14-24.72,0-9.42-6.18-17.3-18.08-17.3-9.58,0-16.22,6.95-18.85,9.89l-11.43-15.14c10.51-9.12,20.24-13.44,34.92-13.44,19.16,0,37.23,11.12,37.23,33.37,0,18.69-11.9,27.5-25.03,39.4-5.56,5.1-16.53,14.68-17.92,21.01h44.96v18.23h-70.76Z"/><path d="m234.58,200.08c-32.91,0-39.4-32.44-39.4-57.63s7.11-57.63,40.01-57.63,39.4,32.44,39.4,57.63-7.11,57.63-40.01,57.63Zm.31-96.87c-15.76,0-16.22,28.12-16.22,39.24s.77,39.4,16.22,39.4,16.07-28.58,16.07-39.4c0-11.43-.46-39.24-16.07-39.24Z"/></g></g></g></svg>