<?xml version="1.0" encoding="UTF-8"?><svg id="Layer_2" xmlns="http://www.w3.org/2000/svg" viewBox="0 0 283.46 283.46"><defs><style>.cls-1{fill:#d2d200;}</style></defs><g id="Layer_1-2"><g><path class="cls-1" d="m269.29,42.52H14.17c-7.82,0-14.17-6.35-14.17-14.17v-14.17C0,6.35,6.35,0,14.17,0h255.12c7.82,0,14.17,6.35,14.17,14.17v14.17c0,7.82-6.35,14.17-14.17,14.17m14.17,226.77v-14.17c0-7.82-6.35-14.17-14.17-14.17H14.17c-7.82,0-14.17,6.35-14.17,14.17v14.17c0,7.82,6.35,14.17,14.17,14.17h255.12c7.82,0,14.17-6.35,14.17-14.17"/><g><path d="m112.15,196.99h-25.34l-38.62-109.23h25.8l19.62,59.48c3.71,11.43,5.56,20.08,6.33,24.26h.31c.77-4.17,2.47-12.05,6.33-23.95l19.78-59.79h24.25l-38.47,109.23Z"/><path d="m197.89,199.46c-29.82,0-40.48-20.7-40.48-49.59,0-37.85,17.77-65.04,52.68-65.04,6.18,0,11.74.77,16.38,1.85l-3.4,18.54c-2.93-1.24-8.65-2.63-14.99-2.63-15.29,0-26.42,12.21-27.96,34.14,3.71-3.24,10.81-7.42,22.56-7.42,18.08,0,32.6,11.9,32.6,32.29,0,21.78-14.52,37.85-37.39,37.85Zm-2.16-52.99c-6.95,0-12.51,2.63-14.68,6.03-1.24,1.85-1.24,6.18-1.24,9.42,0,10.35,6.03,20.39,17.15,20.39s16.38-8.81,16.38-18.23c0-10.2-6.8-17.61-17.61-17.61Z"/></g></g></g></svg>