<svg xmlns="http://www.w3.org/2000/svg" width="377.952" height="377.953" viewBox="0 0 283.464 283.465">
  <g data-name="Layer">
    <clipPath id="a">
      <path transform="matrix(1 0 0 -1 0 283.465)" d="M0 283.465h283.464V0H0z"/>
    </clipPath>
    <g clip-path="url(#a)">
      <path
        d="M194.142 196.955v-85.84c-6.649 5.256-17.17 10.361-24.44 13.61l-7.423-16.708c11.444-4.794 25.214-12.056 36.035-20.259h19.026v109.197zm-89.977 2.628c-27.69 0-54.137-18.253-54.137-55.993 0-32.635 19.025-58.77 54.137-58.77 13.45 0 23.35 2.786 31.241 6.338l-7.892 19.957c-7.11-4.02-15.155-5.877-22.115-5.877-16.708 0-30.318 10.982-30.318 37.27 0 25.061 16.397 36.656 32.173 36.656 8.665 0 16.398-2.628 21.805-5.877l6.498 18.723c-8.354 4.483-20.259 7.573-31.392 7.573"/>
      <path
        d="M283.464 269.291v-14.173c0-7.828-6.346-14.173-14.173-14.173H14.172C6.345 240.945 0 247.29 0 255.118v14.173c0 7.828 6.345 14.174 14.172 14.174h255.119c7.827 0 14.173-6.346 14.173-14.174M269.291 42.52H14.172C6.345 42.52 0 36.174 0 28.347V14.173C0 6.346 6.345 0 14.172 0h255.119c7.827 0 14.173 6.346 14.173 14.173v14.174c0 7.827-6.346 14.173-14.173 14.173"
        fill="#4c90cd"/>
    </g>
  </g>
</svg>
