<?xml version="1.0" encoding="UTF-8"?><svg id="Layer_2" xmlns="http://www.w3.org/2000/svg" viewBox="0 0 283.46 283.46"><defs><style>.cls-1,.cls-2{stroke-width:0px;}.cls-2{fill:#ffbe00;}</style></defs><g id="Layer_1-2"><path class="cls-2" d="M219.68,283.46H63.77c-35.22,0-63.77-28.56-63.77-63.79V63.79C0,28.56,28.55,0,63.77,0h155.91c35.22,0,63.79,28.56,63.79,63.79v155.89c0,35.22-28.56,63.79-63.79,63.79"/><path class="cls-1" d="M148.27,220.29c-38.07,0-74.43-25.1-74.43-76.98,0-44.86,26.16-80.8,74.43-80.8,18.49,0,32.11,3.82,42.95,8.71l-10.84,27.44c-9.79-5.54-20.85-8.07-30.41-8.07-22.97,0-41.67,15.09-41.67,51.25s22.54,50.4,44.22,50.4c11.91,0,22.55-3.62,29.99-8.09l8.92,25.72c-11.47,6.17-27.86,10.42-43.16,10.42"/></g></svg>