<svg xmlns="http://www.w3.org/2000/svg" width="377.953" height="377.953" viewBox="0 0 283.465 283.465"><g data-name="Layer"><clipPath id="a"><path transform="matrix(1 0 0 -1 0 283.465)" d="M0 283.465h283.465V0H0z"/></clipPath><g clip-path="url(#a)"><path d="M219.69 283.465H63.774C28.55 283.465 0 254.904 0 219.68V63.786C0 28.562 28.55 0 63.775 0H219.69c35.225 0 63.775 28.562 63.775 63.786V219.68c0 35.224-28.55 63.785-63.775 63.785" fill="#4c90cd"/><path d="M134.606 149.901h-17.863v41.9h19.563c21.05 0 29.35-6.6 29.35-22.55 0-16.588-15.95-19.35-31.05-19.35m-1.488-58.26h-16.375v34.448h16.8c17.438 0 28.925-2.762 28.925-17.01 0-13.826-10.212-17.438-29.35-17.438m5.1 125.033h-54.65V66.542h57c28.063 0 54.438 7.662 54.438 38.061 0 15.537-12.35 27.224-24.037 29.35v.424c15.737 2.125 28.925 14.462 28.925 35.736 0 37.85-33.176 46.561-61.676 46.561" fill="#fff"/></g></g></svg>