<svg xmlns="http://www.w3.org/2000/svg" width="377.953" height="377.953" viewBox="0 0 283.465 283.465"><g data-name="Layer"><clipPath id="a"><path transform="matrix(1 0 0 -1 0 283.465)" d="M0 283.465h283.465V0H0z"/></clipPath><g clip-path="url(#a)"><path d="M219.69 283.465H63.774C28.55 283.465 0 254.904 0 219.68V63.786C0 28.562 28.55 0 63.775 0H219.69c35.225 0 63.775 28.562 63.775 63.786V219.68c0 35.224-28.55 63.785-63.775 63.785" fill="#ed1c2a"/><path d="M147.265 123.962c-3.188-9.575-5.738-21.899-6.375-27.436h-.425c-.638 5.537-3.613 17.861-6.813 27.436l-12.75 39.336h39.126zm30.2 92.71-9.35-28.487h-55.513l-9.35 28.486h-32.75L123.665 66.34h35.938l53.375 150.332z" fill="#fff"/></g></g></svg>