<svg xmlns="http://www.w3.org/2000/svg" width="377.953" height="377.953" viewBox="0 0 283.465 283.465"><g data-name="Layer"><clipPath id="a"><path transform="matrix(1 0 0 -1 0 283.465)" d="M0 283.465h283.465V0H0z"/></clipPath><g clip-path="url(#a)"><path d="M219.67 283.465H63.77C28.548 283.465 0 254.904 0 219.68V63.786C0 28.562 28.548 0 63.77 0h155.9c35.222 0 63.795 28.562 63.795 63.786V219.68c0 35.224-28.573 63.785-63.795 63.785" fill="#008c5a"/><path d="M131.895 92.7h-15.31v98.022h16.373c28.886 0 51.034-11.05 51.034-50.386 0-42.111-31.685-47.636-52.096-47.636m-6.175 123.97H83.41V66.54h43.81c43.796 0 91.005 9.787 91.005 71.672 0 65.698-46.572 78.46-92.505 78.46" fill="#fff"/></g></g></svg>