<svg xmlns="http://www.w3.org/2000/svg" width="377.953" height="377.953" viewBox="0 0 283.465 283.465"><g data-name="Layer"><clipPath id="a"><path transform="matrix(1 0 0 -1 0 283.465)" d="M0 283.465h283.465V0H0z"/></clipPath><g clip-path="url(#a)"><path d="M219.68 283.465H63.772C28.548 283.465 0 254.904 0 219.68V63.786C0 28.562 28.548 0 63.772 0H219.68c35.224 0 63.785 28.562 63.785 63.786V219.68c0 35.224-28.56 63.785-63.785 63.785" fill="#ffcd02"/><path d="M148.272 220.29c-38.074 0-74.435-25.1-74.435-76.985 0-44.86 26.161-80.797 74.435-80.797 18.486 0 32.111 3.825 42.948 8.712l-10.837 27.437c-9.787-5.537-20.849-8.075-30.41-8.075-22.976 0-41.675 15.087-41.675 51.249 0 34.448 22.537 50.398 44.224 50.398 11.912 0 22.55-3.625 29.986-8.088l8.925 25.725c-11.475 6.174-27.862 10.424-43.16 10.424"/></g></g></svg>