<?xml version="1.0" encoding="UTF-8"?><svg id="Layer_2" xmlns="http://www.w3.org/2000/svg" viewBox="0 0 283.46 283.46"><defs><style>.cls-1{fill:#ff1400;}.cls-1,.cls-2{stroke-width:0px;}.cls-2{fill:#fff;}</style></defs><g id="Layer_1-2"><path class="cls-1" d="M219.69,283.46H63.78c-35.23,0-63.78-28.56-63.78-63.79V63.79C0,28.56,28.55,0,63.78,0h155.91c35.23,0,63.78,28.56,63.78,63.79v155.89c0,35.22-28.55,63.79-63.78,63.79"/><path class="cls-2" d="M177.47,216.67l-9.35-28.49h-55.51l-9.35,28.49h-32.75l53.16-150.33h35.94l53.38,150.33h-35.51ZM147.27,123.96c-3.19-9.57-5.74-21.9-6.38-27.44h-.42c-.64,5.54-3.61,17.86-6.81,27.44l-12.75,39.34h39.13l-12.76-39.34Z"/></g></svg>