<?xml version="1.0" encoding="UTF-8"?><svg id="Layer_2" xmlns="http://www.w3.org/2000/svg" viewBox="0 0 283.46 283.46"><defs><style>.cls-1{fill:#3c91dc;}.cls-1,.cls-2{stroke-width:0px;}.cls-2{fill:#fff;}</style></defs><g id="Layer_1-2"><path class="cls-1" d="M219.69,283.46H63.78c-35.23,0-63.78-28.56-63.78-63.79V63.79C0,28.56,28.55,0,63.78,0h155.91c35.23,0,63.78,28.56,63.78,63.79v155.89c0,35.22-28.55,63.79-63.78,63.79"/><path class="cls-2" d="M138.22,216.67h-54.65V66.54h57c28.06,0,54.44,7.66,54.44,38.06,0,15.54-12.35,27.22-24.04,29.35v.42c15.74,2.12,28.93,14.46,28.93,35.74,0,37.85-33.18,46.56-61.68,46.56M133.12,91.64h-16.38v34.45h16.8c17.44,0,28.93-2.76,28.93-17.01s-10.21-17.44-29.35-17.44M134.61,149.9h-17.86v41.9h19.56c21.05,0,29.35-6.6,29.35-22.55s-15.95-19.35-31.05-19.35"/></g></svg>