<?xml version="1.0" encoding="UTF-8"?><svg id="Layer_2" xmlns="http://www.w3.org/2000/svg" viewBox="0 0 283.46 283.46"><defs><style>.cls-1{fill:#00643c;}.cls-1,.cls-2{stroke-width:0px;}.cls-2{fill:#fff;}</style></defs><g id="Layer_1-2"><path class="cls-1" d="M219.67,283.46H63.77c-35.22,0-63.77-28.56-63.77-63.79V63.79C0,28.56,28.55,0,63.77,0h155.9c35.22,0,63.79,28.56,63.79,63.79v155.89c0,35.22-28.57,63.79-63.79,63.79"/><path class="cls-2" d="M125.72,216.67h-42.31V66.54h43.81c43.8,0,91.01,9.79,91.01,71.67,0,65.7-46.57,78.46-92.51,78.46M131.9,92.7h-15.31v98.02h16.37c28.89,0,51.03-11.05,51.03-50.39,0-42.11-31.69-47.64-52.1-47.64"/></g></svg>