<?xml version="1.0" encoding="UTF-8"?><svg id="Calque_2" xmlns="http://www.w3.org/2000/svg" viewBox="0 0 49.76 49.76"><g id="Calque_1-2"><path d="M47.27,49.76H2.49c-1.37,0-2.49-1.11-2.49-2.49V2.49C0,1.12,1.11,0,2.49,0h44.78c1.37,0,2.49,1.11,2.49,2.49v44.78c0,1.38-1.12,2.49-2.49,2.49Z" style="fill:#414241; stroke-width:0px;"/><rect x="11.82" y="4.99" width="26.12" height="26.12" style="fill:#ffce00; stroke-width:0px;"/><path d="M30.58,29.3l2.02-2.02-2.81-12.32,5.96-5.96c.5-.5.5-1.32,0-1.83h0c-.5-.5-1.32-.5-1.83,0l-5.96,5.96-12.32-2.81-2.02,2.02,10.18,4.95-4,4-3.59-.32-1.5,1.5,3.8,1.93,1.93,3.8,1.5-1.5-.32-3.59,4-4,4.96,10.19Z" style="fill:#414241; stroke-width:0px;"/><path d="M16.24,44.5c-2.32,0-4.32-1.25-4.32-4.92s2.36-4.92,4.35-4.92c2.32,0,4.32,1.25,4.32,4.92s-2.36,4.92-4.35,4.92ZM16.25,36.34c-1.7,0-2.21,1.5-2.21,3.24s.54,3.24,2.21,3.24,2.21-1.5,2.21-3.24-.54-3.24-2.21-3.24Z" style="fill:#ffce00; stroke-width:0px;"/><path d="M26.06,39.02c-.13-.07-.4-.18-.65-.18-.4,0-.61.12-.78.28-.25.22-.26.51-.26.9v4.24h-1.85v-5.26c0-.61-.05-1.45-.07-1.78h1.66v1.05c.42-.67.88-1.23,1.75-1.23.26,0,.53.08.67.13l-.47,1.85Z" style="fill:#ffce00; stroke-width:0px;"/><path d="M28.09,44.25v-9.76h1.85v9.76h-1.85Z" style="fill:#ffce00; stroke-width:0px;"/><path d="M35.49,44.65c-.44,1.36-1.24,2.29-3.14,2.44l-.17-1.42c.61,0,1.42-.21,1.62-1l-2.4-7.45h2.03l.98,3.99c.16.63.29,1.32.32,1.53h.03c.08-.37.18-.91.34-1.53l1.01-3.99h1.74l-2.36,7.43Z" style="fill:#ffce00; stroke-width:0px;"/></g></svg>