<?xml version="1.0" encoding="UTF-8"?><svg id="Calque_2" xmlns="http://www.w3.org/2000/svg" viewBox="0 0 49.76 49.76"><g id="Calque_1-2"><path d="M2.49,47.51c-.14,0-.25-.11-.25-.25V2.48c0-.14.11-.25.25-.25h44.78c.14,0,.25.11.25.25v44.78c0,.14-.11.25-.25.25H2.49Z" style="fill:#ffce00; stroke-width:0px;"/><path d="M45.28,4.48v40.8H4.48V4.48h40.8M47.27,0H2.49C1.12,0,0,1.11,0,2.49v44.78c0,1.37,1.11,2.49,2.49,2.49h44.78c1.37,0,2.49-1.11,2.49-2.49V2.49c0-1.37-1.12-2.49-2.49-2.49h0Z" style="fill:#414241; stroke-width:0px;"/><path d="M33.79,42.45l3.15-3.15-4.38-19.25,9.3-9.3c.79-.79.79-2.07,0-2.86h0c-.79-.79-2.07-.79-2.86,0l-9.3,9.3-19.25-4.38-3.15,3.15,15.9,7.73-6.25,6.25-5.61-.49-2.35,2.35,5.94,3.02,3.02,5.94,2.35-2.35-.49-5.61,6.25-6.25,7.73,15.9Z" style="fill:#414241; stroke-width:0px;"/></g></svg>