<?xml version="1.0" encoding="UTF-8"?>
<svg id="Calque_2" xmlns="http://www.w3.org/2000/svg" viewBox="0 0 49.76 49.76">
  <g id="Calque_1-2">
    <path
      d="M47.27,49.76H2.49c-1.37,0-2.49-1.11-2.49-2.49V2.49C0,1.12,1.11,0,2.49,0h44.78c1.37,0,2.49,1.11,2.49,2.49v44.78c0,1.38-1.12,2.49-2.49,2.49Z"
      style="fill:#414241; stroke-width:0px;"/>
    <path
      d="M16.55,34.9c-2.19,0-4.28-1.44-4.28-4.42,0-2.58,1.5-4.64,4.28-4.64,1.06,0,1.84.22,2.47.5l-.62,1.58c-.56-.32-1.2-.46-1.75-.46-1.32,0-2.39.87-2.39,2.94s1.29,2.9,2.54,2.9c.68,0,1.3-.21,1.72-.46l.51,1.48c-.66.34-1.61.58-2.48.58Z"
      style="fill:#ffce00; stroke-width:0px;"/>
    <path
      d="M23.3,34.7h-2.43v-8.62h2.52c2.52,0,5.23.56,5.23,4.12-.01,3.76-2.68,4.5-5.32,4.5ZM23.65,27.57h-.88v5.63h.94c1.66,0,2.93-.64,2.93-2.9,0-2.41-1.82-2.73-2.99-2.73Z"
      style="fill:#ffce00; stroke-width:0px;"/>
    <path
      d="M34.44,34.9c-2.87,0-4.28-1.88-4.28-4.42s1.36-4.64,4.45-4.64c1.27,0,2.06.24,2.81.56l-.6,1.51c-.65-.35-1.36-.54-2.06-.54-1.81,0-2.63,1.34-2.63,3.05,0,1.87,1.06,2.98,2.43,2.98.42,0,.89-.06,1.11-.13v-1.48h-1.55v-1.55h3.37v4.13c-.64.24-1.87.53-3.05.53Z"
      style="fill:#ffce00; stroke-width:0px;"/>
    <path
      d="M17.08,45.78c-2.15,0-4.01-1.16-4.01-4.56s2.19-4.56,4.03-4.56c2.15,0,4.01,1.16,4.01,4.56s-2.18,4.56-4.03,4.56ZM17.09,38.22c-1.58,0-2.05,1.39-2.05,3.01s.5,3.01,2.05,3.01,2.05-1.39,2.05-3.01c0-1.62-.49-3.01-2.05-3.01Z"
      style="fill:#ffce00; stroke-width:0px;"/>
    <path
      d="M26.25,40.7c-.12-.06-.37-.17-.6-.17-.37,0-.56.11-.72.26-.23.21-.24.48-.24.83v3.93h-1.71v-4.87c0-.56-.05-1.34-.06-1.65h1.54v.98c.39-.62.82-1.14,1.62-1.14.24,0,.49.07.62.12l-.45,1.71Z"
      style="fill:#ffce00; stroke-width:0px;"/>
    <path d="M28.21,45.55v-9.04h1.71v9.04h-1.71Z" style="fill:#ffce00; stroke-width:0px;"/>
    <path
      d="M35.13,45.92c-.4,1.26-1.15,2.13-2.91,2.26l-.16-1.32c.56,0,1.32-.2,1.5-.93l-2.22-6.9h1.88l.9,3.7c.15.59.27,1.22.29,1.42h.02c.07-.34.17-.84.32-1.42l.94-3.7h1.61l-2.17,6.89Z"
      style="fill:#ffce00; stroke-width:0px;"/>
    <rect x="15.09" y="3.63" width="19.58" height="19.58" style="fill:#ffce00; stroke-width:0px;"/>
    <path
      d="M29.16,21.86l1.51-1.51-2.1-9.24,4.47-4.47c.38-.38.38-.99,0-1.37h0c-.38-.38-.99-.38-1.37,0l-4.47,4.47-9.24-2.1-1.51,1.51,7.63,3.71-3,3-2.69-.24-1.13,1.13,2.85,1.45,1.45,2.85,1.13-1.13-.24-2.69,3-3,3.71,7.63Z"
      style="fill:#414241; stroke-width:0px;"/>
  </g>
</svg>
