<svg width="512" height="512" viewBox="0 0 512 512" fill="none" xmlns="http://www.w3.org/2000/svg">
<path d="M48 255.559L99.7543 255.559C128.419 255.559 156.255 265.181 178.801 282.883L237.199 328.735C259.745 346.437 287.581 356.059 316.246 356.059L336 356.059" stroke="black" stroke-width="32" stroke-linecap="round" stroke-linejoin="round"/>
<path d="M48 255.534L99.7543 255.534C128.419 255.534 156.255 245.912 178.801 228.21L237.199 182.358C259.745 164.656 287.581 155.034 316.246 155.034L336 155.034" stroke="black" stroke-width="32" stroke-linecap="round" stroke-linejoin="round"/>
<path d="M340 155L363.5 155C419.005 155 464 199.995 464 255.5V255.5C464 311.005 419.005 356 363.5 356L340 356" stroke="black" stroke-width="32" stroke-linecap="round" stroke-linejoin="round"/>
<circle cx="80" cy="256" r="32" fill="black"/>
<circle cx="340" cy="155" r="32" fill="black"/>
<circle cx="340" cy="356" r="32" fill="black"/>
</svg>
