<svg width="512" height="512" viewBox="0 0 512 512" fill="none" xmlns="http://www.w3.org/2000/svg">
<circle cx="256" cy="256" r="48" stroke="black" stroke-width="32"/>
<path fill-rule="evenodd" clip-rule="evenodd" d="M283.719 272C286.442 267.293 288 261.829 288 256C288 250.171 286.442 244.707 283.719 240H464C472.837 240 480 247.163 480 256C480 264.837 472.837 272 464 272H283.719ZM228.281 272H48C39.1634 272 32 264.837 32 256C32 247.163 39.1634 240 48 240H228.281C225.558 244.707 224 250.171 224 256C224 261.829 225.558 267.293 228.281 272Z" fill="black"/>
</svg>
