<svg xmlns="http://www.w3.org/2000/svg" width="377.953" height="377.953" viewBox="0 0 283.465 283.465">
  <g data-name="Layer">
    <clipPath id="a">
      <path transform="matrix(1 0 0 -1 0 283.465)" d="M0 283.465h283.465V0H0z"/>
    </clipPath>
    <g clip-path="url(#a)">
      <path
        d="M219.667 283.465H63.76C28.536 283.465 0 254.904 0 219.68V63.786C0 28.562 28.536 0 63.76 0h155.907c35.224 0 63.797 28.562 63.797 63.786V219.68c0 35.224-28.573 63.785-63.797 63.785"
        fill="#f78f4b"/>
      <path
        d="M143.583 92.273H128.71v46.15h15.3c12.337 0 28.499-3.839 28.499-23.188 0-20.412-17.85-22.962-28.925-22.962m.425 71.66H128.71v52.736H95.522V66.537h46.161c34.65 0 64.423 9.362 64.423 46.573 0 43.6-36.362 50.823-62.097 50.823"/>
    </g>
  </g>
</svg>
