<svg xmlns="http://www.w3.org/2000/svg" width="377.953" height="377.953" viewBox="0 0 283.465 283.465">
  <g data-name="Layer">
    <clipPath id="a">
      <path transform="matrix(1 0 0 -1 0 283.465)" d="M0 283.465h283.465V0H0z"/>
    </clipPath>
    <g clip-path="url(#a)">
      <path
        d="M219.68 283.465H63.773C28.549 283.465 0 254.904 0 219.68V63.786C0 28.562 28.549 0 63.773 0H219.68c35.224 0 63.785 28.562 63.785 63.786V219.68c0 35.224-28.561 63.785-63.785 63.785"
        fill="#9b993b"/>
      <path
        d="m162.468 216.67-39.349-63.585-10.837 12.55v51.035H79.108V66.538h33.174v66.985l53.161-66.985h38.936l-57.01 66.985 56.56 83.147z"
        fill="#fff"/>
    </g>
  </g>
</svg>
