<?xml version="1.0" encoding="UTF-8"?><svg id="Layer_2" xmlns="http://www.w3.org/2000/svg" viewBox="0 0 283.46 283.46"><defs><style>.cls-1,.cls-2{stroke-width:0px;}.cls-2{fill:#ff5a00;}</style></defs><g id="Layer_1-2"><path class="cls-2" d="M219.67,283.46H63.76c-35.22,0-63.76-28.56-63.76-63.79V63.79C0,28.56,28.54,0,63.76,0h155.91c35.22,0,63.8,28.56,63.8,63.79v155.89c0,35.22-28.57,63.79-63.8,63.79"/><path class="cls-1" d="M144.01,163.93h-15.3v52.74h-33.19V66.54h46.16c34.65,0,64.42,9.36,64.42,46.57,0,43.6-36.36,50.82-62.1,50.82M143.58,92.27h-14.87v46.15h15.3c12.34,0,28.5-3.84,28.5-23.19,0-20.41-17.85-22.96-28.92-22.96"/></g></svg>