<?xml version="1.0" encoding="UTF-8"?><svg id="Layer_2" xmlns="http://www.w3.org/2000/svg" viewBox="0 0 283.46 283.46"><defs><style>.cls-1,.cls-2{stroke-width:0px;}.cls-2{fill:#d5c900;}</style></defs><g id="Layer_1-2"><path class="cls-2" d="M219.69,283.46H63.78c-35.23,0-63.78-28.56-63.78-63.79V63.79C0,28.56,28.55,0,63.78,0h155.91c35.23,0,63.78,28.56,63.78,63.79v155.89c0,35.22-28.55,63.79-63.78,63.79"/><path class="cls-1" d="M116.75,218.37c-2.55,0-5.1,0-7.65-.21l.85-24.66c1.05,0,2.34.21,3.4.21,17.65,0,27.86-10.21,27.86-33.17v-94h33.16v96.76c0,27.42-14.66,55.07-57.63,55.07"/></g></svg>