<?xml version="1.0" encoding="UTF-8"?><svg id="Layer_2" xmlns="http://www.w3.org/2000/svg" viewBox="0 0 283.46 283.46"><defs><style>.cls-1{fill:#f3a4ba;}.cls-1,.cls-2{stroke-width:0px;}</style></defs><g id="Layer_1-2"><path class="cls-1" d="M219.69,283.46H63.78c-35.23,0-63.78-28.56-63.78-63.79V63.79C0,28.56,28.55,0,63.78,0h155.91c35.23,0,63.78,28.56,63.78,63.79v155.89c0,35.22-28.55,63.79-63.78,63.79"/><path class="cls-2" d="M173.7,216.67l-29.99-51.04c-4.89-8.29-9.56-8.92-12.98-8.92h-9.77v59.96h-33.18V66.54h48.69c33.81,0,64.66,7.66,64.66,43.17,0,25.09-19.57,36.36-32.75,38.49,6.15,10.85,31.69,48.91,45.5,68.47h-40.19ZM137.12,92.27h-16.16v39.76h18.06c12.77,0,27.65-3.83,27.65-20.41s-16.36-19.35-29.55-19.35"/></g></svg>