<svg xmlns="http://www.w3.org/2000/svg" width="377.953" height="377.953" viewBox="0 0 283.465 283.465">
  <g data-name="Layer">
    <clipPath id="a">
      <path transform="matrix(1 0 0 -1 0 283.465)" d="M0 283.465h283.465V0H0z"/>
    </clipPath>
    <g clip-path="url(#a)">
      <path
        d="M219.69 283.465H63.774C28.55 283.465 0 254.904 0 219.68V63.786C0 28.562 28.55 0 63.775 0H219.69c35.225 0 63.775 28.562 63.775 63.786V219.68c0 35.224-28.55 63.785-63.775 63.785"
        fill="#f59fb3"/>
      <path
        d="M137.12 92.273h-16.163v39.761h18.063c12.774 0 27.65-3.825 27.65-20.412 0-17.224-16.362-19.349-29.55-19.349m36.575 124.396-29.988-51.036c-4.887-8.287-9.562-8.924-12.975-8.924h-9.775v59.96H87.782V66.537h48.688c33.812 0 64.663 7.662 64.663 43.173 0 25.087-19.575 36.361-32.75 38.486 6.15 10.85 31.687 48.911 45.5 68.473z"/>
    </g>
  </g>
</svg>
