<?xml version="1.0" encoding="UTF-8"?><svg id="Layer_2" xmlns="http://www.w3.org/2000/svg" viewBox="0 0 283.46 283.46"><defs><style>.cls-1{fill:#fff;}.cls-1,.cls-2{stroke-width:0px;}.cls-2{fill:#a50034;}</style></defs><g id="Layer_1-2"><path class="cls-2" d="M219.69,283.46H63.76c-35.21,0-63.76-28.56-63.76-63.79V63.79C0,28.56,28.55,0,63.76,0h155.93c35.21,0,63.78,28.56,63.78,63.79v155.89c0,35.22-28.56,63.79-63.78,63.79"/><path class="cls-1" d="M141.94,220.28c-43.81,0-64.85-20.2-64.85-60.6v-93.15h33.16v92.08c0,19.77,8.73,34.65,32.33,34.65s31.48-14.87,31.48-34.65v-92.08h32.33v93.15c0,40.4-20,60.6-64.44,60.6"/></g></svg>