<svg xmlns="http://www.w3.org/2000/svg" width="377.953" height="377.953" viewBox="0 0 283.465 283.465"><g data-name="Layer"><clipPath id="a"><path transform="matrix(1 0 0 -1 0 283.465)" d="M0 283.465h283.465V0H0z"/></clipPath><g clip-path="url(#a)"><path d="M219.69 283.465H63.774C28.55 283.465 0 254.904 0 219.68V63.786C0 28.562 28.55 0 63.775 0H219.69c35.225 0 63.775 28.562 63.775 63.786V219.68c0 35.224-28.55 63.785-63.775 63.785" fill="#cec92a"/><path d="M116.747 218.367c-2.55 0-5.1 0-7.65-.212l.85-24.662c1.05 0 2.337.212 3.4.212 17.65 0 27.862-10.21 27.862-33.173V66.535h33.163v96.76c0 27.423-14.662 55.072-57.625 55.072"/></g></g></svg>