<svg xmlns="http://www.w3.org/2000/svg" width="377.953" height="377.953" viewBox="0 0 283.465 283.465">
  <g data-name="Layer">
    <clipPath id="a">
      <path transform="matrix(1 0 0 -1 0 283.465)" d="M0 283.465h283.465V0H0z"/>
    </clipPath>
    <g clip-path="url(#a)">
      <path
        d="M219.69 283.465H63.774C28.55 283.465 0 254.904 0 219.68V63.786C0 28.562 28.55 0 63.775 0H219.69c35.225 0 63.775 28.562 63.775 63.786V219.68c0 35.224-28.55 63.785-63.775 63.785"
        fill="#9b993b"/>
      <path
        d="M159.276 216.678h-34.875L71.237 66.333h35.513l27.008 81.872c5.104 15.735 7.655 27.644 8.719 33.386h.424c1.064-5.742 3.403-16.587 8.719-32.962l27.22-82.296h33.387z"
        fill="#fff"/>
    </g>
  </g>
</svg>
