<svg xmlns="http://www.w3.org/2000/svg" width="377.953" height="377.953" viewBox="0 0 283.465 283.465">
  <g data-name="Layer">
    <clipPath id="a">
      <path transform="matrix(1 0 0 -1 0 283.465)" d="M0 283.465h283.465V0H0z"/>
    </clipPath>
    <g clip-path="url(#a)">
      <path
        d="M219.69 283.465H63.761C28.55 283.465 0 254.904 0 219.68V63.786C0 28.562 28.55 0 63.762 0H219.69c35.212 0 63.775 28.562 63.775 63.786V219.68c0 35.224-28.563 63.785-63.775 63.785"
        fill="#b80b4b"/>
      <path
        d="M141.943 220.283c-43.813 0-64.851-20.199-64.851-60.598V66.54h33.163v92.084c0 19.774 8.725 34.65 32.325 34.65 23.4 0 31.475-14.876 31.475-34.65V66.54h32.326v93.146c0 40.4-20 60.598-64.438 60.598"
        fill="#fff"/>
    </g>
  </g>
</svg>
