<svg xmlns="http://www.w3.org/2000/svg" width="377.953" height="377.953" viewBox="0 0 283.465 283.465">
  <g data-name="Layer">
    <clipPath id="a">
      <path transform="matrix(1 0 0 -1 0 283.465)" d="M0 283.465h283.465V0H0z"/>
    </clipPath>
    <g clip-path="url(#a)">
      <path
        d="M219.69 283.465H63.762C28.55 283.465 0 254.904 0 219.68V63.786C0 28.562 28.55 0 63.763 0H219.69c35.213 0 63.775 28.562 63.775 63.786V219.68c0 35.224-28.562 63.785-63.775 63.785"
        fill="#00b397"/>
      <path
        d="m175.768 216.67-54.026-74.635c-7.662-10.424-11.7-19.561-12.962-22.974h-.45v97.609H77.517V66.538h30.388l53.175 77.41c8.088 11.699 12.975 20.41 13.838 24.024h.425V66.538h30.612V216.67z"
        fill="#fff"/>
    </g>
  </g>
</svg>
