<svg width="32" height="14" viewBox="0 0 32 14" fill="none" xmlns="http://www.w3.org/2000/svg">
<rect width="32" height="14" rx="2.4" fill="#ED1C2A"/>
<path d="M12.4212 10H11.2212V5.56C10.8772 5.832 10.3332 6.096 9.95716 6.264L9.57316 5.4C10.1652 5.152 10.8772 4.776 11.4372 4.352H12.4212V10ZM17.9937 8.408C17.9937 9.48 17.1377 10.152 15.9777 10.152C14.7217 10.152 14.0097 9.4 14.0097 8.544C14.0097 7.792 14.4337 7.32 14.9777 7.04C14.4897 6.736 14.1857 6.352 14.1857 5.768C14.1857 4.832 15.0337 4.184 16.0017 4.184C16.9937 4.184 17.8177 4.672 17.8177 5.64C17.8177 6.168 17.5457 6.616 17.0177 6.936C17.5377 7.184 17.9937 7.664 17.9937 8.408ZM16.7377 5.712C16.7377 5.32 16.4817 5 16.0177 5C15.5777 5 15.2977 5.272 15.2977 5.664C15.2977 6.128 15.7617 6.416 16.1217 6.568C16.4177 6.432 16.7377 6.064 16.7377 5.712ZM16.8257 8.496C16.8257 7.984 16.3617 7.672 15.8817 7.432C15.5137 7.576 15.1457 7.976 15.1457 8.416C15.1457 8.88 15.4497 9.32 15.9937 9.32C16.5297 9.32 16.8257 8.944 16.8257 8.496ZM22.3183 8.32C22.3183 9.312 21.4303 10.136 20.1183 10.136C19.3103 10.136 18.8623 9.936 18.4863 9.712L18.9263 8.84C19.1663 9.008 19.5583 9.208 20.0383 9.208C20.6943 9.208 21.1023 8.824 21.1023 8.344C21.1023 7.696 20.6063 7.472 20.0303 7.472H19.4463V6.536H20.0383C20.5903 6.536 20.9343 6.248 20.9343 5.816C20.9343 5.456 20.6623 5.128 20.0703 5.128C19.5503 5.128 19.2063 5.376 19.0223 5.536L18.6143 4.704C19.0943 4.384 19.6143 4.2 20.3263 4.2C21.4783 4.2 22.1343 4.888 22.1343 5.64C22.1343 6.224 21.8223 6.688 21.2223 6.912V6.928C21.8463 7.048 22.3183 7.528 22.3183 8.32Z" fill="white"/>
</svg>
