<svg width="32" height="14" viewBox="0 0 32 14" fill="none" xmlns="http://www.w3.org/2000/svg">
<rect width="32" height="14" rx="2.4" fill="#87D3DF"/>
<path d="M13.3652 8.32C13.3652 9.312 12.4772 10.136 11.1652 10.136C10.3572 10.136 9.90916 9.936 9.53316 9.712L9.97316 8.84C10.2132 9.008 10.6052 9.208 11.0852 9.208C11.7412 9.208 12.1492 8.824 12.1492 8.344C12.1492 7.696 11.6532 7.472 11.0772 7.472H10.4932V6.536H11.0852C11.6372 6.536 11.9812 6.248 11.9812 5.816C11.9812 5.456 11.7092 5.128 11.1172 5.128C10.5972 5.128 10.2532 5.376 10.0692 5.536L9.66116 4.704C10.1412 4.384 10.6612 4.2 11.3732 4.2C12.5252 4.2 13.1812 4.888 13.1812 5.64C13.1812 6.224 12.8692 6.688 12.2692 6.912V6.928C12.8932 7.048 13.3652 7.528 13.3652 8.32ZM17.9697 6.784C17.9697 8.744 17.0497 10.152 15.2417 10.152C14.9217 10.152 14.6337 10.112 14.3937 10.056L14.5697 9.096C14.7217 9.16 15.0177 9.232 15.3457 9.232C16.1377 9.232 16.7137 8.6 16.7937 7.464C16.6017 7.632 16.2337 7.848 15.6257 7.848C14.6897 7.848 13.9377 7.232 13.9377 6.176C13.9377 5.048 14.6897 4.216 15.8737 4.216C17.4177 4.216 17.9697 5.288 17.9697 6.784ZM16.8097 6.16C16.8097 5.624 16.4977 5.104 15.9217 5.104C15.3617 5.104 15.0737 5.56 15.0737 6.048C15.0737 6.576 15.4257 6.96 15.9857 6.96C16.3457 6.96 16.6337 6.824 16.7457 6.648C16.8097 6.552 16.8097 6.328 16.8097 6.16ZM22.3183 8.32C22.3183 9.312 21.4303 10.136 20.1183 10.136C19.3103 10.136 18.8623 9.936 18.4863 9.712L18.9263 8.84C19.1663 9.008 19.5583 9.208 20.0383 9.208C20.6943 9.208 21.1023 8.824 21.1023 8.344C21.1023 7.696 20.6063 7.472 20.0303 7.472H19.4463V6.536H20.0383C20.5903 6.536 20.9343 6.248 20.9343 5.816C20.9343 5.456 20.6623 5.128 20.0703 5.128C19.5503 5.128 19.2063 5.376 19.0223 5.536L18.6143 4.704C19.0943 4.384 19.6143 4.2 20.3263 4.2C21.4783 4.2 22.1343 4.888 22.1343 5.64C22.1343 6.224 21.8223 6.688 21.2223 6.912V6.928C21.8463 7.048 22.3183 7.528 22.3183 8.32Z" fill="#24303B"/>
</svg>
