<svg width="20" height="9" viewBox="0 0 20 9" fill="none" xmlns="http://www.w3.org/2000/svg">
<rect width="20" height="9" rx="1.5" fill="#006DB8"/>
<path d="M8.13569 3.3155H6.94219V6.5H6.08419V3.3155H4.89069V2.617H8.13569V3.3155ZM10.2765 3.563L9.33048 6.5H8.53298L7.58698 3.563H8.43948L8.81898 5.125C8.87948 5.3725 8.94548 5.708 8.97298 5.8235H8.98398C9.00598 5.697 9.08298 5.3505 9.14348 5.1195L9.55048 3.563H10.2765ZM14.7853 6.5H14.0153V4.641C14.0153 4.344 13.9108 4.1405 13.6193 4.1405C13.4763 4.1405 13.3608 4.201 13.2893 4.278C13.1573 4.421 13.1408 4.509 13.1408 4.696V6.5H12.3708V4.641C12.3708 4.344 12.2663 4.1405 11.9748 4.1405C11.8318 4.1405 11.7108 4.201 11.6393 4.278C11.5073 4.421 11.4963 4.498 11.4963 4.696V6.5H10.7263V3.563H11.4413V3.9535C11.6393 3.6565 11.8648 3.4695 12.2553 3.4695C12.6458 3.4695 12.9043 3.651 13.0473 3.9975C13.2508 3.6895 13.5038 3.4695 13.8998 3.4695C14.5323 3.4695 14.7853 3.9095 14.7853 4.4815V6.5Z" fill="white"/>
</svg>
