<svg width="32" height="14" viewBox="0 0 32 14" fill="none" xmlns="http://www.w3.org/2000/svg">
<rect width="32" height="14" rx="2.4" fill="#006DB8"/>
<path d="M13.2883 5.368H11.5523V10H10.3043V5.368H8.56828V4.352H13.2883V5.368ZM16.4022 5.728L15.0262 10H13.8662L12.4902 5.728H13.7302L14.2822 8C14.3702 8.36 14.4662 8.848 14.5062 9.016H14.5222C14.5542 8.832 14.6662 8.328 14.7542 7.992L15.3462 5.728H16.4022ZM22.9605 10H21.8405V7.296C21.8405 6.864 21.6885 6.568 21.2645 6.568C21.0565 6.568 20.8885 6.656 20.7845 6.768C20.5925 6.976 20.5685 7.104 20.5685 7.376V10H19.4485V7.296C19.4485 6.864 19.2965 6.568 18.8725 6.568C18.6645 6.568 18.4885 6.656 18.3845 6.768C18.1925 6.976 18.1765 7.088 18.1765 7.376V10H17.0565V5.728H18.0965V6.296C18.3845 5.864 18.7125 5.592 19.2805 5.592C19.8485 5.592 20.2245 5.856 20.4325 6.36C20.7285 5.912 21.0965 5.592 21.6725 5.592C22.5925 5.592 22.9605 6.232 22.9605 7.064V10Z" fill="white"/>
</svg>
