<svg width="32" height="32" viewBox="0 0 32 32" fill="none" xmlns="http://www.w3.org/2000/svg">
<rect width="32" height="32" rx="2.4" fill="#006DB8"/>
<path d="M12.6104 13.21H10.4404V19H8.88035V13.21H6.71035V11.94H12.6104V13.21ZM16.5027 13.66L14.7827 19H13.3327L11.6127 13.66H13.1627L13.8527 16.5C13.9627 16.95 14.0827 17.56 14.1327 17.77H14.1527C14.1927 17.54 14.3327 16.91 14.4427 16.49L15.1827 13.66H16.5027ZM24.7006 19H23.3006V15.62C23.3006 15.08 23.1106 14.71 22.5806 14.71C22.3206 14.71 22.1106 14.82 21.9806 14.96C21.7406 15.22 21.7106 15.38 21.7106 15.72V19H20.3106V15.62C20.3106 15.08 20.1206 14.71 19.5906 14.71C19.3306 14.71 19.1106 14.82 18.9806 14.96C18.7406 15.22 18.7206 15.36 18.7206 15.72V19H17.3206V13.66H18.6206V14.37C18.9806 13.83 19.3906 13.49 20.1006 13.49C20.8106 13.49 21.2806 13.82 21.5406 14.45C21.9106 13.89 22.3706 13.49 23.0906 13.49C24.2406 13.49 24.7006 14.29 24.7006 15.33V19Z" fill="white"/>
</svg>
