<svg width="32" height="14" viewBox="0 0 32 14" fill="none" xmlns="http://www.w3.org/2000/svg">
<rect width="32" height="14" rx="2.4" fill="#CEC92A"/>
<path d="M10.0461 5.368H8.31009V10H7.06209V5.368H5.32609V4.352H10.0461V5.368ZM12.776 10H9.48797V9.112L11.4 6.576H9.59197V5.728H12.672V6.672L10.824 9.152H12.776V10ZM17.1146 7.592C17.1146 7.728 17.1066 7.912 17.0906 8.056H14.4426C14.4426 8.064 14.4426 8.072 14.4426 8.08C14.4426 8.84 14.9946 9.248 15.7146 9.248C16.0986 9.248 16.5066 9.088 16.7306 8.968L17.0266 9.8C16.6986 9.952 16.1306 10.136 15.5066 10.136C14.1706 10.136 13.3306 9.224 13.3306 7.896C13.3306 6.768 13.9386 5.592 15.3066 5.592C16.6266 5.592 17.1146 6.608 17.1146 7.592ZM16.0586 7.296C16.0986 6.848 15.8266 6.376 15.2586 6.376C14.6186 6.376 14.4186 6.92 14.4186 7.296H16.0586ZM21.7281 10H20.6081V7.296C20.6081 6.864 20.4561 6.568 19.9681 6.568C19.7441 6.568 19.5441 6.664 19.4241 6.776C19.2081 6.984 19.1921 7.088 19.1921 7.376V10H18.0721V5.728H19.1121V6.336C19.4161 5.88 19.8161 5.592 20.4001 5.592C21.3521 5.592 21.7281 6.232 21.7281 7.064V10ZM26.3493 10H22.6853V9.256C22.8293 8.6 23.4773 8 24.2293 7.344C24.6053 7.016 25.0133 6.608 25.0133 6.064C25.0133 5.576 24.6933 5.168 24.0773 5.168C23.5813 5.168 23.2373 5.528 23.1013 5.68L22.5093 4.896C23.0533 4.424 23.5573 4.2 24.3173 4.2C25.3093 4.2 26.2453 4.776 26.2453 5.928C26.2453 6.896 25.6293 7.352 24.9493 7.968C24.6613 8.232 24.0933 8.728 24.0213 9.056H26.3493V10Z" fill="#24303B"/>
</svg>
