<svg width="20" height="9" viewBox="0 0 20 9" fill="none" xmlns="http://www.w3.org/2000/svg">
<rect width="20" height="9" rx="1.5" fill="#CEC92A"/>
<path d="M5.90669 3.3155H4.71319V6.5H3.85519V3.3155H2.66169V2.617H5.90669V3.3155ZM7.78348 6.5H5.52298V5.8895L6.83748 4.146H5.59448V3.563H7.71198V4.212L6.44148 5.917H7.78348V6.5ZM10.7663 4.8445C10.7663 4.938 10.7608 5.0645 10.7498 5.1635H8.92928C8.92928 5.169 8.92928 5.1745 8.92928 5.18C8.92928 5.7025 9.30878 5.983 9.80378 5.983C10.0678 5.983 10.3483 5.873 10.5023 5.7905L10.7058 6.3625C10.4803 6.467 10.0898 6.5935 9.66078 6.5935C8.74228 6.5935 8.16478 5.9665 8.16478 5.0535C8.16478 4.278 8.58278 3.4695 9.52328 3.4695C10.4308 3.4695 10.7663 4.168 10.7663 4.8445ZM10.0403 4.641C10.0678 4.333 9.88078 4.0085 9.49028 4.0085C9.05028 4.0085 8.91278 4.3825 8.91278 4.641H10.0403ZM13.9381 6.5H13.1681V4.641C13.1681 4.344 13.0636 4.1405 12.7281 4.1405C12.5741 4.1405 12.4366 4.2065 12.3541 4.2835C12.2056 4.4265 12.1946 4.498 12.1946 4.696V6.5H11.4246V3.563H12.1396V3.981C12.3486 3.6675 12.6236 3.4695 13.0251 3.4695C13.6796 3.4695 13.9381 3.9095 13.9381 4.4815V6.5ZM17.1207 5.345C17.1207 6.027 16.5102 6.5935 15.6082 6.5935C15.0527 6.5935 14.7447 6.456 14.4862 6.302L14.7887 5.7025C14.9537 5.818 15.2232 5.9555 15.5532 5.9555C16.0042 5.9555 16.2847 5.6915 16.2847 5.3615C16.2847 4.916 15.9437 4.762 15.5477 4.762H15.1462V4.1185H15.5532C15.9327 4.1185 16.1692 3.9205 16.1692 3.6235C16.1692 3.376 15.9822 3.1505 15.5752 3.1505C15.2177 3.1505 14.9812 3.321 14.8547 3.431L14.5742 2.859C14.9042 2.639 15.2617 2.5125 15.7512 2.5125C16.5432 2.5125 16.9942 2.9855 16.9942 3.5025C16.9942 3.904 16.7797 4.223 16.3672 4.377V4.388C16.7962 4.4705 17.1207 4.8005 17.1207 5.345Z" fill="#24303B"/>
</svg>
