<svg width="20" height="9" viewBox="0 0 20 9" fill="none" xmlns="http://www.w3.org/2000/svg">
<rect width="20" height="9" rx="1.5" fill="#CEC92A"/>
<path d="M5.90669 3.3155H4.71319V6.5H3.85519V3.3155H2.66169V2.617H5.90669V3.3155ZM7.78348 6.5H5.52298V5.8895L6.83748 4.146H5.59448V3.563H7.71198V4.212L6.44148 5.917H7.78348V6.5ZM10.7663 4.8445C10.7663 4.938 10.7608 5.0645 10.7498 5.1635H8.92928C8.92928 5.169 8.92928 5.1745 8.92928 5.18C8.92928 5.7025 9.30878 5.983 9.80378 5.983C10.0678 5.983 10.3483 5.873 10.5023 5.7905L10.7058 6.3625C10.4803 6.467 10.0898 6.5935 9.66078 6.5935C8.74228 6.5935 8.16478 5.9665 8.16478 5.0535C8.16478 4.278 8.58278 3.4695 9.52328 3.4695C10.4308 3.4695 10.7663 4.168 10.7663 4.8445ZM10.0403 4.641C10.0678 4.333 9.88078 4.0085 9.49028 4.0085C9.05028 4.0085 8.91278 4.3825 8.91278 4.641H10.0403ZM13.9381 6.5H13.1681V4.641C13.1681 4.344 13.0636 4.1405 12.7281 4.1405C12.5741 4.1405 12.4366 4.2065 12.3541 4.2835C12.2056 4.4265 12.1946 4.498 12.1946 4.696V6.5H11.4246V3.563H12.1396V3.981C12.3486 3.6675 12.6236 3.4695 13.0251 3.4695C13.6796 3.4695 13.9381 3.9095 13.9381 4.4815V6.5ZM17.1207 5.2405C17.1207 5.983 16.5322 6.5935 15.6467 6.5935C15.1957 6.5935 14.8492 6.4945 14.5522 6.313L14.8657 5.708C15.0802 5.8565 15.3002 5.9555 15.6027 5.9555C15.9052 5.9555 16.2847 5.774 16.2847 5.3175C16.2847 5.037 16.0977 4.652 15.3827 4.641C15.1627 4.641 14.9042 4.6355 14.7777 4.6355L14.9317 2.617H16.9722V3.266H15.5752L15.5202 4.003C15.5422 4.003 15.5917 4.0085 15.6302 4.0085C16.6917 4.058 17.1207 4.6575 17.1207 5.2405Z" fill="#24303B"/>
</svg>
