<svg width="20" height="9" viewBox="0 0 20 9" fill="none" xmlns="http://www.w3.org/2000/svg">
<rect width="20" height="9" rx="1.5" fill="#CEC92A"/>
<path d="M5.90669 3.3155H4.71319V6.5H3.85519V3.3155H2.66169V2.617H5.90669V3.3155ZM7.78348 6.5H5.52298V5.8895L6.83748 4.146H5.59448V3.563H7.71198V4.212L6.44148 5.917H7.78348V6.5ZM10.7663 4.8445C10.7663 4.938 10.7608 5.0645 10.7498 5.1635H8.92928C8.92928 5.169 8.92928 5.1745 8.92928 5.18C8.92928 5.7025 9.30878 5.983 9.80378 5.983C10.0678 5.983 10.3483 5.873 10.5023 5.7905L10.7058 6.3625C10.4803 6.467 10.0898 6.5935 9.66078 6.5935C8.74228 6.5935 8.16478 5.9665 8.16478 5.0535C8.16478 4.278 8.58278 3.4695 9.52328 3.4695C10.4308 3.4695 10.7663 4.168 10.7663 4.8445ZM10.0403 4.641C10.0678 4.333 9.88078 4.0085 9.49028 4.0085C9.05028 4.0085 8.91278 4.3825 8.91278 4.641H10.0403ZM13.9381 6.5H13.1681V4.641C13.1681 4.344 13.0636 4.1405 12.7281 4.1405C12.5741 4.1405 12.4366 4.2065 12.3541 4.2835C12.2056 4.4265 12.1946 4.498 12.1946 4.696V6.5H11.4246V3.563H12.1396V3.981C12.3486 3.6675 12.6236 3.4695 13.0251 3.4695C13.6796 3.4695 13.9381 3.9095 13.9381 4.4815V6.5ZM17.2747 5.246C17.2747 6.0215 16.7577 6.5935 15.9437 6.5935C14.8822 6.5935 14.5027 5.8565 14.5027 4.828C14.5027 3.4805 15.1352 2.5125 16.3782 2.5125C16.5982 2.5125 16.7962 2.54 16.9612 2.5785L16.8402 3.2385C16.7357 3.1945 16.5322 3.145 16.3067 3.145C15.7622 3.145 15.3662 3.5795 15.3112 4.3605C15.4432 4.245 15.6962 4.0965 16.1142 4.0965C16.7577 4.0965 17.2747 4.52 17.2747 5.246ZM16.4937 5.334C16.4937 4.971 16.2517 4.707 15.8667 4.707C15.6192 4.707 15.4212 4.8005 15.3442 4.9215C15.3002 4.9875 15.3002 5.1415 15.3002 5.257C15.3002 5.6255 15.5147 5.983 15.9107 5.983C16.2957 5.983 16.4937 5.6695 16.4937 5.334Z" fill="#24303B"/>
</svg>
