<?xml version="1.0" encoding="UTF-8"?><svg id="Layer_2" xmlns="http://www.w3.org/2000/svg" viewBox="0 0 283.46 283.46"><g id="Layer_1-2"><g><path d="M274.25,18.42H9.21C4.12,18.42,0,14.3,0,9.21S4.12,0,9.21,0H274.25c5.09,0,9.21,4.12,9.21,9.21s-4.12,9.21-9.21,9.21m9.21,255.83h0c0-5.08-4.12-9.21-9.21-9.21H9.21c-5.09,0-9.21,4.13-9.21,9.21s4.12,9.21,9.21,9.21H274.25c5.09,0,9.21-4.12,9.21-9.21M96.34,207.38h0c5.49-1.7,11.2-2.58,17.05-2.58,7.01,0,13.82,1.24,20.27,3.66,2.13,.8,4.03,1.74,5.7,2.55,.71,.35,1.63,.8,2.38,1.14,.75-.34,1.68-.79,2.38-1.14,1.68-.82,3.57-1.75,5.71-2.55,6.45-2.43,13.26-3.66,20.26-3.66,5.85,0,11.56,.88,17.05,2.58h0l32.74-50.99c1.51-2.35,.18-5.49-2.56-6.04l-5.07-1.01-.05-.02-3.54-.71v-.25c-.05-11.19-2.34-32.91-2.36-33.04-.55-3.96-2.26-7.61-4.97-10.56-2.95-3.23-6.98-5.18-11.34-5.48-7.03-.49-16.74-.99-26.99-1.32v-8.67c0-2.35-1.91-4.25-4.25-4.25h-12.19v-25.15c0-1.77-1.43-3.2-3.2-3.2h-3.24c-1.76,0-3.2,1.43-3.2,3.2v25.15h-12.19c-2.35,0-4.25,1.9-4.25,4.25v8.67c-10.25,.32-19.97,.82-26.99,1.32-4.35,.31-8.38,2.25-11.34,5.48-2.7,2.95-4.42,6.6-4.96,10.56-.02,.17-2.31,21.78-2.36,33.04v.25l-5.14,1.03h-.01l-3.51,.71c-2.74,.55-4.07,3.68-2.56,6.04l32.75,50.99Zm-6.52-90.39c.2-1.35,.8-2.6,1.73-3.62,.74-.81,1.74-1.29,2.83-1.37,11.64-.82,30.79-1.65,47.35-1.65s35.72,.83,47.36,1.65c1.08,.08,2.09,.56,2.83,1.37,.92,1.01,1.52,2.26,1.73,3.64,.27,2.44,1.67,16.53,2.11,26.53,.06,1.28-1.11,2.28-2.37,2.02l-50.02-10.01c-1.09-.21-2.19-.21-3.28,0l-50.02,10.01c-1.26,.25-2.43-.74-2.37-2.02,.46-10.56,1.99-25.38,2.12-26.55m145.82,112.21c-6.71-1.78-14.08-1.48-20.57,.89l-1.53,.55c-.55,.19-1.12,.38-1.68,.55-1.13,.34-2.26,.64-3.41,.89-2.29,.51-4.62,.83-6.96,.98-4.66,.3-9.38-.08-13.95-1.18-1.14-.28-2.28-.59-3.39-.95-.56-.19-1.12-.37-1.66-.58l-.7-.26-.61-.21c-1.64-.56-3.33-.99-5.05-1.29-3.42-.61-6.98-.69-10.44-.25-1.73,.21-3.44,.56-5.11,1.04-.84,.24-1.66,.51-2.47,.81-.72,.27-1.48,.61-2.33,1.01-1.71,.81-3.62,1.82-5.9,2.74-2.25,.91-4.99,1.75-8.16,1.77-3.17-.02-5.91-.86-8.16-1.77-2.28-.92-4.19-1.94-5.89-2.74-.85-.41-1.61-.74-2.33-1.01-.81-.31-1.64-.57-2.47-.81-1.67-.48-3.38-.83-5.11-1.04-3.46-.44-7.01-.35-10.44,.25-1.71,.3-3.4,.73-5.04,1.29l-.61,.21-.7,.26c-.55,.21-1.11,.39-1.66,.58-1.12,.36-2.25,.68-3.4,.95-4.57,1.1-9.28,1.48-13.94,1.18-2.34-.15-4.66-.47-6.96-.98-1.15-.25-2.29-.55-3.41-.89-.56-.17-1.12-.35-1.68-.55l-1.53-.55c-6.5-2.37-13.86-2.67-20.57-.89-1.76,.46-3.79-.65-4.61-2.69l-1.4-3.72c-.81-2.03,.48-4.45,2.95-5.1,9.09-2.4,18.81-2.01,27.68,1.2l1.36,.49c.41,.14,.82,.27,1.24,.4,.83,.25,1.67,.47,2.52,.65,1.69,.38,3.42,.62,5.17,.74,3.49,.22,7.02-.06,10.39-.88,.85-.21,1.68-.44,2.51-.71,.41-.14,.82-.27,1.23-.42l.74-.27,.83-.29c2.23-.76,4.52-1.34,6.82-1.75,4.63-.81,9.33-.92,13.99-.34,2.32,.29,4.64,.76,6.89,1.41,1.13,.32,2.25,.69,3.35,1.1,1.19,.45,2.3,.95,3.29,1.42,1.98,.95,3.69,1.85,5.21,2.45,1.52,.63,2.79,.9,3.72,.91,.93-.01,2.2-.28,3.73-.91,1.52-.6,3.23-1.49,5.21-2.45,.99-.47,2.11-.97,3.29-1.42,1.1-.41,2.22-.78,3.35-1.1,2.26-.65,4.56-1.12,6.89-1.41,4.65-.59,9.36-.48,13.98,.34,2.31,.41,4.6,.99,6.82,1.75l.84,.29,.74,.27c.41,.15,.82,.29,1.23,.42,.82,.27,1.66,.5,2.51,.71,3.37,.82,6.9,1.09,10.39,.88,1.74-.12,3.48-.35,5.17-.74,.85-.18,1.69-.41,2.52-.65,.42-.13,.83-.26,1.24-.4l1.35-.49c8.88-3.21,18.59-3.6,27.69-1.2,2.48,.65,3.76,3.07,2.95,5.1l-1.4,3.72c-.81,2.04-2.84,3.15-4.61,2.69"/><path d="M274.25,18.42H9.21C4.12,18.42,0,14.3,0,9.21S4.12,0,9.21,0H274.25c5.09,0,9.21,4.12,9.21,9.21s-4.12,9.21-9.21,9.21m9.21,255.83h0c0-5.08-4.12-9.21-9.21-9.21H9.21c-5.09,0-9.21,4.13-9.21,9.21s4.12,9.21,9.21,9.21H274.25c5.09,0,9.21-4.12,9.21-9.21M96.34,207.38h0c5.49-1.7,11.2-2.58,17.05-2.58,7.01,0,13.82,1.24,20.27,3.66,2.13,.8,4.03,1.74,5.7,2.55,.71,.35,1.63,.8,2.38,1.14,.75-.34,1.68-.79,2.38-1.14,1.68-.82,3.57-1.75,5.71-2.55,6.45-2.43,13.26-3.66,20.26-3.66,5.85,0,11.56,.88,17.05,2.58h0l32.74-50.99c1.51-2.35,.18-5.49-2.56-6.04l-5.07-1.01-.05-.02-3.54-.71v-.25c-.05-11.19-2.34-32.91-2.36-33.04-.55-3.96-2.26-7.61-4.97-10.56-2.95-3.23-6.98-5.18-11.34-5.48-7.03-.49-16.74-.99-26.99-1.32v-8.67c0-2.35-1.91-4.25-4.25-4.25h-12.19v-25.15c0-1.77-1.43-3.2-3.2-3.2h-3.24c-1.76,0-3.2,1.43-3.2,3.2v25.15h-12.19c-2.35,0-4.25,1.9-4.25,4.25v8.67c-10.25,.32-19.97,.82-26.99,1.32-4.35,.31-8.38,2.25-11.34,5.48-2.7,2.95-4.42,6.6-4.96,10.56-.02,.17-2.31,21.78-2.36,33.04v.25l-5.14,1.03h-.01l-3.51,.71c-2.74,.55-4.07,3.68-2.56,6.04l32.75,50.99Zm-6.52-90.39c.2-1.35,.8-2.6,1.73-3.62,.74-.81,1.74-1.29,2.83-1.37,11.64-.82,30.79-1.65,47.35-1.65s35.72,.83,47.36,1.65c1.08,.08,2.09,.56,2.83,1.37,.92,1.01,1.52,2.26,1.73,3.64,.27,2.44,1.67,16.53,2.11,26.53,.06,1.28-1.11,2.28-2.37,2.02l-50.02-10.01c-1.09-.21-2.19-.21-3.28,0l-50.02,10.01c-1.26,.25-2.43-.74-2.37-2.02,.46-10.56,1.99-25.38,2.12-26.55m145.82,112.21c-6.71-1.78-14.08-1.48-20.57,.89l-1.53,.55c-.55,.19-1.12,.38-1.68,.55-1.13,.34-2.26,.64-3.41,.89-2.29,.51-4.62,.83-6.96,.98-4.66,.3-9.38-.08-13.95-1.18-1.14-.28-2.28-.59-3.39-.95-.56-.19-1.12-.37-1.66-.58l-.7-.26-.61-.21c-1.64-.56-3.33-.99-5.05-1.29-3.42-.61-6.98-.69-10.44-.25-1.73,.21-3.44,.56-5.11,1.04-.84,.24-1.66,.51-2.47,.81-.72,.27-1.48,.61-2.33,1.01-1.71,.81-3.62,1.82-5.9,2.74-2.25,.91-4.99,1.75-8.16,1.77-3.17-.02-5.91-.86-8.16-1.77-2.28-.92-4.19-1.94-5.89-2.74-.85-.41-1.61-.74-2.33-1.01-.81-.31-1.64-.57-2.47-.81-1.67-.48-3.38-.83-5.11-1.04-3.46-.44-7.01-.35-10.44,.25-1.71,.3-3.4,.73-5.04,1.29l-.61,.21-.7,.26c-.55,.21-1.11,.39-1.66,.58-1.12,.36-2.25,.68-3.4,.95-4.57,1.1-9.28,1.48-13.94,1.18-2.34-.15-4.66-.47-6.96-.98-1.15-.25-2.29-.55-3.41-.89-.56-.17-1.12-.35-1.68-.55l-1.53-.55c-6.5-2.37-13.86-2.67-20.57-.89-1.76,.46-3.79-.65-4.61-2.69l-1.4-3.72c-.81-2.03,.48-4.45,2.95-5.1,9.09-2.4,18.81-2.01,27.68,1.2l1.36,.49c.41,.14,.82,.27,1.24,.4,.83,.25,1.67,.47,2.52,.65,1.69,.38,3.42,.62,5.17,.74,3.49,.22,7.02-.06,10.39-.88,.85-.21,1.68-.44,2.51-.71,.41-.14,.82-.27,1.23-.42l.74-.27,.83-.29c2.23-.76,4.52-1.34,6.82-1.75,4.63-.81,9.33-.92,13.99-.34,2.32,.29,4.64,.76,6.89,1.41,1.13,.32,2.25,.69,3.35,1.1,1.19,.45,2.3,.95,3.29,1.42,1.98,.95,3.69,1.85,5.21,2.45,1.52,.63,2.79,.9,3.72,.91,.93-.01,2.2-.28,3.73-.91,1.52-.6,3.23-1.49,5.21-2.45,.99-.47,2.11-.97,3.29-1.42,1.1-.41,2.22-.78,3.35-1.1,2.26-.65,4.56-1.12,6.89-1.41,4.65-.59,9.36-.48,13.98,.34,2.31,.41,4.6,.99,6.82,1.75l.84,.29,.74,.27c.41,.15,.82,.29,1.23,.42,.82,.27,1.66,.5,2.51,.71,3.37,.82,6.9,1.09,10.39,.88,1.74-.12,3.48-.35,5.17-.74,.85-.18,1.69-.41,2.52-.65,.42-.13,.83-.26,1.24-.4l1.35-.49c8.88-3.21,18.59-3.6,27.69-1.2,2.48,.65,3.76,3.07,2.95,5.1l-1.4,3.72c-.81,2.04-2.84,3.15-4.61,2.69"/></g></g></svg>