<svg width="283" height="284" viewBox="0 0 283 284" fill="none" xmlns="http://www.w3.org/2000/svg">
<path d="M83.9948 217.584C95.0884 217.584 104.031 208.57 104.031 197.515C104.031 186.403 95.0884 177.446 83.9948 177.446C72.9012 177.446 63.9585 186.46 63.9585 197.515C63.9019 208.57 72.9012 217.584 83.9948 217.584Z" fill="black"/>
<path d="M26.6591 235.839H249.097C251.304 235.839 253.059 234.081 253.059 231.87V227.902C253.059 225.747 251.304 223.933 249.097 223.933H26.6591V235.839Z" fill="black"/>
<path d="M9.16975 18.4249H273.775C278.869 18.4249 282.944 14.2864 282.944 9.18408C282.944 4.0818 278.812 0 273.775 0H9.16975C4.07575 0 0.000574651 4.13849 0.000574651 9.18408C-0.0560253 14.2864 4.07575 18.4249 9.16975 18.4249Z" fill="black"/>
<path d="M273.775 265.035H9.16987C4.07587 265.035 0.000694275 269.174 0.000694275 274.219C0.000694275 279.322 4.13247 283.46 9.16987 283.46H273.775C278.869 283.46 282.944 279.322 282.944 274.219C282.944 269.174 278.869 265.035 273.775 265.035Z" fill="black"/>
<path d="M246.154 112.25L247.003 116.729C247.342 118.486 248.984 119.62 250.739 119.28L253.682 118.713C255.436 118.373 256.568 116.729 256.229 114.971L255.38 110.493C254.361 104.88 249.493 100.798 243.777 100.798H237.042C236.589 99.7778 235.909 98.9274 235.23 98.077C234.777 97.4534 234.211 96.9999 233.589 96.4897C233.249 96.2062 232.966 95.9227 232.627 95.6392C232.117 95.2424 231.608 94.9023 230.985 94.6188C230.419 94.2787 229.797 94.0519 229.231 93.8251C228.778 93.6551 228.325 93.4282 227.872 93.3148C226.74 92.9747 225.495 92.8046 224.25 92.8046H177.272C175.234 92.8046 173.197 92.2945 171.442 91.274L163.065 86.5118C144.048 75.627 122.54 69.9578 100.635 69.9578H26.6024V92.8614V93.5417V105.56C30.1682 105.56 32.6587 105.56 32.6587 105.56H42.8466C43.922 105.56 44.8278 106.467 44.8278 107.545V153.182C44.8278 154.259 43.922 155.166 42.8466 155.166C42.8466 155.166 35.6019 155.166 26.6591 155.166V206.189H51.6765C53.2613 206.189 54.5065 204.941 54.5065 203.354V197.912C54.5065 181.698 67.3544 168.205 83.542 167.922C100.013 167.695 113.484 181.017 113.484 197.458V203.354C113.484 204.941 114.729 206.189 116.314 206.189H235.683C245.871 206.189 253.625 197.005 251.984 186.913L239.249 110.266H243.833C244.965 110.322 245.928 111.173 246.154 112.25ZM110.371 153.238C110.371 154.315 109.465 155.223 108.389 155.223H77.769H59.5437C58.4683 155.223 57.5628 154.315 57.5628 153.238V107.601C57.5628 106.524 58.4683 105.617 59.5437 105.617H90.1645H108.389C109.465 105.617 110.371 106.524 110.371 107.601V153.238ZM152.821 191.505C152.821 192.583 151.915 193.49 150.839 193.49H125.087C124.011 193.49 123.106 192.583 123.106 191.505V107.601C123.106 106.524 124.011 105.617 125.087 105.617H150.839C151.915 105.617 152.821 106.524 152.821 107.601V191.505ZM195.271 191.505C195.271 192.583 194.365 193.49 193.289 193.49H167.537C166.461 193.49 165.556 192.583 165.556 191.505V107.601C165.556 106.524 166.461 105.617 167.537 105.617H193.289C194.365 105.617 195.271 106.524 195.271 107.601V191.505ZM232.287 174.554H209.987C208.911 174.554 208.006 173.647 208.006 172.57V107.601C208.006 106.524 208.911 105.617 209.987 105.617H223.797C224.759 105.617 225.608 106.297 225.722 107.261L236.136 169.962C236.645 172.4 234.777 174.554 232.287 174.554Z" fill="black"/>
</svg>
