<?xml version="1.0" encoding="UTF-8"?><svg id="Layer_2" xmlns="http://www.w3.org/2000/svg" viewBox="0 0 283.46 283.46"><g id="Layer_1-2"><g><path d="M244.14,161.22c0-14.53-8.15-23.03-18.42-28.7l-7.8-4.25c-4.6-2.48-8.5-6.38-8.5-11.34,0-5.67,4.61-9.56,11.34-9.56,4.61,0,8.86,1.77,12.05,3.19,4.96,2.48,8.15-.71,9.57-6.02,1.77-6.03-.71-8.15-4.96-10.27-4.25-2.13-10.27-3.55-16.29-3.55-16.66,0-30.48,10.98-30.48,28.7,0,13.82,7.08,21.62,18.43,27.99l8.15,4.61c4.96,2.84,8.15,6.74,8.15,12.05,0,6.73-6.38,9.92-12.76,9.92-4.96,0-10.98-2.13-14.18-3.55-5.31-2.48-8.15,.71-9.92,6.38-1.76,6.02,1.07,8.51,5.67,10.63,4.25,2.12,11.69,3.89,18.43,3.89,17.36,0,31.53-11.69,31.53-30.12m-62-3.55v-58.82c0-4.96-4.96-7.44-9.57-7.44-4.96,0-9.56,2.48-9.56,7.44v56.34c0,11.34-3.55,18.78-12.76,18.78s-13.11-7.09-13.11-18.78v-56.34c0-4.96-5.31-7.44-9.92-7.44-5.31,0-9.92,2.48-9.92,7.44v58.46c0,23.39,11.69,34.02,32.95,34.02,19.13,0,31.89-10.98,31.89-33.66m-74.06,4.26c0-16.31-11.33-22.33-17.36-23.39v-.35c7.09-3.55,15.59-10.28,15.59-22.33,0-16.29-14.18-24.09-27.99-24.09h-26.58c-4.96,0-7.79,3.89-7.79,8.15v82.91c0,4.96,4.96,7.45,9.57,7.45h25.15c15.24,0,29.41-8.15,29.41-28.35m-21.61-41.46c0,9.21-7.79,12.4-15.94,12.4h-7.44v-24.81h7.44c8.5,0,15.94,2.84,15.94,12.41m2.84,39.33c0,9.57-5.32,14.18-16.65,14.18h-8.51v-27.64h8.51c7.09,0,16.65,2.48,16.65,13.46M274.25,18.43H9.21C4.13,18.43,0,14.3,0,9.22S4.13,0,9.21,0H274.25c5.09,0,9.21,4.13,9.21,9.22s-4.12,9.21-9.21,9.21m0,265.04H9.21c-5.08,0-9.21-4.12-9.21-9.21s4.13-9.21,9.21-9.21H274.25c5.09,0,9.21,4.12,9.21,9.21s-4.12,9.21-9.21,9.21"/><path d="M244.14,161.22c0-14.53-8.15-23.03-18.42-28.7l-7.8-4.25c-4.6-2.48-8.5-6.38-8.5-11.34,0-5.67,4.61-9.56,11.34-9.56,4.61,0,8.86,1.77,12.05,3.19,4.96,2.48,8.15-.71,9.57-6.02,1.77-6.03-.71-8.15-4.96-10.27-4.25-2.13-10.27-3.55-16.29-3.55-16.66,0-30.48,10.98-30.48,28.7,0,13.82,7.08,21.62,18.43,27.99l8.15,4.61c4.96,2.84,8.15,6.74,8.15,12.05,0,6.73-6.38,9.92-12.76,9.92-4.96,0-10.98-2.13-14.18-3.55-5.31-2.48-8.15,.71-9.92,6.38-1.76,6.02,1.07,8.51,5.67,10.63,4.25,2.12,11.69,3.89,18.43,3.89,17.36,0,31.53-11.69,31.53-30.12m-62-3.55v-58.82c0-4.96-4.96-7.44-9.57-7.44-4.96,0-9.56,2.48-9.56,7.44v56.34c0,11.34-3.55,18.78-12.76,18.78s-13.11-7.09-13.11-18.78v-56.34c0-4.96-5.31-7.44-9.92-7.44-5.31,0-9.92,2.48-9.92,7.44v58.46c0,23.39,11.69,34.02,32.95,34.02,19.13,0,31.89-10.98,31.89-33.66m-74.06,4.26c0-16.31-11.33-22.33-17.36-23.39v-.35c7.09-3.55,15.59-10.28,15.59-22.33,0-16.29-14.18-24.09-27.99-24.09h-26.58c-4.96,0-7.79,3.89-7.79,8.15v82.91c0,4.96,4.96,7.45,9.57,7.45h25.15c15.24,0,29.41-8.15,29.41-28.35m-21.61-41.46c0,9.21-7.79,12.4-15.94,12.4h-7.44v-24.81h7.44c8.5,0,15.94,2.84,15.94,12.41m2.84,39.33c0,9.57-5.32,14.18-16.65,14.18h-8.51v-27.64h8.51c7.09,0,16.65,2.48,16.65,13.46M274.25,18.43H9.21C4.13,18.43,0,14.3,0,9.22S4.13,0,9.21,0H274.25c5.09,0,9.21,4.13,9.21,9.22s-4.12,9.21-9.21,9.21m0,265.04H9.21c-5.08,0-9.21-4.12-9.21-9.21s4.13-9.21,9.21-9.21H274.25c5.09,0,9.21,4.12,9.21,9.21s-4.12,9.21-9.21,9.21"/></g></g></svg>