<?xml version="1.0" encoding="UTF-8"?><svg id="Layer_2" xmlns="http://www.w3.org/2000/svg" viewBox="0 0 283.46 283.46"><g id="Layer_1-2"><g><path d="M274.25,18.43H9.21C4.12,18.43,0,14.31,0,9.21S4.12,0,9.21,0H274.25c5.09,0,9.21,4.12,9.21,9.21s-4.12,9.22-9.21,9.22m9.21,255.82h0c0-5.09-4.12-9.21-9.21-9.21H9.21c-5.09,0-9.21,4.12-9.21,9.21s4.12,9.21,9.21,9.21H274.25c5.09,0,9.21-4.12,9.21-9.21M230.98,62.08l-84.43,14.89v36.42h38.9c11.2,0,21.21,6.69,25.5,17.03,5.7,13.69,8.59,28.23,8.59,43.2s-2.89,29.51-8.6,43.2c-4.29,10.34-14.29,17.03-25.49,17.03H98.02c-11.2,0-21.21-6.69-25.51-17.03-5.7-13.69-8.59-28.23-8.59-43.2s2.89-29.51,8.59-43.21c4.29-10.34,14.31-17.03,25.51-17.03h38.89v-34.72l-81.07,14.29c-1.75,.31-3.42-.86-3.72-2.61l-.56-3.17c-.31-1.74,.85-3.41,2.6-3.71l66.63-11.75-.29-1.67c-.76-4.32,2.12-8.44,6.44-9.19l26.24-4.63c4.32-.76,8.44,2.12,9.19,6.44l.3,1.67,66.63-11.75c1.74-.31,3.4,.85,3.71,2.59l.56,3.18c.31,1.75-.86,3.41-2.6,3.71m-116.88,120.76v-54.72c0-1.09-.89-1.98-1.99-1.98h-14.09c-6.03,0-11.41,3.59-13.72,9.16-5.06,12.15-7.62,25.04-7.62,38.32,0,3.16,.15,6.31,.45,9.42,.09,1.02,.96,1.79,1.98,1.79h33.01c1.1,0,1.99-.89,1.99-1.99m57.26,1.99h33.01c1.02,0,1.88-.77,1.98-1.79,.29-3.11,.45-6.26,.45-9.42,0-13.28-2.56-26.17-7.62-38.32-2.31-5.57-7.69-9.16-13.72-9.16h-14.09c-1.09,0-1.98,.89-1.98,1.98v54.72c0,1.1,.89,1.99,1.98,1.99m-14.74,34.29v-90.99c0-1.09-.89-1.98-1.98-1.98h-25.8c-1.09,0-1.98,.89-1.98,1.98v90.99c0,1.09,.89,1.98,1.98,1.98h25.8c1.09,0,1.98-.89,1.98-1.98"/><path d="M274.25,18.43H9.21C4.12,18.43,0,14.31,0,9.21S4.12,0,9.21,0H274.25c5.09,0,9.21,4.12,9.21,9.21s-4.12,9.22-9.21,9.22m9.21,255.82h0c0-5.09-4.12-9.21-9.21-9.21H9.21c-5.09,0-9.21,4.12-9.21,9.21s4.12,9.21,9.21,9.21H274.25c5.09,0,9.21-4.12,9.21-9.21M230.98,62.08l-84.43,14.89v36.42h38.9c11.2,0,21.21,6.69,25.5,17.03,5.7,13.69,8.59,28.23,8.59,43.2s-2.89,29.51-8.6,43.2c-4.29,10.34-14.29,17.03-25.49,17.03H98.02c-11.2,0-21.21-6.69-25.51-17.03-5.7-13.69-8.59-28.23-8.59-43.2s2.89-29.51,8.59-43.21c4.29-10.34,14.31-17.03,25.51-17.03h38.89v-34.72l-81.07,14.29c-1.75,.31-3.42-.86-3.72-2.61l-.56-3.17c-.31-1.74,.85-3.41,2.6-3.71l66.63-11.75-.29-1.67c-.76-4.32,2.12-8.44,6.44-9.19l26.24-4.63c4.32-.76,8.44,2.12,9.19,6.44l.3,1.67,66.63-11.75c1.74-.31,3.4,.85,3.71,2.59l.56,3.18c.31,1.75-.86,3.41-2.6,3.71m-116.88,120.76v-54.72c0-1.09-.89-1.98-1.99-1.98h-14.09c-6.03,0-11.41,3.59-13.72,9.16-5.06,12.15-7.62,25.04-7.62,38.32,0,3.16,.15,6.31,.45,9.42,.09,1.02,.96,1.79,1.98,1.79h33.01c1.1,0,1.99-.89,1.99-1.99m57.26,1.99h33.01c1.02,0,1.88-.77,1.98-1.79,.29-3.11,.45-6.26,.45-9.42,0-13.28-2.56-26.17-7.62-38.32-2.31-5.57-7.69-9.16-13.72-9.16h-14.09c-1.09,0-1.98,.89-1.98,1.98v54.72c0,1.1,.89,1.99,1.98,1.99m-14.74,34.29v-90.99c0-1.09-.89-1.98-1.98-1.98h-25.8c-1.09,0-1.98,.89-1.98,1.98v90.99c0,1.09,.89,1.98,1.98,1.98h25.8c1.09,0,1.98-.89,1.98-1.98"/></g></g></svg>