<?xml version="1.0" encoding="UTF-8"?><svg id="Layer_2" xmlns="http://www.w3.org/2000/svg" viewBox="0 0 283.46 283.46"><g id="Layer_1-2"><g><path d="M141.73,0C63.45,0,0,63.46,0,141.73s63.45,141.73,141.73,141.73,141.73-63.46,141.73-141.73S220.01,0,141.73,0m0,265.04c-68.1,0-123.31-55.21-123.31-123.31S73.63,18.43,141.73,18.43s123.3,55.2,123.3,123.3-55.2,123.31-123.3,123.31m70.51-59.89c0,6.74-5.32,10.63-11.69,10.63-5.68,0-12.05-3.89-12.05-10.63V113.03h-.35l-35.08,71.57c-2.48,4.96-5.66,7.79-11.34,7.79s-8.86-2.84-11.34-7.79l-35.08-71.57h-.35v92.13c0,6.74-6.38,10.63-12.05,10.63-6.38,0-11.69-3.89-11.69-10.63V81.5c0-7.09,3.9-14.53,15.59-14.53,8.86,0,12.4,3.9,16.3,11.69l38.62,79.72h.35l38.27-79.72c3.89-7.79,7.44-11.69,16.29-11.69,11.69,0,15.59,7.44,15.59,14.53v123.66"/><path d="M141.73,0C63.45,0,0,63.46,0,141.73s63.45,141.73,141.73,141.73,141.73-63.46,141.73-141.73S220.01,0,141.73,0m0,265.04c-68.1,0-123.31-55.21-123.31-123.31S73.63,18.43,141.73,18.43s123.3,55.2,123.3,123.3-55.2,123.31-123.3,123.31m70.51-59.89c0,6.74-5.32,10.63-11.69,10.63-5.68,0-12.05-3.89-12.05-10.63V113.03h-.35l-35.08,71.57c-2.48,4.96-5.66,7.79-11.34,7.79s-8.86-2.84-11.34-7.79l-35.08-71.57h-.35v92.13c0,6.74-6.38,10.63-12.05,10.63-6.38,0-11.69-3.89-11.69-10.63V81.5c0-7.09,3.9-14.53,15.59-14.53,8.86,0,12.4,3.9,16.3,11.69l38.62,79.72h.35l38.27-79.72c3.89-7.79,7.44-11.69,16.29-11.69,11.69,0,15.59,7.44,15.59,14.53v123.66"/></g></g></svg>