<svg width="284" height="284" viewBox="0 0 284 284" fill="none" xmlns="http://www.w3.org/2000/svg">
<path d="M233.854 99.9197C233.323 99.9197 232.792 99.5653 232.614 99.0339L228.008 86.2782L215.784 92.1245C215.252 92.3017 214.721 92.3017 214.189 91.7702C213.835 91.4159 213.658 90.7072 213.835 90.1757L219.681 77.9515L206.926 73.3453C206.394 73.1681 206.04 72.6366 206.04 72.1052C206.04 71.5737 206.394 71.0422 206.926 70.865L219.681 66.2588L213.835 54.0346C213.658 53.5031 213.658 52.9716 214.189 52.4401C214.544 52.0858 215.252 51.9086 215.784 52.0858L228.008 57.9322L232.614 45.1765C232.792 44.645 233.323 44.2906 233.854 44.2906C234.386 44.2906 234.917 44.645 235.095 45.1765L239.701 57.9322L251.925 52.0858C252.457 51.9086 252.988 51.9086 253.52 52.4401C253.874 52.7944 254.051 53.5031 253.874 54.0346L248.027 66.2588L260.783 70.865C261.315 71.0422 261.669 71.5737 261.669 72.1052C261.669 72.6366 261.315 73.1681 260.783 73.3453L248.027 77.9515L253.874 90.1757C254.051 90.7072 254.051 91.2387 253.52 91.7702C253.165 92.1245 252.457 92.3017 251.925 92.1245L239.701 86.2782L235.095 99.0339C234.917 99.5653 234.386 99.9197 233.854 99.9197Z" fill="#000000"/>
</svg>
