<svg width="284" height="284" viewBox="0 0 284 284" fill="none" xmlns="http://www.w3.org/2000/svg">
<g clip-path="url(#clip0_29_2)">
<path d="M180.706 219.504L177.34 215.075C157.32 188.147 138.541 163.521 121.179 141.73C113.561 132.34 107.36 124.545 102.577 118.522C102.577 132.518 102.754 148.108 102.931 165.47C103.109 191.336 103.286 206.394 103.463 210.292L103.64 217.024H74.2311L74.5854 210.115C74.5854 208.52 74.7626 202.674 74.9397 192.576C75.1169 182.477 75.1169 168.127 75.1169 150.234C75.1169 143.147 75.1169 133.581 74.9397 121.356C74.9397 109.309 74.7626 96.5536 74.5854 83.2664V79.0145L98.5023 67.6761L101.868 71.928C103.109 73.5224 114.624 88.0498 132.518 110.727C146.868 129.329 161.218 147.222 174.682 164.052C174.682 155.194 174.505 144.21 174.328 130.923C174.151 106.829 173.974 88.5813 173.974 76.8885V70.1564H202.851V76.8885C202.674 87.164 202.674 99.211 202.497 112.675C202.32 126.14 202.32 135.884 202.32 141.73C202.32 160.509 202.32 175.745 202.497 186.729C202.674 198.776 202.674 203.914 202.674 204.623V208.697L180.706 219.504Z" fill="black"/>
<path d="M274.248 18.0706H9.21245C4.07474 18.0706 0 13.9959 0 8.85814C0 3.72043 4.07474 -0.354309 9.21245 -0.354309H274.248C279.385 -0.354309 283.46 3.72043 283.46 8.85814C283.46 13.9959 279.385 18.0706 274.248 18.0706Z" fill="black"/>
<path d="M274.248 283.106H9.21245C4.07474 283.106 0 279.031 0 273.893C0 268.756 4.07474 264.681 9.21245 264.681H274.248C279.385 264.681 283.46 268.756 283.46 273.893C283.46 279.031 279.385 283.106 274.248 283.106Z" fill="black"/>
</g>
<defs>
<clipPath id="clip0_29_2">
<rect width="283.46" height="283.46" fill="white"/>
</clipPath>
</defs>
</svg>
