<?xml version="1.0" encoding="UTF-8"?><svg id="Layer_2" xmlns="http://www.w3.org/2000/svg" viewBox="0 0 283.46 283.46"><g id="Layer_1-2"><g><g><path d="M171.5,181.43c0-4.26-2.84-8.86-7.79-8.86h-26.94v-24.45h22.32c4.96,0,7.8-4.26,7.8-8.15,0-4.25-2.84-8.15-7.8-8.15h-22.32v-22.32h24.81c4.96,0,7.79-4.96,7.79-8.85,0-4.26-2.83-8.86-7.79-8.86h-36.15c-4.96,0-7.79,3.89-7.79,8.15v82.92c0,4.96,4.96,7.44,9.56,7.44h36.5c4.96,0,7.79-4.96,7.79-8.85"/><path d="M226.42,147.06c9.22-4.62,17.02-12.76,17.02-27.29,0-19.13-14.19-27.99-27.99-27.99h-26.58c-4.96,0-7.79,3.89-7.79,8.15v83.27c0,4.96,4.96,7.43,9.55,7.43,5.32,0,9.57-2.48,9.57-7.43v-32.24h8.15l15.94,35.78c1.42,2.84,3.91,3.89,6.74,3.89,5.66,0,13.82-5.31,10.63-11.68l-15.24-31.89Zm-20.55-10.28h-5.67v-28.7h6.72c8.86,0,16.65,3.9,16.65,13.82,0,12.05-10.97,14.88-17.71,14.88Z"/><path d="M89.29,147.06c9.22-4.62,17.01-12.76,17.01-27.29,0-19.13-14.17-27.99-27.99-27.99h-26.57c-4.96,0-7.8,3.89-7.8,8.15v83.27c0,4.96,4.96,7.43,9.56,7.43,5.31,0,9.56-2.48,9.56-7.43v-32.24h8.15l15.95,35.78c1.42,2.84,3.91,3.89,6.74,3.89,5.67,0,13.81-5.31,10.63-11.68l-15.24-31.89Zm-20.55-10.28h-5.68v-28.7h6.74c8.85,0,16.65,3.9,16.65,13.82,0,12.05-10.98,14.88-17.72,14.88Z"/><path d="M219.69,0H63.78C28.55,0,0,28.56,0,63.78V219.68c0,35.22,28.55,63.78,63.78,63.78H219.69c35.22,0,63.78-28.56,63.78-63.78V63.78c0-35.22-28.55-63.78-63.78-63.78Zm45.35,219.68c0,25.05-20.31,45.35-45.35,45.35H63.78c-25.05,0-45.35-20.31-45.35-45.35V63.78c0-25.05,20.31-45.36,45.35-45.36H219.69c25.05,0,45.35,20.31,45.35,45.36V219.68Z"/></g><g><path d="M171.5,181.43c0-4.26-2.84-8.86-7.79-8.86h-26.94v-24.45h22.32c4.96,0,7.8-4.26,7.8-8.15,0-4.25-2.84-8.15-7.8-8.15h-22.32v-22.32h24.81c4.96,0,7.79-4.96,7.79-8.85,0-4.26-2.83-8.86-7.79-8.86h-36.15c-4.96,0-7.79,3.89-7.79,8.15v82.92c0,4.96,4.96,7.44,9.56,7.44h36.5c4.96,0,7.79-4.96,7.79-8.85"/><path d="M226.42,147.06c9.22-4.62,17.02-12.76,17.02-27.29,0-19.13-14.19-27.99-27.99-27.99h-26.58c-4.96,0-7.79,3.89-7.79,8.15v83.27c0,4.96,4.96,7.43,9.55,7.43,5.32,0,9.57-2.48,9.57-7.43v-32.24h8.15l15.94,35.78c1.42,2.84,3.91,3.89,6.74,3.89,5.66,0,13.82-5.31,10.63-11.68l-15.24-31.89Zm-20.55-10.28h-5.67v-28.7h6.72c8.86,0,16.65,3.9,16.65,13.82,0,12.05-10.97,14.88-17.71,14.88Z"/><path d="M89.29,147.06c9.22-4.62,17.01-12.76,17.01-27.29,0-19.13-14.17-27.99-27.99-27.99h-26.57c-4.96,0-7.8,3.89-7.8,8.15v83.27c0,4.96,4.96,7.43,9.56,7.43,5.31,0,9.56-2.48,9.56-7.43v-32.24h8.15l15.95,35.78c1.42,2.84,3.91,3.89,6.74,3.89,5.67,0,13.81-5.31,10.63-11.68l-15.24-31.89Zm-20.55-10.28h-5.68v-28.7h6.74c8.85,0,16.65,3.9,16.65,13.82,0,12.05-10.98,14.88-17.72,14.88Z"/><path d="M219.69,0H63.78C28.55,0,0,28.56,0,63.78V219.68c0,35.22,28.55,63.78,63.78,63.78H219.69c35.22,0,63.78-28.56,63.78-63.78V63.78c0-35.22-28.55-63.78-63.78-63.78Zm45.35,219.68c0,25.05-20.31,45.35-45.35,45.35H63.78c-25.05,0-45.35-20.31-45.35-45.35V63.78c0-25.05,20.31-45.36,45.35-45.36H219.69c25.05,0,45.35,20.31,45.35,45.36V219.68Z"/></g></g></g></svg>