<?xml version="1.0" encoding="UTF-8"?><svg id="Calque_1" xmlns="http://www.w3.org/2000/svg" viewBox="0 0 283.46 283.46"><g id="b"><g id="c"><path d="M219.68,283.46H63.78c-35.22,0-63.78-28.55-63.78-63.78V63.78C0,28.55,28.56,0,63.78,0h155.9c35.23,0,63.78,28.55,63.78,63.78v155.9c0,35.23-28.56,63.78-63.78,63.78M265.04,219.68V63.78c0-25.05-20.31-45.36-45.36-45.36H63.78c-25.05,0-45.36,20.31-45.36,45.36v155.9c0,25.05,20.31,45.36,45.36,45.36h155.9c25.05,0,45.36-20.31,45.36-45.36" style="fill:#000; stroke-width:0px;"/><path d="M98.46,91.6h-55.28c-4.96,0-7.79,4.6-7.79,8.86,0,3.86,2.78,8.75,7.65,8.85h18.22v73.71c0,4.96,4.96,7.43,9.57,7.43,5.31,0,9.57-2.48,9.57-7.43v-73.71h18.22c4.87-.1,7.65-4.99,7.65-8.85,0-4.26-2.83-8.86-7.79-8.86" style="fill:#000; stroke-width:0px;"/><path d="M168.5,181.42c0-4.26-2.84-8.86-7.8-8.86h-26.94v-24.45h22.32c4.96,0,7.8-4.26,7.8-8.15,0-4.25-2.84-8.15-7.8-8.15h-22.32v-22.33h24.82c4.96,0,7.79-4.96,7.79-8.85,0-4.26-2.82-8.87-7.79-8.87h-36.15c-4.96,0-7.79,3.9-7.79,8.16v82.91c0,4.96,4.96,7.43,9.57,7.43h36.5c4.96,0,7.8-4.96,7.8-8.86" style="fill:#000; stroke-width:0px;"/><path d="M223.41,147.05c9.22-4.62,17.02-12.76,17.02-27.29,0-19.13-14.19-27.99-27.99-27.99h-26.58c-4.96,0-7.79,3.89-7.79,8.16v83.27c0,4.96,4.96,7.43,9.55,7.43,5.33,0,9.58-2.48,9.58-7.43v-32.24h8.15l15.93,35.78c1.42,2.84,3.91,3.89,6.74,3.89,5.66,0,13.82-5.31,10.63-11.69l-15.24-31.89ZM202.86,136.77h-5.67v-28.7h6.72c8.86,0,16.65,3.9,16.65,13.82,0,12.05-10.97,14.88-17.7,14.88" style="fill:#000; stroke-width:0px;"/></g></g></svg>