<?xml version="1.0" encoding="UTF-8"?><svg id="Layer_2" xmlns="http://www.w3.org/2000/svg" viewBox="0 0 283.46 283.46"><g id="Layer_1-2"><g><path d="M219.68,283.46H63.78c-35.22,0-63.78-28.55-63.78-63.78V63.78C0,28.55,28.56,0,63.78,0H219.68c35.22,0,63.78,28.55,63.78,63.78V219.69c0,35.22-28.56,63.78-63.78,63.78m45.36-63.78V63.78c0-25.05-20.31-45.35-45.36-45.35H63.78c-25.05,0-45.35,20.31-45.35,45.35V219.69c0,25.05,20.31,45.35,45.35,45.35H219.68c25.05,0,45.36-20.31,45.36-45.35m-81.17-15.09c.62-.42,1.22-.86,1.66-1.29,5.09-4.12,9.86-10.45,13.31-20.24,4.83-13.74,8.24-26.02,9.18-41.12,1.31-18.6-6.35-47.54-11.43-61.04l-1.77-4.75c-1.09-3.04-5.26-9.47-12.65-17.18-6.35-6.62-12.47-7.11-21.77-7.11h-37.76c-9.3,0-15.4,.49-21.78,7.11-7.39,7.69-11.56,14.15-12.65,17.18l-1.78,4.78c-5.08,13.48-12.73,42.42-11.44,61.04,.94,15.06,4.36,27.32,9.21,41.1,3.45,9.82,8.19,16.12,13.29,20.24,.48,.42,1.06,.85,1.69,1.27l-27.51,30.58c-2.24,2.5-2.24,6.53,0,9.01,2.24,2.47,5.85,2.47,8.07,0l9.5-10.54h104.53l9.48,10.54c2.22,2.47,5.85,2.47,8.07,0,2.24-2.48,2.24-6.51,0-9.01l-27.48-30.56Zm-9.24-11.15c-5.21,0-9.45-4.22-9.45-9.45s4.24-9.42,9.45-9.42,9.46,4.22,9.46,9.42-4.22,9.45-9.46,9.45m-85.47-60.55c-5.77,0,3.29-50.66,7.43-50.66h88.85c4.49,0,15.02,50.66,7.96,50.66H89.16Zm9.62,51.1c0-5.2,4.23-9.42,9.45-9.42s9.44,4.22,9.44,9.42-4.21,9.45-9.44,9.45-9.45-4.22-9.45-9.45m1.92,36.9l10.13-11.25c4.94,1.14,9.48,1.14,12.79,1.14h35.82c3.31,0,7.86,0,12.79-1.14l10.14,11.25H100.7Z"/><path d="M219.68,283.46H63.78c-35.22,0-63.78-28.55-63.78-63.78V63.78C0,28.55,28.56,0,63.78,0H219.68c35.22,0,63.78,28.55,63.78,63.78V219.69c0,35.22-28.56,63.78-63.78,63.78m45.36-63.78V63.78c0-25.05-20.31-45.35-45.36-45.35H63.78c-25.05,0-45.35,20.31-45.35,45.35V219.69c0,25.05,20.31,45.35,45.35,45.35H219.68c25.05,0,45.36-20.31,45.36-45.35m-81.17-15.09c.62-.42,1.22-.86,1.66-1.29,5.09-4.12,9.86-10.45,13.31-20.24,4.83-13.74,8.24-26.02,9.18-41.12,1.31-18.6-6.35-47.54-11.43-61.04l-1.77-4.75c-1.09-3.04-5.26-9.47-12.65-17.18-6.35-6.62-12.47-7.11-21.77-7.11h-37.76c-9.3,0-15.4,.49-21.78,7.11-7.39,7.69-11.56,14.15-12.65,17.18l-1.78,4.78c-5.08,13.48-12.73,42.42-11.44,61.04,.94,15.06,4.36,27.32,9.21,41.1,3.45,9.82,8.19,16.12,13.29,20.24,.48,.42,1.06,.85,1.69,1.27l-27.51,30.58c-2.24,2.5-2.24,6.53,0,9.01,2.24,2.47,5.85,2.47,8.07,0l9.5-10.54h104.53l9.48,10.54c2.22,2.47,5.85,2.47,8.07,0,2.24-2.48,2.24-6.51,0-9.01l-27.48-30.56Zm-9.24-11.15c-5.21,0-9.45-4.22-9.45-9.45s4.24-9.42,9.45-9.42,9.46,4.22,9.46,9.42-4.22,9.45-9.46,9.45m-85.47-60.55c-5.77,0,3.29-50.66,7.43-50.66h88.85c4.49,0,15.02,50.66,7.96,50.66H89.16Zm9.62,51.1c0-5.2,4.23-9.42,9.45-9.42s9.44,4.22,9.44,9.42-4.21,9.45-9.44,9.45-9.45-4.22-9.45-9.45m1.92,36.9l10.13-11.25c4.94,1.14,9.48,1.14,12.79,1.14h35.82c3.31,0,7.86,0,12.79-1.14l10.14,11.25H100.7Z"/></g></g></svg>