<?xml version="1.0" encoding="UTF-8"?><svg id="Layer_2" xmlns="http://www.w3.org/2000/svg" viewBox="0 0 283.47 283.46"><defs><style>.cls-1{fill-rule:evenodd;}</style></defs><g id="Layer_1-2"><g><g><path d="M102.68,121.55c.28-.19,.56-.41,.81-.63,2.47-2.01,4.79-5.08,6.48-9.86,2.35-6.68,4.02-12.65,4.46-20.01,.64-9.05-3.09-23.13-5.55-29.69l-.87-2.31c-.53-1.46-2.55-4.61-6.15-8.36-3.1-3.23-6.07-3.46-10.61-3.46h-18.39c-4.52,0-7.49,.24-10.59,3.46-3.61,3.74-5.64,6.89-6.16,8.36l-.86,2.32c-2.48,6.55-6.21,20.62-5.58,29.71,.46,7.33,2.12,13.29,4.48,20,1.68,4.78,3.99,7.85,6.48,9.85,.26,.22,.54,.44,.82,.62l-13.39,14.88c-.53,.61-.82,1.39-.82,2.19s.29,1.58,.82,2.19c.25,.28,.55,.51,.88,.66,.35,.16,.71,.24,1.08,.24s.75-.08,1.09-.24c.34-.15,.64-.38,.88-.66l4.63-5.14h50.9l4.61,5.14c.25,.28,.55,.51,.89,.66,.35,.16,.7,.24,1.08,.24s.74-.08,1.08-.24c.34-.15,.64-.38,.88-.66,.52-.61,.81-1.38,.81-2.19s-.29-1.58-.81-2.19l-13.38-14.88Zm-4.5-5.42c-.91-.01-1.79-.28-2.55-.78-.75-.51-1.34-1.23-1.69-2.06-.35-.84-.45-1.76-.26-2.65,.17-.89,.61-1.71,1.25-2.35s1.46-1.08,2.35-1.26c.89-.17,1.82-.08,2.65,.27,.84,.34,1.55,.94,2.05,1.69,.51,.75,.79,1.64,.79,2.55,0,1.22-.49,2.39-1.36,3.25-.86,.87-2.02,1.35-3.25,1.36m-41.62-29.47c-2.81,0,1.62-24.67,3.62-24.67h43.26c2.19,0,7.31,24.67,3.91,24.67H56.56Zm4.69,24.87c0-.91,.26-1.79,.77-2.56,.51-.75,1.23-1.35,2.07-1.69,.84-.35,1.76-.44,2.66-.26,.89,.18,1.71,.62,2.35,1.26,.64,.64,1.08,1.46,1.26,2.35,.18,.9,.09,1.82-.26,2.66-.35,.84-.94,1.55-1.7,2.06-.75,.5-1.64,.78-2.55,.78-.61,0-1.21-.12-1.76-.35-.56-.24-1.08-.57-1.49-.99-.44-.43-.77-.94-.99-1.49-.24-.56-.35-1.16-.35-1.76m.93,17.96l4.92-5.47c2.05,.42,4.15,.6,6.24,.55h17.44c2.08,.05,4.18-.13,6.22-.55l4.94,5.47H62.18Z"/><path class="cls-1" d="M215.94,67.53c1.84,1.84,1.84,4.83,0,6.68L74.2,215.93c-1.84,1.86-4.84,1.86-6.68,0-1.84-1.84-1.84-4.82,0-6.68L209.26,67.53c1.84-1.85,4.84-1.85,6.68,0"/><path d="M219.69,283.46H63.78c-35.22,0-63.78-28.55-63.78-63.78V63.77C0,28.55,28.56,0,63.78,0H219.69c35.22,0,63.78,28.55,63.78,63.77V219.69c0,35.22-28.56,63.78-63.78,63.78m45.35-63.78V63.77c0-25.04-20.3-45.35-45.35-45.35H63.78c-25.05,0-45.35,20.31-45.35,45.35V219.69c0,25.05,20.3,45.35,45.35,45.35H219.69c25.05,0,45.35-20.3,45.35-45.35"/><path d="M171.2,186.19c0-9.31-6.88-13.62-13.62-13.62h-12.92c-2.42,0-3.79,1.89-3.79,3.97v40.53c0,2.41,2.4,3.61,4.64,3.61,2.6,0,4.66-1.2,4.66-3.61v-15.7h3.96l7.77,17.41c.69,1.39,1.91,1.89,3.26,1.89,2.77,0,6.73-2.59,5.18-5.68l-7.42-15.52c4.49-2.25,8.27-6.2,8.27-13.28m-18.27,8.28h-2.76v-13.96h3.28c4.32,0,8.11,1.89,8.11,6.73,0,5.85-5.34,7.24-8.62,7.24"/><path d="M199.15,211.88h-13.11v-11.89h10.86c2.41,0,3.8-2.08,3.8-3.97,0-2.06-1.39-3.96-3.8-3.96h-10.86v-10.86h12.08c2.42,0,3.79-2.42,3.79-4.32,0-2.08-1.37-4.31-3.79-4.31h-17.58c-2.42,0-3.79,1.89-3.79,3.96v40.35c0,2.42,2.41,3.63,4.65,3.63h17.76c2.41,0,3.8-2.43,3.8-4.32,0-2.08-1.39-4.31-3.8-4.31"/><path d="M237.95,186.19c0-9.31-6.91-13.62-13.62-13.62h-12.94c-2.41,0-3.79,1.89-3.79,3.97v40.53c0,2.41,2.39,3.61,4.64,3.61,2.59,0,4.66-1.2,4.66-3.61v-15.7h3.96l7.76,17.41c.69,1.39,1.89,1.89,3.27,1.89,2.76,0,6.74-2.59,5.18-5.68l-7.42-15.52c4.49-2.25,8.29-6.2,8.29-13.28m-18.29,8.28h-2.75v-13.96h3.27c4.31,0,8.11,1.89,8.11,6.73,0,5.85-5.34,7.24-8.62,7.24"/></g><g><path d="M102.68,121.55c.28-.19,.56-.41,.81-.63,2.47-2.01,4.79-5.08,6.48-9.86,2.35-6.68,4.02-12.65,4.46-20.01,.64-9.05-3.09-23.13-5.55-29.69l-.87-2.31c-.53-1.46-2.55-4.61-6.15-8.36-3.1-3.23-6.07-3.46-10.61-3.46h-18.39c-4.52,0-7.49,.24-10.59,3.46-3.61,3.74-5.64,6.89-6.16,8.36l-.86,2.32c-2.48,6.55-6.21,20.62-5.58,29.71,.46,7.33,2.12,13.29,4.48,20,1.68,4.78,3.99,7.85,6.48,9.85,.26,.22,.54,.44,.82,.62l-13.39,14.88c-.53,.61-.82,1.39-.82,2.19s.29,1.58,.82,2.19c.25,.28,.55,.51,.88,.66,.35,.16,.71,.24,1.08,.24s.75-.08,1.09-.24c.34-.15,.64-.38,.88-.66l4.63-5.14h50.9l4.61,5.14c.25,.28,.55,.51,.89,.66,.35,.16,.7,.24,1.08,.24s.74-.08,1.08-.24c.34-.15,.64-.38,.88-.66,.52-.61,.81-1.38,.81-2.19s-.29-1.58-.81-2.19l-13.38-14.88Zm-4.5-5.42c-.91-.01-1.79-.28-2.55-.78-.75-.51-1.34-1.23-1.69-2.06-.35-.84-.45-1.76-.26-2.65,.17-.89,.61-1.71,1.25-2.35s1.46-1.08,2.35-1.26c.89-.17,1.82-.08,2.65,.27,.84,.34,1.55,.94,2.05,1.69,.51,.75,.79,1.64,.79,2.55,0,1.22-.49,2.39-1.36,3.25-.86,.87-2.02,1.35-3.25,1.36m-41.62-29.47c-2.81,0,1.62-24.67,3.62-24.67h43.26c2.19,0,7.31,24.67,3.91,24.67H56.56Zm4.69,24.87c0-.91,.26-1.79,.77-2.56,.51-.75,1.23-1.35,2.07-1.69,.84-.35,1.76-.44,2.66-.26,.89,.18,1.71,.62,2.35,1.26,.64,.64,1.08,1.46,1.26,2.35,.18,.9,.09,1.82-.26,2.66-.35,.84-.94,1.55-1.7,2.06-.75,.5-1.64,.78-2.55,.78-.61,0-1.21-.12-1.76-.35-.56-.24-1.08-.57-1.49-.99-.44-.43-.77-.94-.99-1.49-.24-.56-.35-1.16-.35-1.76m.93,17.96l4.92-5.47c2.05,.42,4.15,.6,6.24,.55h17.44c2.08,.05,4.18-.13,6.22-.55l4.94,5.47H62.18Z"/><path class="cls-1" d="M215.94,67.53c1.84,1.84,1.84,4.83,0,6.68L74.2,215.93c-1.84,1.86-4.84,1.86-6.68,0-1.84-1.84-1.84-4.82,0-6.68L209.26,67.53c1.84-1.85,4.84-1.85,6.68,0"/><path d="M219.69,283.46H63.78c-35.22,0-63.78-28.55-63.78-63.78V63.77C0,28.55,28.56,0,63.78,0H219.69c35.22,0,63.78,28.55,63.78,63.77V219.69c0,35.22-28.56,63.78-63.78,63.78m45.35-63.78V63.77c0-25.04-20.3-45.35-45.35-45.35H63.78c-25.05,0-45.35,20.31-45.35,45.35V219.69c0,25.05,20.3,45.35,45.35,45.35H219.69c25.05,0,45.35-20.3,45.35-45.35"/><path d="M171.2,186.19c0-9.31-6.88-13.62-13.62-13.62h-12.92c-2.42,0-3.79,1.89-3.79,3.97v40.53c0,2.41,2.4,3.61,4.64,3.61,2.6,0,4.66-1.2,4.66-3.61v-15.7h3.96l7.77,17.41c.69,1.39,1.91,1.89,3.26,1.89,2.77,0,6.73-2.59,5.18-5.68l-7.42-15.52c4.49-2.25,8.27-6.2,8.27-13.28m-18.27,8.28h-2.76v-13.96h3.28c4.32,0,8.11,1.89,8.11,6.73,0,5.85-5.34,7.24-8.62,7.24"/><path d="M199.15,211.88h-13.11v-11.89h10.86c2.41,0,3.8-2.08,3.8-3.97,0-2.06-1.39-3.96-3.8-3.96h-10.86v-10.86h12.08c2.42,0,3.79-2.42,3.79-4.32,0-2.08-1.37-4.31-3.79-4.31h-17.58c-2.42,0-3.79,1.89-3.79,3.96v40.35c0,2.42,2.41,3.63,4.65,3.63h17.76c2.41,0,3.8-2.43,3.8-4.32,0-2.08-1.39-4.31-3.8-4.31"/><path d="M237.95,186.19c0-9.31-6.91-13.62-13.62-13.62h-12.94c-2.41,0-3.79,1.89-3.79,3.97v40.53c0,2.41,2.39,3.61,4.64,3.61,2.59,0,4.66-1.2,4.66-3.61v-15.7h3.96l7.76,17.41c.69,1.39,1.89,1.89,3.27,1.89,2.76,0,6.74-2.59,5.18-5.68l-7.42-15.52c4.49-2.25,8.29-6.2,8.29-13.28m-18.29,8.28h-2.75v-13.96h3.27c4.31,0,8.11,1.89,8.11,6.73,0,5.85-5.34,7.24-8.62,7.24"/></g></g></g></svg>