<?xml version="1.0" encoding="UTF-8"?><svg id="Layer_2" xmlns="http://www.w3.org/2000/svg" viewBox="0 0 283.46 283.46"><g id="Layer_1-2"><g><path d="M274.25,18.42H9.21C4.12,18.42,0,14.3,0,9.21S4.12,0,9.21,0H274.25c5.09,0,9.21,4.12,9.21,9.21s-4.12,9.21-9.21,9.21m9.21,255.83h0c0-5.09-4.12-9.22-9.21-9.22H9.21c-5.09,0-9.21,4.13-9.21,9.22s4.12,9.21,9.21,9.21H274.25c5.09,0,9.21-4.12,9.21-9.21m-32.32-38.41c2.19,0,3.97-1.78,3.97-3.97v-3.97c0-2.19-1.78-3.96-3.97-3.96H28.35v11.91H251.14M28.35,170.78h41.25c1.09,0,1.98-.89,1.98-1.98v-54.85c0-1.09-.89-1.98-1.98-1.98H28.35v-12.76H92.72l25.23-20.74-31.74-26.08c-1.37-1.12-1.57-3.15-.44-4.52l2.04-2.49c1.13-1.37,3.15-1.56,4.52-.44l36.14,29.69c2.41,1.98,2.42,5.68,0,7.66l-20.58,16.91h98.03c7.78,0,15.18,3.29,20.43,9.03,15.45,16.89,25.27,37.77,28.41,60.39,1,7.19-.09,14.31-3.16,20.56-7.09,14.44-21.47,23.41-37.55,23.41H28.35v-41.81Zm188.48-54.06c-2.8-3.05-6.77-4.75-10.91-4.75h-34.57c-1.09,0-1.98,.89-1.98,1.98v54.85c0,1.09,.89,1.98,1.98,1.98h59.11c6.94,0,11.07-5.46,9.31-12.17-4.1-15.56-11.91-29.87-22.94-41.89m-62.2,83.12c1.09,0,1.98-.89,1.98-1.98V113.95c0-1.09-.89-1.98-1.98-1.98h-25.79c-1.1,0-1.99,.89-1.99,1.98v83.91c0,1.09,.89,1.98,1.99,1.98h25.79M86.32,111.97c-1.09,0-1.98,.89-1.98,1.98v83.91c0,1.09,.89,1.98,1.98,1.98h25.79c1.1,0,1.99-.89,1.99-1.98V113.95c0-1.09-.89-1.98-1.99-1.98h-25.79"/><path d="M274.25,18.42H9.21C4.12,18.42,0,14.3,0,9.21S4.12,0,9.21,0H274.25c5.09,0,9.21,4.12,9.21,9.21s-4.12,9.21-9.21,9.21m9.21,255.83h0c0-5.09-4.12-9.22-9.21-9.22H9.21c-5.09,0-9.21,4.13-9.21,9.22s4.12,9.21,9.21,9.21H274.25c5.09,0,9.21-4.12,9.21-9.21m-32.32-38.41c2.19,0,3.97-1.78,3.97-3.97v-3.97c0-2.19-1.78-3.96-3.97-3.96H28.35v11.91H251.14M28.35,170.78h41.25c1.09,0,1.98-.89,1.98-1.98v-54.85c0-1.09-.89-1.98-1.98-1.98H28.35v-12.76H92.72l25.23-20.74-31.74-26.08c-1.37-1.12-1.57-3.15-.44-4.52l2.04-2.49c1.13-1.37,3.15-1.56,4.52-.44l36.14,29.69c2.41,1.98,2.42,5.68,0,7.66l-20.58,16.91h98.03c7.78,0,15.18,3.29,20.43,9.03,15.45,16.89,25.27,37.77,28.41,60.39,1,7.19-.09,14.31-3.16,20.56-7.09,14.44-21.47,23.41-37.55,23.41H28.35v-41.81Zm188.48-54.06c-2.8-3.05-6.77-4.75-10.91-4.75h-34.57c-1.09,0-1.98,.89-1.98,1.98v54.85c0,1.09,.89,1.98,1.98,1.98h59.11c6.94,0,11.07-5.46,9.31-12.17-4.1-15.56-11.91-29.87-22.94-41.89m-62.2,83.12c1.09,0,1.98-.89,1.98-1.98V113.95c0-1.09-.89-1.98-1.98-1.98h-25.79c-1.1,0-1.99,.89-1.99,1.98v83.91c0,1.09,.89,1.98,1.99,1.98h25.79M86.32,111.97c-1.09,0-1.98,.89-1.98,1.98v83.91c0,1.09,.89,1.98,1.98,1.98h25.79c1.1,0,1.99-.89,1.99-1.98V113.95c0-1.09-.89-1.98-1.99-1.98h-25.79"/></g></g></svg>