<svg id="Layer_1" data-name="Layer 1" xmlns="http://www.w3.org/2000/svg" viewBox="0 0 283.46 283.46"><path d="M274.25,18.42H9.5A9.39,9.39,0,0,1,.1,10.58,9.22,9.22,0,0,1,9.21,0H274a9.41,9.41,0,0,1,9.4,7.85,9.22,9.22,0,0,1-9.12,10.57m9.21,255.83h0a9.21,9.21,0,0,0-9.21-9.21H9.5a9.39,9.39,0,0,0-9.4,7.84,9.22,9.22,0,0,0,9.11,10.58h265a9.21,9.21,0,0,0,9.21-9.21" transform="translate(0)"/><path d="M124.42,141.74l2-7.49,4.83-18.14.94,1.34c.18.26.38.51.58.75a10.16,10.16,0,0,0,2.93,2.37,11.7,11.7,0,0,0,1.74.75l10.08,3.78a31.12,31.12,0,0,0,15.36-7.29l-21-7.89S134.51,97.78,131,94.49a7.82,7.82,0,0,0-4.33-2.16,10.55,10.55,0,0,0-2.39-.26h0a15.42,15.42,0,0,0-2.25.31l-.24.05a1.14,1.14,0,0,0-.25.06h0a18.27,18.27,0,0,0-12.67,12.81l-8,30.25a10.19,10.19,0,0,0,0,4.08,10.77,10.77,0,0,0,2.82,5.2l2.53,2.87,4.14,4.71,20.19,21.16-5.59,39.71a6.87,6.87,0,0,0,10.06,6.32,6.7,6.7,0,0,0,2.23-4.36l7-39.54a10.72,10.72,0,0,0,.17-2.71,10.17,10.17,0,0,0-1.76-5.07Z" transform="translate(0)"/><path d="M128.78,87c3.19.68,6.75.88,9.46-.83s3.93-5.12,4.61-8.31.88-6.75-.83-9.47-5.12-3.93-8.31-4.6-6.75-.88-9.47.82-3.92,5.12-4.6,8.32-.88,6.75.82,9.47S125.58,86.32,128.78,87Z" transform="translate(0)"/><path d="M241.83,197.62a37.21,37.21,0,0,0-31.63-35.34,36.43,36.43,0,0,0-18,1.87l-19.67-34.07a46.36,46.36,0,0,0,12.6-16.8,2.87,2.87,0,0,0-1.66-3.83l-4-1.46a2.82,2.82,0,0,0-3.54,1.53,36.76,36.76,0,0,1-34.05,21.71,2.86,2.86,0,0,0-2.95,2.57l-.37,4.25a2.86,2.86,0,0,0,2.76,3.12,46.69,46.69,0,0,0,20.41-4.23l5.41,9.37-16.63,26.55L144.94,204A7.81,7.81,0,0,0,148,201l26.35-42.09,6.75,11.68a37,37,0,1,0,60.73,27.08Zm-40,28.1a27,27,0,0,1-15.58-46.33l13.36,23.25a4.27,4.27,0,0,0,5.83,1.56l3.7-2.13a4.27,4.27,0,0,0,1.56-5.83L197.32,173a27,27,0,1,1,4.47,52.68Z" transform="translate(0)"/><path d="M116,192a36.89,36.89,0,0,0-9-18l7.09-9.36-9-9.4-8.22,10.91a37,37,0,0,0-25.29-3.38,37,37,0,1,0,44.57,42h4.18l1.8-12.8Zm-15.23-9.79A26.7,26.7,0,0,1,105.7,192H93.36Zm-21.1,43.71a27,27,0,0,1-7.42-53,26.54,26.54,0,0,1,18.47,1.36l-16.2,21.4a5.68,5.68,0,0,0,4.53,9.12h27A27,27,0,0,1,79.67,225.89Z" transform="translate(0)"/></svg>