<svg width="128" height="128" viewBox="0 0 128 128" fill="none" xmlns="http://www.w3.org/2000/svg">
<path d="M128 -0.000206869H0V127.997H128V-0.000206869Z" fill="#1F3C90"/>
<path d="M42.3767 59.8173L49.6958 62.3857L42.3767 52.8188V59.8173Z" fill="white"/>
<path d="M40.0068 52.0406L28.8506 48.0932V54.9676L40.0068 58.9185V52.0406Z" fill="white"/>
<path d="M32.2293 77.9009L30.8709 75.4221L3.48712 65.6759V67.6824L32.2293 77.9009Z" fill="white"/>
<path d="M29.1393 72.2573L27.7844 69.7716L3.48962 61.3665V63.3179L29.1393 72.2573Z" fill="white"/>
<path d="M26.0547 66.7627L24.8515 64.4804L3.48712 57.1579V59.1609L26.0547 66.7627Z" fill="white"/>
<path d="M42.3767 59.8173L49.6958 62.3857L42.3767 52.8188V59.8173Z" fill="white"/>
<path d="M40.0068 52.0406L28.8506 48.0932V54.9676L40.0068 58.9185V52.0406Z" fill="white"/>
<path d="M124.501 112.716L117.262 110.178L103.302 117.132L111.373 119.997L124.526 113.44L124.505 112.64L124.501 112.716Z" fill="white"/>
<path d="M3.49746 36.1427L45.9677 51.1533L56.2655 64.6435C56.2655 64.6435 77.7126 89.0314 85.8488 94.4579C85.8488 94.4579 94.2057 101.229 98.2634 99.8636C98.2634 99.8636 104.579 98.8121 107.213 95.0163C106.262 90.6414 102.587 77.227 91.5097 66.1777C91.5097 66.1777 83.5838 57.9725 82.3703 57.2417L69.3351 42.1552L3.49402 19.0016L3.48712 36.122L3.49746 36.1427Z" fill="white"/>
<path d="M3.49463 91.633L85.2013 120.42L93.7616 116.148L85.4392 113.001L89.8003 112.229L96.7437 114.669L110.675 107.73L108.796 107.043L110.282 104.989L113.657 106.237L119.584 103.282L124.507 105.554V3.48629H3.48773L3.50497 15.6526L71.287 39.5337L72.2592 40.6094L84.8324 55.3235C84.8324 55.3235 93.0996 62.9667 94.3063 64.3216C94.3063 64.3216 104.814 74.6987 109.779 93.2154L109.786 98.0488C109.786 98.0488 110.048 103.451 107.686 105.968C107.686 105.968 100.732 118.62 66.426 103.937L3.49807 81.611L3.49463 91.633Z" fill="white"/>
<path d="M101.362 81.8762L99.9765 84.8066L97.4115 82.0831L99.0525 78.9493L101.362 81.8762Z" fill="#1F3C90"/>
<path d="M91.6122 88.4959L89.2506 85.1139L79.4458 85.9309L82.1107 89.3164L91.6122 88.4959Z" fill="#1F3C90"/>
<path d="M62.2136 49.0573C62.2136 49.0573 57.7766 50.9328 48.8958 51.1637L57.5422 62.151C57.5422 62.151 62.6859 63.7817 70.8669 59.8136L62.2136 49.0573Z" fill="#1F3C90"/>
<path d="M67.9337 42.7007C67.9337 42.7007 68.6301 45.7345 63.9622 48.0754L72.6086 58.3594C72.6086 58.3594 77.7489 56.2598 75.8837 52.0504L67.9337 42.7007Z" fill="#1F3C90"/>
<path d="M124.515 119.065L118.151 122.247L124.505 124.488V119.11L124.515 119.065Z" fill="white"/>
<path d="M113.779 124.509L117.323 124.489L115.185 123.737L113.631 124.499L113.779 124.509Z" fill="white"/>
<path d="M96.5915 124.509L102.738 124.482L108.803 121.479L100.732 118.621L92.1752 122.889L96.7432 124.509H96.5915Z" fill="white"/>
<path d="M124.505 110.022L124.501 106.771L120.661 108.684L124.46 110.019L124.505 110.022Z" fill="white"/>
</svg>
