<svg width="50" height="50" viewBox="0 0 50 50" fill="none" xmlns="http://www.w3.org/2000/svg">
<circle cx="25" cy="25" r="23.25" fill="white" stroke="#031F73" stroke-width="3.5"/>
<path d="M19.1314 28.7615L17.5381 30.3639L16.8638 29.6857L17.7828 28.7615H19.1314Z" fill="#031F73"/>
<path d="M17.2474 31.033L14.9889 28.7615H13.2662L15.5247 31.033L13.1897 33.3815H14.9128L17.2479 31.033" fill="#031F73"/>
<path d="M19.2089 33.3815L17.5392 31.7023L16.8649 32.3805L17.8605 33.3817L19.2089 33.3815Z" fill="#031F73"/>
<path d="M9 28.7615H12.4855V29.6657H10.0097V30.6029H12.1875V31.5071H10.0097V32.4773H12.5172V33.3815H9V28.7615Z" fill="#031F73"/>
<path d="M19.8899 28.7615H21.7775C22.8799 28.7615 23.5465 29.4148 23.5465 30.3587V30.3719C23.5465 31.441 22.715 31.9955 21.6784 31.9955H20.9064V33.3813H19.8899V28.7615ZM21.7124 31.0913C22.2206 31.0913 22.5177 30.7879 22.5177 30.3917V30.3785C22.5177 29.9229 22.2008 29.6789 21.6928 29.6789H20.9075V31.092L21.7124 31.0913Z" fill="#031F73"/>
<path d="M24.2989 28.7615H26.4107C26.655 28.7462 26.8999 28.7797 27.1311 28.8602C27.3623 28.9407 27.5751 29.0664 27.7571 29.2301C27.8902 29.3708 27.9939 29.5367 28.0619 29.718C28.1299 29.8994 28.1609 30.0925 28.153 30.286V30.2992C28.1678 30.6135 28.0789 30.9238 27.9001 31.1826C27.7212 31.4414 27.4623 31.6342 27.1632 31.7315L28.2917 33.3815H27.1039L26.1139 31.9033H25.3152V33.3815H24.2989V28.7615ZM26.3446 31.0057C26.8397 31.0057 27.1235 30.7417 27.1235 30.3523V30.3391C27.1235 29.9033 26.8199 29.6785 26.3248 29.6785H25.3152V31.005L26.3446 31.0057Z" fill="#031F73"/>
<path d="M29.0709 28.7615H32.5564V29.6657H30.0798V30.6029H32.2579V31.5071H30.0798V32.4773H32.5878V33.3815H29.0709V28.7615Z" fill="#031F73"/>
<path d="M33.1763 32.7081L33.7768 31.9889C34.1536 32.3366 34.6437 32.5359 35.1562 32.5498C35.5722 32.5498 35.823 32.3848 35.823 32.1142V32.101C35.823 31.8435 35.6635 31.7116 34.8924 31.5137C33.9618 31.2761 33.3612 31.0186 33.3612 30.1012V30.088C33.3612 29.2499 34.0344 28.6954 34.9787 28.6954C35.6016 28.6853 36.2085 28.893 36.6946 29.2827L36.1667 30.0484C35.8216 29.7786 35.4028 29.6198 34.9655 29.5928C34.5762 29.5928 34.3716 29.7711 34.3716 29.9953V30.0094C34.3716 30.3129 34.5696 30.412 35.3683 30.6166C36.3055 30.8608 36.8335 31.1975 36.8335 32.0026V32.0158C36.8335 32.9332 36.1339 33.4478 35.1375 33.4478C34.4151 33.4507 33.7169 33.1873 33.1763 32.7081Z" fill="#031F73"/>
<path d="M37.3343 32.7081L37.9348 31.9889C38.3116 32.3366 38.8017 32.5359 39.3142 32.5498C39.73 32.5498 39.981 32.3848 39.981 32.1142V32.101C39.981 31.8435 39.8215 31.7116 39.0504 31.5137C38.1198 31.2761 37.5193 31.0186 37.5193 30.1012V30.088C37.5193 29.2499 38.1925 28.6954 39.1367 28.6954C39.7597 28.6853 40.3665 28.893 40.8526 29.2827L40.3248 30.0484C39.9796 29.7786 39.5608 29.6198 39.1235 29.5928C38.7342 29.5928 38.5296 29.7711 38.5296 29.9953V30.0094C38.5296 30.3129 38.7276 30.412 39.5263 30.6166C40.4635 30.8608 40.9916 31.1975 40.9916 32.0026V32.0158C40.9916 32.9332 40.292 33.4478 39.2955 33.4478C38.5731 33.4507 37.8749 33.1873 37.3343 32.7081Z" fill="#031F73"/>
<path d="M9.00134 21.3605V21.3316C8.9858 20.6292 9.11244 19.931 9.37363 19.2789C9.63483 18.6267 10.0252 18.0341 10.5212 17.5367C11.0173 17.0392 11.6088 16.6472 12.2603 16.3842C12.9117 16.1212 13.6096 15.9927 14.3119 16.0063C15.0584 15.9783 15.8025 16.1065 16.4966 16.3827C17.1907 16.6588 17.8196 17.0768 18.3429 17.6099L17.1805 18.9485C16.8084 18.555 16.362 18.2393 15.8671 18.0195C15.3722 17.7998 14.8386 17.6804 14.2972 17.6683C12.3406 17.6683 10.899 19.2867 10.899 21.3021V21.3316C10.899 23.347 12.3259 24.9801 14.2972 24.9801C14.8549 24.9765 15.4058 24.8569 15.9148 24.629C16.4239 24.4011 16.8799 24.0699 17.2541 23.6563L18.4165 24.8334C17.899 25.4284 17.2556 25.9007 16.5329 26.2162C15.8103 26.5317 15.0264 26.6824 14.2383 26.6574C13.5433 26.6653 12.8538 26.5332 12.211 26.269C11.5681 26.0049 10.985 25.614 10.4963 25.1198C10.0076 24.6255 9.62344 24.038 9.36661 23.3921C9.10977 22.7463 8.98555 22.0554 9.00134 21.3605Z" fill="#EB0028"/>
<path d="M20.3146 16.182H24.1546C27.3909 16.182 29.6272 18.4031 29.6272 21.3012V21.3306C29.6272 24.2292 27.3929 26.4797 24.1546 26.4797H20.3146V16.182ZM22.1239 17.8283V24.8309H24.1552C26.3179 24.8309 27.7301 23.3745 27.7301 21.3591V21.3321C27.7479 20.8613 27.667 20.3919 27.4927 19.9542C27.3183 19.5164 27.0543 19.12 26.7177 18.7903C26.381 18.4606 25.9791 18.205 25.5378 18.0398C25.0965 17.8747 24.6255 17.8037 24.1552 17.8314L22.1239 17.8283Z" fill="#EB0028"/>
<path d="M31.3634 21.3605V21.3316C31.3529 20.6306 31.4829 19.9346 31.7459 19.2847C32.0088 18.6348 32.3993 18.0441 32.8944 17.5477C33.3895 17.0513 33.979 16.6591 34.6282 16.3944C35.2773 16.1296 35.973 15.9976 36.674 16.0063C38.125 15.9373 39.5454 16.4389 40.6313 17.4037L39.4842 18.7723C38.7072 18.0367 37.67 17.6398 36.6004 17.6688C34.7022 17.6688 33.2611 19.3314 33.2611 21.3027V21.3321C33.2611 23.4507 34.6586 25.0101 36.7649 25.0101C37.656 25.0206 38.5274 24.7477 39.2532 24.2306V22.301H36.6197V20.7268H41V25.0523C39.8073 26.0854 38.2824 26.6545 36.7045 26.6554C35.9984 26.6878 35.2933 26.5735 34.6337 26.3195C33.9741 26.0655 33.3743 25.6774 32.8723 25.1798C32.3704 24.6821 31.9771 24.0858 31.7174 23.4284C31.4576 22.771 31.3371 22.0669 31.3634 21.3605Z" fill="#EB0028"/>
</svg>
