<svg width="50" height="50" viewBox="0 0 50 50" fill="none" xmlns="http://www.w3.org/2000/svg">
<circle cx="25" cy="25" r="24" fill="white"/>
<path d="M16.7301 30.77C15.7501 31.07 14.73 31.21 13.71 31.21C12.08 31.31 10.4701 30.74 9.27006 29.63C8.17006 28.36 7.84005 26.61 8.39005 25.03C8.76005 23.13 9.84004 21.44 11.41 20.32C12.82 19.3 14.5101 18.75 16.2401 18.74C17.3101 18.75 18.3701 18.96 19.3601 19.34L18.8001 21.86C18.2801 21.62 17.7501 21.43 17.2001 21.28C16.9201 21.26 16.63 21.26 16.35 21.28C15.43 21.29 14.53 21.58 13.79 22.11C12.88 22.83 12.2701 23.86 12.0801 25.01C11.6801 25.99 11.79 27.1 12.37 27.99C12.97 28.57 13.79 28.87 14.62 28.82C15.58 28.78 16.51 28.54 17.37 28.11L16.7301 30.77ZM20.34 19H24.15C25.86 18.86 27.5601 19.41 28.8601 20.54C29.9201 21.75 30.25 23.44 29.71 24.96C29.35 26.75 28.3201 28.35 26.8301 29.42C25.1701 30.52 23.2101 31.06 21.2301 30.98H17.54L20.34 19ZM23.32 21.09L21.53 28.8H21.9501C22.7501 28.77 23.5401 28.56 24.2401 28.18C25.2601 27.49 25.9201 26.38 26.0501 25.16C26.3001 24.37 26.3701 23.54 26.2401 22.72C26.0901 22.23 25.74 21.83 25.28 21.62C24.79 21.38 24.26 21.26 23.72 21.27H23.32V21.09ZM41.44 26.15C40.93 27.92 39.74 29.42 38.13 30.32C37.07 30.95 35.86 31.29 34.63 31.28C30.73 31.28 29.2701 29.2 30.2701 25.03C30.6101 23.26 31.53 21.65 32.88 20.45C34.18 19.33 35.85 18.72 37.57 18.74C40.27 18.74 41.6501 19.73 41.7401 21.72L38.4901 22.72C38.6801 21.65 38.16 21.12 36.93 21.12C36.44 21.11 35.95 21.24 35.53 21.5C35.14 21.75 34.83 22.12 34.63 22.54C34.33 23.28 34.1 24.05 33.94 24.83C33.68 25.69 33.5 26.56 33.4 27.45C33.36 27.86 33.52 28.26 33.82 28.53C34.18 28.79 34.62 28.92 35.07 28.88C36.41 28.84 37.5101 27.83 37.6701 26.5H35.59L36.13 24.19H41.8601L41.44 26.15Z" fill="#292E6A"/>
<path d="M50 25.13C50 11.25 38.38 0 25.06 0C11.25 0 0 11.25 0 25.13C0 38.88 11.25 50 25.06 50C38.87 50 50 38.94 50 25.13ZM46.56 25.13C46.56 36.88 36.87 46.69 25.06 46.69C13.18 46.69 3.42999 37 3.42999 25.13C3.42999 13.19 13.18 3.31999 25.06 3.31999C36.87 3.31999 46.56 13.25 46.56 25.13Z" fill="#F28E42"/>
</svg>
