<svg width="128" height="128" viewBox="0 0 128 128" fill="none" xmlns="http://www.w3.org/2000/svg">
<rect x="1" y="1" width="126" height="126" fill="white"/>
<path d="M124.511 122.696L109.162 116.539L115.073 112.528C115.073 112.528 118.887 102.639 119.86 90.0733C115.993 76.855 111.896 69.7574 110.915 67.9799C110.915 67.9799 105.8 62.9922 104.006 62.5448C103.653 62.4052 103.259 62.2861 102.832 62.2122C100.878 61.8633 46.5596 62.204 46.5596 62.204C46.5596 62.204 45.0202 62.3231 44.2115 64.1745C44.2115 64.1745 36.7116 81.1407 36.9497 90.7096C36.9497 90.7096 38.4316 96.8344 40.0572 98.2219C41.0096 99.0306 54.1335 104.564 64.7656 108.973L64.7738 108.977L101.325 124.507H66.7976L13.715 102.105H3.4893V87.0274H13.1034L36.8306 97.0437C35.8618 94.8352 35.554 92.9756 35.4021 91.3787C35.3487 89.2892 35.398 86.8878 35.87 84.4165L12.6846 74.667H3.4893V73.6407V72.6145H13.1075L13.3004 72.7007L36.2477 82.4625C38.292 73.4642 42.4299 64.0267 42.6639 63.493C43.723 61.0587 45.7838 60.6154 46.5966 60.6154H69.5562L69.6055 57.3149C69.9339 57.3847 70.759 57.672 71.2598 57.1835C71.6457 56.8141 69.1334 54.8149 69.1334 54.8149V54.8313C68.7844 53.5793 68.5751 48.3125 62.8978 45.2871L61.9536 43.7805V38.0211C61.9536 38.0211 60.7549 35.3036 60.2829 34.8807H59.897C59.429 35.3036 58.2303 38.0211 58.2303 38.0211V43.7805L57.2862 45.2871C51.6335 48.3002 51.3995 53.53 51.0506 54.8149C51.0506 54.8149 51.0177 54.8437 50.9726 54.8806V41.7075C51.498 41.8183 52.8034 42.2781 53.5998 41.5022C54.2115 40.9111 50.2172 37.7379 50.2172 37.7379L50.2213 37.7666C49.6672 35.7756 49.3305 27.4136 40.3158 22.6066L38.8175 20.2174V11.0673C38.8175 11.0673 36.9127 6.75283 36.1656 6.0755H35.554C34.8027 6.75283 32.9021 11.0673 32.9021 11.0673V20.2174L31.4037 22.6066C22.4301 27.3931 22.0565 35.6976 21.5023 37.7379C21.4695 37.7666 17.5163 40.9152 18.1239 41.5022C18.9161 42.274 20.2215 41.8224 20.747 41.7116V54.8847C20.6895 54.8437 20.6567 54.8149 20.6567 54.8149L20.6608 54.8313C20.3119 53.5793 20.0984 48.3125 14.4211 45.2871L13.481 43.7805V38.0211C13.481 38.0211 12.2782 35.3036 11.8103 34.8807H11.4244C10.9523 35.3036 9.75363 38.0211 9.75363 38.0211V43.7805L8.81357 45.2871C5.71014 46.9414 4.24052 49.2608 3.4893 51.2312V3.4852H124.511V122.696ZM107.154 66.9413C107.154 66.9413 109.342 68.5956 110.792 69.6506C113.337 74.7861 116.686 81.309 118.234 88.1727H115.118L115.09 88.0988C113.131 79.708 109.1 71.0258 107.154 66.9413ZM111.063 88.1727H88.4108V66.9413H103.021C108.673 77.9264 111.063 88.1727 111.063 88.1727ZM38.9078 88.1727C38.9078 88.1727 42.2575 71.6744 45.1311 66.9413H60.2582V88.1727H38.9078ZM65.0078 94.905V66.9413H72.5118V94.905H76.3829V66.9413H83.8829V94.905H109.17L103.636 96.4526H46.8675L41.3257 94.905H65.0078ZM0 128H128V3.06072e-06H0V128Z" fill="#1F3C90"/>
</svg>
