<?xml version="1.0" encoding="UTF-8"?>
<svg id="Calque_2" xmlns="http://www.w3.org/2000/svg" viewBox="0 0 50 50">
  <g id="Calque_1-2">
    <rect x="1.37" y="1.36" width="47.27" height="47.27" style="fill:#fff; stroke-width:0px;"/>

    <polygon points="5.36 39.89 26.1 48.64 37.53 48.64 4.96 34.8 1.37 34.8 1.37 39.89 5.36 39.89"
             style="fill:none; stroke-width:0px;"/>
    <polygon points="5.12 34 1.37 34 1.37 34.4 1.37 34.8 4.96 34.8 37.53 48.64 38.56 48.64 39.58 48.64 5.12 34"
             style="fill:#fff; stroke-width:0px;"/>
    <path
      d="M0,0v50h50V0H0ZM1.37,34h3.76l34.46,14.64h-13.49l-20.74-8.75H1.36M48.64,47.93l-35.34-15.18h13.89v-10.36c.13.03.45.14.65-.05.15-.15-.83-.93-.83-.93h0c-.14-.48-.22-2.54-2.44-3.72l-.37-.59v-2.25s-.47-1.06-.65-1.23h-.15c-.18.17-.65,1.23-.65,1.23v2.25l-.37.59c-2.21,1.18-2.3,3.22-2.44,3.72,0,0-.01.01-.03.03v-5.14c.2.04.72.22,1.03-.08.24-.23-1.32-1.47-1.32-1.47h0c-.22-.77-.35-4.03-3.87-5.91l-.59-.93v-3.57s-.74-1.69-1.04-1.95h-.24c-.29.26-1.04,1.95-1.04,1.95v3.57l-.59.93c-3.51,1.87-3.65,5.11-3.87,5.91-.01.01-1.56,1.24-1.32,1.47.31.3.82.12,1.02.08v5.15s-.03-.03-.03-.03h0c-.14-.48-.22-2.54-2.44-3.72l-.37-.59v-2.25s-.47-1.06-.65-1.23h-.15c-.18.17-.65,1.23-.65,1.23v2.25l-.37.59c-1.21.65-1.78,1.55-2.08,2.32h0V1.37h47.27v46.56h.03Z"
      style="fill:#1f3c90; stroke-width:0px;"/>
    <polygon points="5.2 28.4 5.12 28.37 1.37 28.37 1.37 28.77 1.37 29.17 4.96 29.17 34.52 41.87 34.68 41.06 5.2 28.4"
             style="fill:#fff; stroke-width:0px;"/>
    <path
      d="M46.82,35.19c-1.51-5.16-3.11-7.94-3.49-8.63,0,0-2-1.95-2.7-2.12-.14-.05-.29-.1-.46-.13-.76-.14-21.82,0-21.82,0,0,0-.77.04-1.08.77,0,0-2.93,6.63-2.84,10.37,0,0,.58,2.39,1.22,2.93.63.54,14.98,6.39,14.98,6.39l11.94.79-.08.08,2.47-1.67s1.48-3.87,1.86-8.78Z"
      style="fill:#1f3c90; stroke-width:0px;"/>
    <path d="M17.63,26.15h5.91v8.29h-8.34s1.31-6.44,2.43-8.29" style="fill:#fff; stroke-width:0px;"/>
    <path d="M40.25,26.15h-5.71v8.29h8.85s-.94-4-3.14-8.29" style="fill:#fff; stroke-width:0px;"/>
    <path d="M41.86,26.15c.76,1.6,2.34,4.99,3.1,8.26v.03h1.23c-.61-2.68-1.91-5.23-2.91-7.23-.56-.41-1.42-1.06-1.42-1.06"
          style="fill:#fff; stroke-width:0px;"/>
    <polygon
      points="32.77 37.08 32.77 26.15 29.84 26.15 29.84 37.08 28.33 37.08 28.33 26.15 25.4 26.15 25.4 37.08 16.15 37.08 18.31 37.68 40.49 37.68 42.65 37.08 32.77 37.08"
      style="fill:#fff; stroke-width:0px;"/>
    <path d="M41.86,24.26h-23.61s-.79.04-1.11.79c0,0-3.02,6.83-2.92,10.68,0,0,.63,2.52,1.28,3.08"
          style="fill:none; stroke:#fff; stroke-width:.77px;"/>
  </g>
</svg>
