<svg width="50" height="50" viewBox="0 0 50 50" fill="none" xmlns="http://www.w3.org/2000/svg">
<rect x="1" y="1" width="48" height="48" rx="10" fill="white"/>
<path d="M38.75 50H11.25C5.04 50 0 44.96 0 38.75V11.25C0 5.04 5.04 0 11.25 0H38.75C44.96 0 50 5.04 50 11.25V38.75C50 44.97 44.97 50 38.75 50ZM46.75 38.75V11.25C46.75 6.83 43.17 3.25 38.75 3.25H11.25C6.83 3.25 3.25 6.83 3.25 11.25V38.75C3.25 43.17 6.83 46.75 11.25 46.75H38.75C43.17 46.75 46.75 43.17 46.75 38.75Z" fill="#1F3C90"/>
<path d="M42.39 17.67C42.28 17.08 41.76 16.65 41.16 16.65H38.11C38.07 16.56 38.04 16.47 38 16.38C37.05 14.1 34.85 12.63 32.39 12.63H10V17.5H27.24C27.52 17.5 27.74 17.72 27.74 18V28.25C27.74 28.53 27.52 28.75 27.24 28.75H10V39.87H15.4C15.69 39.87 15.93 39.62 15.9 39.33C15.83 38.69 15.87 38.01 16.05 37.31C16.58 35.31 18.25 33.73 20.29 33.34C23.79 32.67 26.87 35.35 26.87 38.74C26.87 38.94 26.86 39.14 26.84 39.33C26.81 39.62 27.05 39.87 27.34 39.87H37.19C38.96 39.87 39.49 37.47 39.78 33.61C39.99 30.78 39.99 27.61 39.99 26.25C39.99 23.56 39.58 20.96 38.75 18.4H40.75L41.61 22.99C41.69 23.4 42.08 23.67 42.49 23.59L42.73 23.54C43.14 23.46 43.41 23.07 43.33 22.66L42.39 17.67ZM37.62 32.03C37.61 32.3 37.39 32.5 37.12 32.5H30.49C30.21 32.5 29.99 32.28 29.99 32V18C29.99 17.72 30.21 17.5 30.49 17.5H35.68C35.89 17.5 36.08 17.63 36.15 17.82C37.2 20.54 37.73 23.37 37.73 26.25C37.74 28.63 37.7 30.53 37.62 32.03Z" fill="#1F3C90"/>
<path d="M21.37 35C19.3 35 17.62 36.68 17.62 38.75C17.62 40.82 19.3 42.5 21.37 42.5C23.44 42.5 25.12 40.82 25.12 38.75C25.12 36.68 23.44 35 21.37 35Z" fill="#1F3C90"/>
</svg>
