<svg width="128" height="128" viewBox="0 0 128 128" fill="none" xmlns="http://www.w3.org/2000/svg">
<rect x="1" y="1" width="126" height="126" fill="white"/>
<path d="M35.1957 18.0569V25.3967H26.1564V27.166H36.9609V18.0569H35.1957Z" fill="#1F3C90"/>
<path d="M124.507 33.2798L36.0096 5.54594L3.49341 15.7388V3.48521H124.507V33.2798ZM124.507 61.8797H92.6431C93.5298 50.6647 102.914 41.847 114.355 41.847C118.021 41.847 121.477 42.7542 124.507 44.3593V61.8797ZM124.507 124.502H94.0347H93.9977L92.9961 122.869H93.8377C93.8377 122.869 100.266 121.818 101.674 120.098C103.058 118.406 103.69 112.819 103.719 112.569C103.743 112.347 103.858 111.933 103.407 111.666C103.185 111.53 98.6734 108.608 92.5733 105.106V66.6868H124.507V124.502ZM44.7616 94.2441C44.2197 93.616 38.5958 84.3221 24.5893 80.254C42.081 80.254 54.3839 85.5495 57.5243 87.5692H48.8831L58.0169 93.9321H67.1301C67.947 94.4575 68.8091 94.9994 69.7204 95.5536C76.231 97.7867 84.162 101.912 90.6234 105.578L83.7597 106.026L89.5766 108.797L95.3155 108.304C98.3696 110.122 100.738 111.604 101.925 112.36C101.12 112.627 99.8393 112.951 98.3614 112.951C95.8738 112.951 93.9649 112.126 93.9649 112.126C93.8212 112.048 79.5397 104.765 65.2172 99.5191C52.3026 94.79 46.0301 94.2933 44.7616 94.2441ZM28.0294 94.5971L25.4555 87.6226H33.6369C36.9168 88.7761 40.8905 94.5971 40.8905 94.5971H28.0294ZM3.54678 94.5971V87.6226H22.8857L25.3857 94.5971H3.54678ZM3.49341 66.6868H32.274V79.0389C29.7987 78.8213 27.155 78.8419 24.302 78.8419H3.49341V66.6868ZM36.0178 39.5112C28.7313 39.5112 22.8201 33.6 22.8201 26.3135C22.8201 19.027 28.7313 13.1198 36.0178 13.1198C43.3043 13.1198 49.2115 19.027 49.2115 26.3135C49.2115 33.6 43.3043 39.5112 36.0178 39.5112ZM84.1949 66.6868V100.529C79.6998 98.2096 75.02 96.0421 70.878 94.6217C67.7705 92.7088 58.5054 83.1891 40.6483 80.254V66.6868H84.1949ZM40.7181 61.8797C41.6048 50.6647 50.9849 41.847 62.4257 41.847C73.8624 41.847 83.2384 50.6647 84.1251 61.8797H40.7181ZM3.49341 43.0005C5.69372 42.2534 8.05414 41.847 10.5049 41.847C21.9416 41.847 31.3175 50.6647 32.2042 61.8797H3.49341V43.0005ZM0 128H128V3.06072e-06H0V128Z" fill="#1F3C90"/>
<path d="M43.5227 87.5695L51.7985 94.1992H56.3018L47.1023 87.5695H43.5227Z" fill="#1F3C90"/>
</svg>
