<?xml version="1.0" encoding="UTF-8"?>
<svg id="Calque_2" xmlns="http://www.w3.org/2000/svg" viewBox="0 0 50 50">
  <g id="Calque_1-2">
    <rect width="50" height="50" style="fill:#1f3c90; stroke-width:0px;"/>
    <rect x="1.37" y="1.36" width="47.27" height="47.27" style="fill:#fff; stroke-width:0px;"/>
    <path
      d="M44.67,16.35c1.44,0,2.8.36,3.99,1v-4.34L14.07,2.17,1.35,6.16v10.65c.87-.3,1.79-.46,2.76-.46,4.47,0,8.13,3.45,8.48,7.83H1.35v1.88h11.27v22.61h3.27v-22.62h17.01v22.61h3.27v-22.61h12.49v-1.88h-12.47c.35-4.38,4.02-7.82,8.48-7.82ZM15.91,24.17c.35-4.38,4.01-7.83,8.48-7.83s8.13,3.45,8.48,7.83H15.91Z"
      style="fill:#1f3c90; stroke-width:0px;"/>
    <path d="M19.23,10.28c0-2.85-2.31-5.15-5.15-5.15s-5.15,2.31-5.15,5.15,2.31,5.15,5.15,5.15,5.15-2.3,5.15-5.15Z"
          style="fill:#fff; stroke-width:0px;"/>
    <polygon
      points="13.75 7.05 13.75 9.92 10.22 9.92 10.22 10.61 13.75 10.61 14.44 10.61 14.44 9.92 14.44 7.05 13.75 7.05"
      style="fill:#1f3c90; stroke-width:0px;"/>
    <path
      d="M36.71,48.66l-.41-.67h.33s2.51-.41,3.06-1.08c.54-.66.79-2.84.8-2.93.03-.04.06-.07.06-.12.01-.07-.03-.14-.09-.17-.07-.05-7.62-4.94-12.8-6.72-1.22-.75-2.23-1.43-3.12-2.04-1.96-1.32-3.38-2.28-5.18-2.75-2.57-.67-5.66-1.38-9.89-1.38H1.34v17.86h35.37Z"
      style="fill:#1f3c90; stroke-width:0px;"/>
    <polygon points="9.9 36.95 1.35 36.95 1.35 34.23 8.92 34.23 9.9 36.95" style="fill:#fff; stroke-width:0px;"/>
    <path
      d="M19.24,32.47c1.77.46,3.17,1.41,5.13,2.73.91.61,1.94,1.31,3.21,2.09,4.62,1.58,11.07,5.6,12.58,6.56-.31.1-.81.23-1.39.23-.97,0-1.72-.32-1.72-.32-.06-.03-5.63-2.88-11.23-4.92-5.05-1.85-7.5-2.04-7.99-2.06-.21-.24-1.03-1.18-2.68-3.14-1.43-1.7-3.87-2.32-5.2-2.54,3.92.06,6.84.74,9.29,1.37Z"
      style="fill:#fff; stroke-width:0px;"/>
    <path d="M10.93,36.95h4.9s-1.29-2.64-2.17-2.73h-3.73l1,2.73Z" style="fill:#fff; stroke-width:0px;"/>
    <polygon points="22.33 36.76 18.74 34.17 17.34 34.17 20.58 36.76 22.33 36.76"
             style="fill:#1f3c90; stroke-width:0px;"/>
    <polygon points="26.62 36.66 22.87 34.17 19.43 34.17 23 36.66 26.62 36.66" style="fill:#1f3c90; stroke-width:0px;"/>
    <polygon points="36.02 41.18 37.73 42.25 35.33 42.46 33.06 41.38 36.02 41.18"
             style="fill:#1f3c90; stroke-width:0px;"/>
  </g>
</svg>
