<svg width="209" height="50" viewBox="0 0 209 50" fill="none" xmlns="http://www.w3.org/2000/svg">
<path d="M198.254 50H10.1905C7.49037 49.992 4.90274 48.9159 2.99347 47.0066C1.0842 45.0973 0.00797671 42.5101 0 39.81V10.19C0.00797671 7.48991 1.0842 4.90266 2.99347 2.99339C4.90274 1.08412 7.49037 0.00797671 10.1905 0H198.254C200.954 0.00797671 203.541 1.08412 205.451 2.99339C207.36 4.90266 208.436 7.48991 208.444 10.19V39.81C208.436 42.5101 207.36 45.0973 205.451 47.0066C203.541 48.9159 200.954 49.992 198.254 50Z" fill="#006DB8"/>
<path d="M177.249 21.2595C178.315 21.2595 178.834 21.6425 178.885 22.847C178.943 24.0439 179.048 34.0197 179.048 34.0197C178.63 35.2997 177.02 36.1968 176.616 34.9142C176.616 34.9142 174.493 30.9153 173.51 29.1817C172.535 27.4456 171.982 26.9089 170.347 26.1832C168.712 25.4449 164.788 23.4039 164.788 23.4039C163.453 23.0435 164.37 21.509 165.703 21.1033C165.703 21.1033 176.178 21.2595 177.249 21.2595Z" fill="white"/>
<path d="M190.361 7.34242C192.427 6.69987 193.586 7.82117 192.921 9.8244L188.725 31.6205C188.06 33.6212 187.01 33.6162 186.375 31.6003L183.091 21.1055C182.459 19.0947 180.241 16.9831 178.142 16.4086L167.877 13.6041C165.778 13.0346 165.765 12.0443 167.844 11.4043L190.361 7.34242ZM151.493 35.5312V9.1214C151.493 9.1214 155.868 8.36042 155.868 12.5029V35.5312H151.493ZM52.035 19.9338C50.9641 19.9338 49.805 20.919 49.805 21.6674V35.5312H45.1838V23.1919C45.1838 18.8604 47.0788 16.1365 51.6622 16.1365H58.2207C58.2207 17.0839 58.0999 19.9312 55.7741 19.9312L52.035 19.9338ZM60.9398 35.5312V9.1214C60.9398 9.1214 65.3063 8.36042 65.3063 12.5029V35.5312H60.9398ZM88.7859 42.8738H79.3491C79.3491 42.8738 79.2356 39.0841 82.0805 39.0841H87.9622C89.6152 39.0841 89.94 38.5801 89.94 37.678V35.5312H74.9702C70.3943 35.5312 68.4942 32.8073 68.4942 28.4758V16.1339C68.4942 16.1339 72.8657 15.3503 72.8657 20.7855V30.1237C72.8657 31.3206 73.2844 31.7364 74.4762 31.7364H88.7859C89.6931 31.7364 89.94 31.6104 89.94 30.086V16.1339H94.3115V37.1741C94.3115 40.853 92.3338 42.8738 88.7859 42.8738ZM41.7363 29.6904V22.0201C41.7363 17.9734 40.502 16.1591 36.1277 16.1591H20.9432C16.5714 16.1591 15.3346 17.9734 15.3346 22.0201V29.6904C15.3346 33.7396 16.5714 35.5514 20.9432 35.5514H36.1277C40.502 35.5514 41.7363 33.7396 41.7363 29.6904ZM37.3624 30.1868C37.3624 31.3055 37.0395 31.7566 35.8804 31.7566H21.1148C20.0364 31.7566 19.7085 31.3055 19.7085 30.1868V21.5212C19.7085 20.4125 20.0364 19.959 21.1148 19.959H35.8804C37.0395 19.959 37.3624 20.4125 37.3624 21.5212V30.1868ZM114.951 34.0294C114.951 34.0294 113.976 35.6799 112.739 35.6799H110.68C109.171 35.6799 108.213 34.0168 108.213 34.0168L97.89 16.1717H99.893C101.357 16.1717 102.69 16.4061 104.305 19.0922C105.925 21.7757 111.58 31.6986 111.58 31.6986L120.535 16.1717H125.262L114.951 34.0294ZM147.24 35.5312V23.5194C147.24 18.2455 145.653 16.1717 140.802 16.1717H132.348C132.348 16.1717 131.441 19.9917 136.586 19.9917H141.288C142.639 19.9917 142.918 20.3672 142.918 21.2365V22.771H127.601C123.284 22.771 122.062 25.4697 122.062 28.6673V29.7886C122.062 33.8556 123.279 35.5312 127.593 35.5312H147.24ZM142.918 29.9549C142.918 31.7389 142.641 31.8649 141.288 31.8649H128.412C126.951 31.8649 126.376 31.6104 126.376 30.2044V28.2087C126.376 26.8027 126.948 26.5482 128.412 26.5482H142.918V29.9549Z" fill="white"/>
</svg>
