<svg width="50" height="50" viewBox="0 0 50 50" fill="none" xmlns="http://www.w3.org/2000/svg">
<circle cx="25" cy="25" r="24" fill="white"/>
<path d="M50 25.13C50 11.25 38.38 0 25.06 0C11.25 0 0 11.25 0 25.13C0 38.88 11.25 50 25.06 50C38.87 50 50 38.94 50 25.13ZM46.57 25.13C46.57 36.88 36.88 46.69 25.07 46.69C13.19 46.69 3.43997 37 3.43997 25.13C3.43997 13.19 13.19 3.31999 25.07 3.31999C36.88 3.31999 46.57 13.25 46.57 25.13Z" fill="#5291CE"/>
<path d="M23.62 32.77C23.28 32.78 22.98 33.01 22.89 33.34V37.93H21.35V33.85C21.15 32.78 21.85 31.75 22.92 31.55C23.11 31.51 23.31 31.51 23.5 31.53H25.67C25.67 31.85 25.67 32.79 24.86 32.79H23.62V32.77ZM26.56 37.94V29.2C27.17 29.04 27.8 29.4 27.96 30.01C27.99 30.11 28 30.22 28 30.32V37.93L26.56 37.94ZM35.79 40.37H32.65C32.65 40.37 32.65 39.11 33.56 39.11H35.53C36.08 39.11 36.18 38.95 36.18 38.64V37.95H31.21C30.13 38.07 29.15 37.29 29.04 36.2C29.02 36.01 29.03 35.81 29.06 35.62V31.52C29.76 31.42 30.41 31.9 30.52 32.61C30.54 32.76 30.54 32.91 30.51 33.06V36.16C30.45 36.39 30.58 36.63 30.81 36.69C30.89 36.71 30.97 36.71 31.04 36.69H35.77C36.07 36.69 36.14 36.69 36.14 36.14V31.52H37.6V38.48C37.77 39.39 37.17 40.27 36.25 40.43C36.09 40.46 35.92 40.47 35.76 40.45M20.21 36V33.46C20.45 32.62 19.96 31.75 19.12 31.51C18.87 31.44 18.61 31.43 18.36 31.49H13.33C12.48 31.31 11.64 31.85 11.45 32.7C11.4 32.95 11.4 33.22 11.47 33.46V36C11.23 36.84 11.72 37.71 12.56 37.95C12.81 38.02 13.07 38.03 13.32 37.97H18.35C19.22 38.14 20.06 37.58 20.23 36.71C20.27 36.48 20.27 36.23 20.21 36ZM18.77 36.16C18.83 36.38 18.7 36.61 18.48 36.67C18.41 36.69 18.35 36.69 18.28 36.67H13.39C13.03 36.67 12.92 36.51 12.92 36.16V33.3C12.92 32.93 13.04 32.79 13.39 32.79H18.28C18.5 32.74 18.73 32.88 18.78 33.1C18.8 33.17 18.79 33.24 18.78 33.3V36.16H18.77Z" fill="#43698A"/>
<path d="M34.28 9.44995C27.62 10.68 20.96 11.91 14.3 13.13C18.09 14.24 21.88 15.34 25.66 16.45C26.99 20.31 28.32 24.16 29.66 28.02C31.2 21.84 32.74 15.65 34.28 9.44995Z" fill="#FCBD0C" stroke="#FCBD0C" stroke-width="0.587" stroke-linecap="square" stroke-linejoin="round"/>
<path d="M23.61 19.76C19.97 19.94 16.34 20.13 12.7 20.31C14.96 21.22 17.2199 22.13 19.4799 23.03C20.6399 25.29 21.8099 27.56 22.9699 29.82C23.1899 26.47 23.4 23.11 23.61 19.76Z" fill="#716E6F"/>
</svg>
