<svg width="252" height="50" viewBox="0 0 252 50" fill="none" xmlns="http://www.w3.org/2000/svg">
<circle cx="25" cy="25" r="24" fill="white"/>
<circle cx="58" cy="25" r="24" fill="white"/>
<path d="M28.9984 21.5375L13.9633 19.425C13.6748 19.3941 13.2523 19.4971 13.0256 19.6723L11.3458 20.9192L22.0115 26.927C19.9608 28.5243 18.0647 30.0495 16.5911 31.2036C16.3025 31.4303 15.8491 31.5746 15.5091 31.5437L9.46001 30.7502C9.01689 30.6781 8.6253 30.8739 8.36768 31.0697L7.27535 31.8735L12.9019 35.8306C13.9942 36.5829 21.8981 32.4093 25.0103 30.3277C27.669 28.5449 36.6035 21.8158 38.5202 20.1669C40.4369 18.5181 41.9724 16.4984 41.3953 15.7049C40.9316 15.1072 36.9744 15.5709 34.8516 17.1373C33.4501 18.1472 31.2449 19.8063 28.9984 21.5375ZM58.2131 0C51.8446 0 46.0326 2.38047 41.622 6.30669C37.2218 2.38047 31.3891 0 25.0103 0C11.2015 0 0 11.181 0 24.9794C0 38.7984 11.2015 50 25.0103 50C31.3891 50 37.2115 47.6195 41.622 43.7036C46.0326 47.6195 51.8446 50 58.2131 50C72.0218 50 83.2337 38.7984 83.2337 24.9794C83.2337 11.181 72.0218 0 58.2131 0ZM25.0103 46.826C12.9637 46.826 3.18422 37.0569 3.18422 24.9794C3.18422 12.9328 12.9637 3.15334 25.0103 3.15334C37.0774 3.15334 46.8466 12.9328 46.8466 24.9794C46.8466 37.0569 37.0774 46.826 25.0103 46.826ZM65.4988 41.3747C65.4988 41.3747 64.0561 36.6447 59.5219 36.6447C54.9876 36.6447 53.5552 41.3747 53.5552 41.3747H47.9802C47.9802 41.3747 52.5247 35.9336 55.1216 29.4827C58.1822 21.8776 58.2852 14.9629 58.2852 11.15C58.2852 10.6348 58.2749 10.2535 58.0894 10.0062C57.7906 9.67643 57.8112 8.98599 57.8112 8.98599V7.41962L58.6047 6.5437C58.9241 6.19333 59.1303 5.7399 59.1303 5.26587H59.1406V3.82317C59.1406 3.82317 59.2848 3.64798 59.5321 3.63767C59.7897 3.64798 59.934 3.82317 59.934 3.82317V5.26587C59.934 5.7399 60.1298 6.20363 60.4596 6.5437L61.2531 7.41962V8.98599C61.2531 8.98599 61.2634 9.67643 60.9748 10.0062C60.779 10.2535 60.7584 10.6348 60.7584 11.15C60.7584 14.9629 60.8615 21.8776 63.9324 29.4827C66.5395 35.9336 71.0737 41.3747 71.0737 41.3747H65.4988ZM60.2741 27.4526H58.7592C58.4707 27.4526 58.2749 27.5556 58.2028 27.9369C58.1925 27.9782 57.4196 31.5746 56.8013 33.6974H62.2423C61.624 31.5746 60.8512 27.9678 60.8409 27.9369C60.7481 27.566 60.5626 27.4526 60.2741 27.4526Z" fill="#E3051C"/>
<path d="M122.08 24.6C122.08 27.66 121.62 30.25 120.72 32.35C119.81 34.46 118.65 36.18 117.24 37.5C115.83 38.82 114.26 39.77 112.52 40.35C110.78 40.93 109.07 41.22 107.37 41.22C105.42 41.22 103.55 40.94 101.78 40.37C100.02 39.8 98.46 38.86 97.13 37.56C95.79 36.26 94.7299 34.54 93.9399 32.42C93.1599 30.3 92.76 27.69 92.76 24.6C92.76 21.54 93.21 18.96 94.12 16.85C95.03 14.74 96.18 13.02 97.59 11.7C99.01 10.38 100.58 9.41998 102.31 8.83998C104.05 8.26998 105.76 7.96997 107.46 7.96997C109.42 7.96997 111.28 8.25997 113.05 8.82997C114.81 9.38997 116.37 10.32 117.7 11.64C119.03 12.94 120.1 14.65 120.88 16.78C121.68 18.91 122.08 21.52 122.08 24.6ZM114.95 24.6C114.95 23.15 114.82 21.75 114.57 20.41C114.31 19.08 113.9 17.91 113.31 16.92C112.73 15.93 111.96 15.13 111 14.54C110.04 13.95 108.85 13.65 107.42 13.65C105.99 13.65 104.78 13.95 103.82 14.54C102.84 15.13 102.07 15.93 101.49 16.92C100.91 17.92 100.49 19.08 100.25 20.41C100.01 21.75 99.89 23.15 99.89 24.6C99.89 26.09 100.02 27.49 100.27 28.81C100.52 30.13 100.94 31.29 101.52 32.29C102.11 33.28 102.88 34.08 103.83 34.67C104.79 35.27 105.98 35.56 107.42 35.56C108.86 35.56 110.06 35.26 111.03 34.67C112 34.08 112.78 33.28 113.36 32.29C113.94 31.29 114.35 30.14 114.59 28.81C114.83 27.5 114.95 26.09 114.95 24.6Z" fill="#E3051C"/>
<path d="M139.22 22.69C138.99 22.58 138.67 22.44 138.27 22.3C137.87 22.14 137.46 22.07 137.04 22.07C136.35 22.07 135.82 22.16 135.44 22.34C135.05 22.52 134.71 22.74 134.41 23.01C134 23.4 133.74 23.83 133.65 24.32C133.56 24.81 133.52 25.39 133.52 26.04V40.39H127.28V22.61C127.28 22.1 127.27 21.55 127.25 20.96C127.24 20.36 127.22 19.8 127.19 19.24C127.16 18.69 127.13 18.18 127.1 17.7C127.07 17.22 127.05 16.85 127.05 16.59H132.62V20.15C133 19.58 133.38 19.05 133.77 18.54C134.16 18.04 134.58 17.6 135.05 17.23C135.51 16.85 136.03 16.56 136.61 16.34C137.19 16.12 137.85 16.01 138.6 16.01C139.04 16.01 139.47 16.06 139.89 16.17C140.31 16.27 140.63 16.37 140.87 16.46L139.22 22.69Z" fill="#E3051C"/>
<path d="M144.75 40.38V7.41003H150.99V40.38H144.75Z" fill="#E3051C"/>
<path d="M168.4 41.7101C168.05 42.8601 167.59 43.9201 167.04 44.8701C166.49 45.8201 165.8 46.6601 164.97 47.3901C164.14 48.1201 163.14 48.7001 161.96 49.1501C160.79 49.6001 159.4 49.8801 157.79 50.0001L157.21 45.1901C157.71 45.1901 158.25 45.1301 158.83 45.0301C159.41 44.9201 159.95 44.7401 160.46 44.4701C160.97 44.2001 161.42 43.8501 161.82 43.4201C162.22 42.9901 162.51 42.4401 162.69 41.7501L154.58 16.5801H161.44L164.73 30.0801C165 31.1501 165.23 32.1901 165.42 33.2101C165.61 34.2101 165.74 34.9001 165.79 35.2501H165.88C166.03 34.6301 166.19 33.8701 166.37 32.9701C166.55 32.0901 166.77 31.1201 167.04 30.0801L170.47 16.5801H176.35L168.4 41.7101Z" fill="#E3051C"/>
<path d="M204.8 30.6201C204.8 32.6201 204.4 34.24 203.62 35.5C202.84 36.76 201.82 37.7601 200.58 38.4801C199.33 39.2101 197.95 39.7101 196.42 39.9801C194.89 40.2501 193.39 40.39 191.91 40.39H180.48V8.93005H192.42C193.7 8.93005 195.01 9.03005 196.36 9.22005C197.72 9.41005 198.94 9.80005 200.04 10.3501C201.14 10.9201 202.04 11.73 202.76 12.78C203.48 13.83 203.83 15.2001 203.83 16.9001C203.83 17.7001 203.68 18.46 203.38 19.17C203.08 19.89 202.69 20.5101 202.22 21.0401C201.74 21.5701 201.21 22.0101 200.61 22.3501C200.02 22.6901 199.41 22.9201 198.79 23.0401V23.1301C199.62 23.2501 200.38 23.5001 201.11 23.8701C201.83 24.2401 202.46 24.74 203.01 25.36C203.55 25.99 203.99 26.74 204.32 27.64C204.64 28.53 204.8 29.5201 204.8 30.6201ZM197 17.8401C197 16.9201 196.78 16.21 196.35 15.7C195.92 15.2 195.39 14.84 194.77 14.61C194.14 14.39 193.48 14.2701 192.77 14.2301C192.06 14.2001 191.42 14.19 190.85 14.19H187.42V21.4001H190.94C191.54 21.4001 192.18 21.39 192.88 21.36C193.57 21.33 194.23 21.2001 194.83 20.9801C195.44 20.7601 195.95 20.4 196.37 19.91C196.79 19.42 197 18.7301 197 17.8401ZM197.67 30.44C197.67 29.46 197.45 28.7001 196.98 28.1501C196.52 27.5901 195.96 27.2 195.29 26.95C194.62 26.7 193.9 26.5401 193.15 26.4801C192.39 26.4301 191.73 26.39 191.17 26.39H187.43V35.17H191.53C192.33 35.17 193.11 35.1201 193.85 35.0201C194.59 34.91 195.24 34.6901 195.81 34.3501C196.38 34.0101 196.83 33.5401 197.17 32.9301C197.5 32.3101 197.67 31.48 197.67 30.44Z" fill="#E3051C"/>
<path d="M223.51 40.3801V37.4301C222.71 38.5601 221.78 39.4601 220.75 40.1301C219.71 40.8001 218.43 41.1301 216.92 41.1301C215.64 41.1301 214.54 40.9301 213.62 40.5101C212.69 40.0901 211.94 39.5101 211.37 38.7701C210.79 38.0301 210.36 37.1601 210.08 36.1601C209.79 35.1701 209.65 34.0901 209.65 32.9301V16.5801H215.89V31.6401C215.89 32.8501 216.14 33.8401 216.64 34.6001C217.15 35.3601 217.99 35.7401 219.18 35.7401C219.78 35.7401 220.3 35.6401 220.76 35.4201C221.21 35.2201 221.6 34.9501 221.89 34.6201C222.43 34.0601 222.76 33.5501 222.87 33.1101C222.99 32.6601 223.05 32.0401 223.05 31.2401V16.5801H229.28V40.3701H223.51V40.3801Z" fill="#E3051C"/>
<path d="M251.08 33.2501C251.08 34.4101 250.85 35.4701 250.39 36.4301C249.93 37.4001 249.28 38.2201 248.43 38.9301C247.59 39.6301 246.54 40.1701 245.29 40.5501C244.04 40.9401 242.64 41.1301 241.1 41.1301C239.59 41.1301 238.21 40.9301 236.98 40.5401C235.75 40.1401 234.79 39.7301 234.11 39.3101L236.03 34.7301C236.8 35.2601 237.69 35.6901 238.68 36.0201C239.68 36.3501 240.65 36.5101 241.6 36.5101C242.01 36.5101 242.44 36.4701 242.87 36.4001C243.3 36.3201 243.69 36.1901 244.05 36.0001C244.41 35.8001 244.7 35.5501 244.92 35.2401C245.15 34.9301 245.25 34.5401 245.25 34.0601C245.25 33.6101 245.12 33.2401 244.88 32.9201C244.62 32.6101 244.32 32.3401 243.96 32.1201C243.6 31.8901 243.23 31.7101 242.82 31.5601C242.42 31.4101 242.06 31.2801 241.73 31.1601L239.77 30.4101C238.22 29.8101 236.98 29.0101 236.05 28.0201C235.11 27.0201 234.65 25.6501 234.65 23.8901C234.65 22.7701 234.87 21.7101 235.32 20.7301C235.76 19.7501 236.4 18.8901 237.23 18.1701C238.06 17.4401 239.05 16.8701 240.2 16.4501C241.34 16.0301 242.61 15.8301 244.01 15.8301C245.52 15.8301 246.81 16.0001 247.88 16.3601C248.95 16.7101 249.8 17.0601 250.42 17.3801L248.5 21.9701C247.82 21.5201 247.04 21.1801 246.16 20.9201C245.28 20.6701 244.46 20.5401 243.69 20.5401C242.41 20.5401 241.54 20.7901 241.08 21.3201C240.62 21.8401 240.39 22.3601 240.39 22.9001C240.39 23.2701 240.48 23.5801 240.66 23.8401C240.84 24.1101 241.07 24.3501 241.35 24.5501C241.64 24.7601 241.94 24.9301 242.26 25.0901C242.58 25.2301 242.9 25.3501 243.2 25.4401L245.29 26.2001C246.12 26.5301 246.89 26.8801 247.61 27.2701C248.32 27.6601 248.94 28.1301 249.46 28.7001C249.98 29.2701 250.38 29.9201 250.66 30.6601C250.94 31.4101 251.08 32.2701 251.08 33.2501Z" fill="#E3051C"/>
</svg>
