<svg width="178" height="36" viewBox="0 0 178 36" fill="none" xmlns="http://www.w3.org/2000/svg">
<path d="M5.01996 9.90002C2.79996 9.90002 0.950012 11.75 0.950012 13.97V24.68C0.950012 26.9 2.79996 28.75 5.01996 28.75H22.28C24.5 28.75 26.35 26.9 26.35 24.68V13.97C26.35 11.75 24.5 9.90002 22.28 9.90002H5.01996ZM5.01996 13.84H22.28V24.8H5.01996V13.84Z" fill="#356A80"/>
<path d="M33.59 28.75H29.52V13.97C29.52 11.75 31.37 9.90002 33.59 9.90002H41.72C41.72 11.92 39.88 13.84 37.65 13.84H33.58" fill="#356A80"/>
<path d="M48.86 28.75H44.79V3.55005C47 3.55005 48.86 5.40005 48.86 7.52005" fill="#356A80"/>
<path d="M72.57 24.57V9.66003H76.54L76.64 31.73C76.64 33.95 74.79 35.8 72.57 35.8H64.44C64.44 33.87 66.19 31.86 68.21 31.86H72.58V28.51H55.72C53.56 28.51 51.75 26.66 51.75 24.44V9.71002C54.09 9.71002 55.72 11.39 55.72 13.63V24.57H72.57Z" fill="#356A80"/>
<path d="M175.31 2.41003C166.31 4.07003 157.3 5.73003 148.3 7.39003C153.42 8.89003 158.54 10.38 163.66 11.88C165.46 17.09 167.26 22.31 169.06 27.52C171.14 19.15 173.22 10.78 175.31 2.41003Z" fill="#FCCB15" stroke="#FCCB15" stroke-width="0.7937" stroke-linecap="square" stroke-linejoin="round"/>
<path d="M160.88 16.34C155.97 16.59 151.05 16.83 146.14 17.08C149.2 18.31 152.25 19.54 155.31 20.76C156.88 23.82 158.46 26.88 160.03 29.94C160.31 25.41 160.6 20.88 160.88 16.34Z" fill="#A9AA99" stroke="#A9AA99" stroke-width="0.7937" stroke-linecap="square" stroke-linejoin="round"/>
<path d="M124.55 24.45V20.37L108.83 20.3801C107.48 21.3301 107.51 23.6 108.83 24.45H124.55ZM128.25 28.75H108.97C106.36 28.75 104.18 26.79 104.18 24.45V20.53C104.18 18.19 106.36 16.08 108.97 16.08L123.6 16.07C124.95 15.12 124.92 14.08 123.6 13.22H118.11C115.76 13.22 113.97 11.35 113.97 8.92004H123.46C126.07 8.92004 128.25 10.88 128.25 13.22V28.75Z" fill="#6CC8EA"/>
<path d="M80.03 9.22002L91.87 28.75H95.67L107.31 9.22002C105.46 8.16002 103.02 8.82003 102.01 10.6L93.76 24.16L85.34 10.6C83.99 8.70003 82.07 8.36002 80.03 9.22002Z" fill="#6CC8EA"/>
<path d="M136.56 28.75H132.49V3.55005C134.7 3.55005 136.56 5.40005 136.56 7.52005" fill="#6CC8EA"/>
</svg>
