<svg width="297" height="50" viewBox="0 0 297 50" fill="none" xmlns="http://www.w3.org/2000/svg">
<path d="M58.1976 0C51.8251 0 46.0198 2.38193 41.6065 6.31058C37.2035 2.38193 31.3776 0 25.0052 0C11.1982 0 0 11.1775 0 24.9845C0 38.8018 11.2085 50 25.0052 50C31.3879 50 37.2035 47.6181 41.6065 43.6997C46.0198 47.6181 51.8251 50 58.1976 50C72.0046 50 83.2233 38.8018 83.2233 24.9845C83.2233 11.1775 72.0046 0 58.1976 0Z" fill="#E3051C"/>
<path d="M25.0052 3.16565C12.9615 3.16565 3.1759 12.9408 3.1759 24.9846C3.1759 37.0592 12.9615 46.8241 25.0052 46.8241C37.0695 46.8241 46.8344 37.0592 46.8344 24.9846C46.8344 12.9408 37.0695 3.16565 25.0052 3.16565Z" fill="white"/>
<path d="M28.9957 21.5406L13.9616 19.4267C13.6729 19.3958 13.2502 19.4989 13.0233 19.6742L11.3425 20.9219L22.0045 26.9334C19.9525 28.5317 18.0552 30.0475 16.5807 31.2127C16.3023 31.4498 15.8383 31.5839 15.5083 31.553L9.45554 30.759C9.01215 30.6971 8.63063 30.8827 8.36254 31.0786L7.26953 31.8829L12.8995 35.8322C13.9925 36.5849 21.8911 32.4191 25.0052 30.3259C27.6655 28.5523 36.5951 21.819 38.5028 20.1692C40.4207 18.5193 41.9571 16.4983 41.3797 15.7043C40.9157 15.1062 36.9664 15.5703 34.8422 17.1376C33.4296 18.1481 31.2332 19.8186 28.9957 21.5406Z" fill="#E3051C"/>
<path d="M65.4877 41.3693C65.4877 41.3693 64.0441 36.6467 59.5071 36.6364C54.9804 36.6467 53.5368 41.3693 53.5368 41.3693H47.9583C47.9583 41.3693 52.5057 35.9249 55.0939 29.4803C58.1563 21.8808 58.2595 14.9618 58.2595 11.1466C58.2595 10.631 58.2491 10.2495 58.0635 10.002C57.7645 9.67205 57.7851 8.98119 57.7851 8.98119V7.42416L58.5791 6.54772C58.8988 6.21775 59.1049 5.75372 59.1049 5.26908V3.82549C59.1049 3.82549 59.2493 3.6502 59.4968 3.63989C59.7443 3.6502 59.8989 3.82549 59.8989 3.82549V5.26908C59.8989 5.75372 60.1052 6.20744 60.4248 6.54772L61.2188 7.42416V8.98119C61.2188 8.98119 61.2291 9.67205 60.9404 10.002C60.7445 10.2495 60.7342 10.631 60.7342 11.1466C60.7342 14.9618 60.8373 21.8808 63.9101 29.4803C66.5189 35.9249 71.0559 41.3693 71.0559 41.3693H65.4877Z" fill="white"/>
<path d="M60.2701 27.4594H58.7544C58.4656 27.4594 58.2801 27.5625 58.1976 27.944C58.1873 27.9852 57.4139 31.5839 56.7952 33.7183H62.2396C61.6209 31.5839 60.8476 27.9852 60.8373 27.944C60.7342 27.5625 60.5485 27.4594 60.2701 27.4594Z" fill="#E3051C"/>
<path d="M268.63 31.24C268.63 32.06 268.57 32.67 268.46 33.12C268.34 33.56 268 34.09 267.47 34.63C267.17 34.96 266.79 35.23 266.33 35.44C265.87 35.65 265.34 35.76 264.74 35.76C263.55 35.76 262.7 35.37 262.2 34.61C261.69 33.87 261.44 32.86 261.44 31.66V16.63H255.18V32.93C255.18 34.11 255.32 35.17 255.6 36.17C255.88 37.17 256.31 38.03 256.9 38.77C257.47 39.52 258.23 40.09 259.16 40.5C260.08 40.93 261.18 41.13 262.46 41.13C263.99 41.13 265.27 40.8 266.31 40.12C267.35 39.47 268.28 38.57 269.08 37.45L269.09 40.38H274.9V16.63H268.64V31.24" fill="#E3051C"/>
<path d="M249.75 27.6099C249.42 26.7299 248.98 25.9699 248.43 25.3599C247.88 24.7199 247.23 24.2199 246.5 23.8499C245.76 23.4899 244.98 23.2499 244.14 23.1199V23.0299C244.77 22.9099 245.37 22.6799 245.97 22.3199C246.57 21.9999 247.11 21.5599 247.58 21.0199C248.06 20.4799 248.44 19.8699 248.74 19.1399C249.04 18.4599 249.18 17.6799 249.18 16.8799C249.18 15.1799 248.82 13.8099 248.11 12.7799C247.39 11.7099 246.49 10.9199 245.39 10.3399C244.29 9.79994 243.07 9.40994 241.71 9.21994C240.36 9.01994 239.05 8.92993 237.77 8.92993H226.16V40.3599H237.29C238.78 40.3599 240.29 40.2199 241.82 39.9399C243.35 39.6799 244.75 39.1999 246 38.4599C247.25 37.7399 248.27 36.7299 249.06 35.4799C249.85 34.2099 250.24 32.5699 250.24 30.6099C250.24 29.4999 250.08 28.5199 249.75 27.6099ZM232.75 14.1099H236.56C237.12 14.1099 238.02 14.1299 238.73 14.1599C239.45 14.1899 240.11 14.3199 240.73 14.5499C241.36 14.7799 241.88 15.1299 242.31 15.6299C242.74 16.1499 242.96 16.8599 242.96 17.7899C242.96 18.6699 242.75 19.3799 242.33 19.8799C241.92 20.3599 241.41 20.7199 240.8 20.9499C240.18 21.1799 239.54 21.2999 238.84 21.3399C238.15 21.3699 237.5 21.3899 236.9 21.3899H232.75V14.1099ZM243.13 32.8899C242.79 33.5099 242.33 33.9899 241.77 34.3199C241.21 34.6499 240.55 34.8799 239.81 34.9799C239.07 35.0899 238.3 35.1399 237.49 35.1399H232.76V26.3799H237.14C237.71 26.3799 238.36 26.4099 239.13 26.4699C239.89 26.5399 240.6 26.6999 241.28 26.9499C241.94 27.2099 242.51 27.5799 242.97 28.1399C243.43 28.6899 243.65 29.4399 243.65 30.4399C243.64 31.4699 243.47 32.3099 243.13 32.8899Z" fill="#E3051C"/>
<path d="M296.29 30.68C296.01 29.93 295.61 29.2599 295.08 28.7299C294.56 28.15 293.94 27.67 293.22 27.29C292.51 26.91 291.73 26.55 290.9 26.22L288.8 25.47C288.5 25.39 288.19 25.27 287.86 25.11C287.54 24.97 287.24 24.78 286.95 24.57C286.67 24.36 286.44 24.13 286.26 23.86C286.08 23.61 286 23.29 286 22.94C286 22.4 286.23 21.89 286.69 21.37C287.15 20.85 288.02 20.58 289.3 20.58C290.07 20.58 290.9 20.71 291.78 20.96C292.65 21.22 293.43 21.58 294.12 22.02L296.03 17.4C295.41 17.07 294.56 16.75 293.49 16.39C292.42 16.02 291.13 15.85 289.61 15.85C288.21 15.85 286.94 16.0699 285.79 16.4799C284.65 16.8799 283.66 17.45 282.82 18.2C281.98 18.91 281.35 19.78 280.9 20.74C280.46 21.74 280.24 22.78 280.24 23.9C280.24 25.65 280.7 27.05 281.64 28.02C282.58 29.02 283.82 29.81 285.37 30.41L287.33 31.15C287.66 31.27 288.03 31.4 288.43 31.55C288.83 31.7 289.21 31.89 289.57 32.12C289.93 32.34 290.22 32.6 290.48 32.9C290.73 33.22 290.86 33.6 290.86 34.06C290.86 34.51 290.75 34.91 290.53 35.22C290.3 35.54 290.01 35.7899 289.66 35.9799C289.3 36.17 288.91 36.3 288.47 36.37C288.04 36.45 287.61 36.4799 287.2 36.4799C286.24 36.4799 285.27 36.31 284.27 35.99C283.27 35.68 282.39 35.24 281.61 34.7L279.69 39.3C280.37 39.7 281.33 40.1 282.57 40.52C283.8 40.92 285.18 41.12 286.7 41.12C288.25 41.12 289.65 40.93 290.9 40.55C292.15 40.15 293.19 39.61 294.04 38.93C294.89 38.21 295.54 37.4 296 36.42C296.46 35.47 296.69 34.39 296.69 33.25C296.71 32.28 296.57 31.41 296.29 30.68Z" fill="#E3051C"/>
<path d="M118.04 38.02C117.42 37.16 116.82 36.25 116.18 35.32C115.54 34.38 114.93 33.45 114.28 32.52C113.64 31.59 113.06 30.71 112.52 29.87C111.98 29.04 111.51 28.3 111.07 27.61C110.63 26.97 110.3 26.43 110.11 26.03C110.79 25.92 110.9 25.68 111.71 25.34C112.51 24.99 113.26 24.48 113.93 23.82C114.62 23.17 115.21 22.35 115.65 21.4C116.13 20.42 116.36 19.3 116.36 17.99C116.36 16.55 116.13 15.29 115.65 14.3C115.21 13.3 114.6 12.45 113.85 11.77C113.12 11.13 112.25 10.58 111.29 10.19C110.3 9.82997 109.34 9.53995 108.35 9.35995C107.35 9.17995 106.38 9.05996 105.39 9.01996C104.44 8.96996 103.55 8.94995 102.8 8.94995H92.77V40.38H99.39V27.81H102.23C102.59 27.81 103.02 27.91 103.48 28.11C103.96 28.31 104.46 28.84 104.95 29.68L111.24 40.38H119.68C119.18 39.68 118.66 38.91 118.04 38.02ZM109.22 20.5099C108.86 21.0899 108.42 21.53 107.87 21.84C107.31 22.13 106.69 22.36 106 22.47C105.29 22.59 104.64 22.65 103.97 22.65H99.4V14.31H103.57C104.26 14.31 104.96 14.35 105.69 14.45C106.43 14.53 107.08 14.72 107.71 15.02C108.32 15.27 108.8 15.6899 109.2 16.2299C109.59 16.78 109.79 17.48 109.79 18.39C109.77 19.23 109.58 19.9599 109.22 20.5099Z" fill="#E3051C"/>
<path d="M142.92 23.69C142.47 22.12 141.77 20.76 140.86 19.6C139.93 18.44 138.75 17.48 137.35 16.8C135.94 16.09 134.25 15.74 132.28 15.74C130.34 15.74 128.64 16.09 127.21 16.8C125.76 17.48 124.55 18.43 123.61 19.58C122.65 20.73 121.94 22.09 121.46 23.62C120.98 25.14 120.74 26.76 120.74 28.44C120.74 30.14 120.97 31.76 121.41 33.29C121.87 34.83 122.54 36.19 123.48 37.38C124.38 38.55 125.58 39.48 126.99 40.18C128.4 40.89 130.09 41.23 132.06 41.23C134 41.23 135.69 40.89 137.13 40.18C138.57 39.48 139.78 38.56 140.73 37.41C141.68 36.23 142.39 34.9 142.88 33.36C143.35 31.84 143.58 30.23 143.58 28.54C143.58 26.84 143.36 25.23 142.92 23.69ZM136.84 31.2C136.69 32.14 136.43 32.97 136.06 33.74C135.68 34.48 135.17 35.11 134.51 35.62C133.85 36.1 133.02 36.34 132.05 36.34C131.06 36.34 130.25 36.08 129.62 35.58C129.01 35.05 128.51 34.4 128.15 33.64C127.79 32.85 127.56 32.01 127.45 31.05C127.33 30.12 127.27 29.22 127.27 28.41C127.27 27.56 127.34 26.7 127.48 25.76C127.63 24.86 127.89 24 128.26 23.26C128.64 22.48 129.16 21.88 129.8 21.38C130.47 20.88 131.28 20.63 132.28 20.63C133.25 20.63 134.07 20.89 134.69 21.42C135.32 21.95 135.82 22.58 136.18 23.36C136.53 24.12 136.76 24.99 136.88 25.91C137 26.86 137.06 27.73 137.06 28.58C137.07 29.4 136.99 30.3 136.84 31.2Z" fill="#E3051C"/>
<path d="M195.9 28.7299C195.38 28.15 194.77 27.67 194.05 27.29C193.33 26.91 192.56 26.55 191.73 26.22L189.64 25.47C189.34 25.39 189.03 25.27 188.71 25.11C188.38 24.97 188.08 24.78 187.79 24.57C187.51 24.36 187.28 24.13 187.1 23.86C186.92 23.61 186.83 23.29 186.83 22.94C186.83 22.4 187.06 21.89 187.53 21.37C187.99 20.85 188.85 20.58 190.14 20.58C190.91 20.58 191.74 20.71 192.61 20.96C193.49 21.22 194.27 21.58 194.95 22.02L196.87 17.4C196.25 17.07 195.39 16.75 194.33 16.39C193.25 16.02 191.96 15.85 190.44 15.85C189.04 15.85 187.77 16.0699 186.62 16.4799C185.48 16.8799 184.49 17.45 183.65 18.2C182.82 18.91 182.18 19.78 181.73 20.74C181.28 21.74 181.06 22.78 181.06 23.9C181.06 25.65 181.53 27.05 182.47 28.02C183.4 29.02 184.65 29.81 186.2 30.41L188.17 31.15C188.5 31.27 188.86 31.4 189.26 31.55C189.67 31.7 190.05 31.89 190.41 32.12C190.77 32.34 191.07 32.6 191.32 32.9C191.58 33.22 191.7 33.6 191.7 34.06C191.7 34.51 191.59 34.91 191.36 35.22C191.14 35.54 190.85 35.7899 190.49 35.9799C190.14 36.17 189.74 36.3 189.3 36.37C188.87 36.45 188.45 36.4799 188.04 36.4799C187.08 36.4799 186.11 36.31 185.11 35.99C184.11 35.68 183.23 35.24 182.45 34.7L180.53 39.3C181.22 39.7 182.18 40.1 183.41 40.52C184.65 40.92 186.02 41.12 187.54 41.12C189.09 41.12 190.48 40.93 191.73 40.55C192.98 40.15 194.03 39.61 194.88 38.93C195.72 38.21 196.38 37.4 196.84 36.42C197.3 35.47 197.53 34.39 197.53 33.25C197.53 32.28 197.39 31.41 197.11 30.68C196.83 29.93 196.43 29.2599 195.9 28.7299Z" fill="#E3051C"/>
<path d="M175.6 28.7299C175.08 28.15 174.46 27.67 173.75 27.29C173.03 26.91 172.27 26.55 171.43 26.22L169.33 25.47C169.03 25.39 168.72 25.27 168.39 25.11C168.06 24.97 167.76 24.78 167.48 24.57C167.19 24.36 166.97 24.13 166.78 23.86C166.6 23.61 166.51 23.29 166.51 22.94C166.51 22.4 166.75 21.89 167.21 21.37C167.67 20.85 168.54 20.58 169.82 20.58C170.59 20.58 171.42 20.71 172.3 20.96C173.17 21.22 173.96 21.58 174.64 22.02L176.56 17.4C175.94 17.07 175.09 16.75 174.02 16.39C172.95 16.02 171.65 15.85 170.13 15.85C168.74 15.85 167.46 16.0699 166.32 16.4799C165.17 16.8799 164.18 17.45 163.35 18.2C162.52 18.91 161.88 19.78 161.43 20.74C160.99 21.74 160.76 22.78 160.76 23.9C160.76 25.65 161.23 27.05 162.17 28.02C163.1 29.02 164.35 29.81 165.9 30.41L167.86 31.15C168.19 31.27 168.56 31.4 168.96 31.55C169.35 31.7 169.73 31.89 170.09 32.12C170.45 32.34 170.76 32.6 171.01 32.9C171.26 33.22 171.39 33.6 171.39 34.06C171.39 34.51 171.28 34.91 171.05 35.22C170.83 35.54 170.54 35.7899 170.18 35.9799C169.83 36.17 169.43 36.3 169 36.37C168.57 36.45 168.14 36.4799 167.73 36.4799C166.78 36.4799 165.8 36.31 164.8 35.99C163.81 35.68 162.91 35.24 162.15 34.7L160.23 39.3C160.91 39.7 161.88 40.1 163.1 40.52C164.34 40.92 165.72 41.12 167.24 41.12C168.79 41.12 170.18 40.93 171.44 40.55C172.69 40.15 173.73 39.61 174.59 38.93C175.44 38.21 176.1 37.4 176.55 36.42C177.01 35.47 177.24 34.39 177.24 33.25C177.24 32.28 177.1 31.41 176.81 30.68C176.52 29.93 176.12 29.2599 175.6 28.7299Z" fill="#E3051C"/>
<path d="M151.8 6.14001C149.69 6.14001 147.97 7.76001 147.97 9.76001C147.97 11.73 149.69 13.36 151.8 13.36C153.92 13.36 155.64 11.73 155.64 9.76001C155.65 7.76001 153.93 6.14001 151.8 6.14001Z" fill="#E3051C"/>
<path d="M154.89 16.62H148.63V40.37H154.89V16.62Z" fill="#E3051C"/>
<path d="M213.45 41.7C211.98 46.28 209.27 49.44 202.87 49.92L202.29 45.12C204.33 45.17 207.09 44.41 207.76 41.74L199.67 16.62H206.52L209.81 30.09C210.34 32.22 210.79 34.54 210.88 35.25H210.97C211.24 34.01 211.59 32.18 212.13 30.09L215.55 16.62H221.42L213.45 41.7Z" fill="#E3051C"/>
</svg>
