<svg width="128" height="128" viewBox="0 0 128 128" fill="none" xmlns="http://www.w3.org/2000/svg">
<path d="M0 0.00015989H128V127.997H0V0.00015989Z" fill="#1F3C90"/>
<path d="M24.5366 83.8068C24.5366 84.1937 24.8164 84.6185 25.1825 84.7428L39.488 89.9096C39.8575 90.0409 40.1614 89.844 40.1614 89.4572V74.8789C40.1614 74.492 39.8851 74.088 39.519 73.9498L25.2136 68.7761C24.8475 68.6448 24.5366 68.8555 24.5366 69.2423V83.8068Z" fill="#231F20"/>
<path d="M4.13785 76.6256C4.13439 77.009 4.4176 77.4303 4.7837 77.565L19.0892 82.7249C19.4553 82.8631 19.7627 82.6628 19.7627 82.269V67.6907C19.7661 67.3108 19.4864 66.8894 19.1203 66.7547L4.80788 61.5948C4.44523 61.4636 4.13785 61.6708 4.13785 62.0438V76.6256Z" fill="#231F20"/>
<path d="M20.5395 41.8508L6.2306 36.6909C5.8645 36.5596 5.45696 36.715 5.31881 37.057L4.28959 39.4677C4.2585 39.5471 4.22397 39.63 4.22397 39.7094V41.6643C4.2136 41.6988 4.22397 41.7472 4.22397 41.7886V51.3935C4.22397 51.7354 4.49336 52.1257 4.85946 52.257L19.1684 57.4134C19.5345 57.5447 19.8522 57.3685 19.8522 57.0335L19.8488 48.6409L19.8522 45.232C19.8799 45.1906 19.8971 45.1595 19.9179 45.1146L20.9436 42.697C21.0818 42.3585 20.9022 41.9855 20.5395 41.8508Z" fill="#231F20"/>
<path d="M40.7328 49.1167L26.4204 43.943C26.0578 43.8117 25.6468 43.981 25.5052 44.3091L24.4863 46.7302C24.4345 46.8372 24.4276 46.9616 24.4518 47.0721V48.9164C24.4414 48.9475 24.438 48.9855 24.438 49.0165L24.4518 58.6215C24.4518 58.9668 24.7247 59.3502 25.0907 59.4814L39.3962 64.6586C39.7623 64.7899 40.0697 64.6137 40.0697 64.2718V56.0829V54.66V52.4565C40.087 52.4185 40.0973 52.3978 40.1146 52.3632L41.1369 49.956C41.2785 49.621 41.092 49.2376 40.7328 49.1167Z" fill="#231F20"/>
<path d="M108.525 77.3872L101.3 54.4749L88.7938 60.702L96.0156 83.6108L108.525 77.3872Z" fill="#231F20"/>
<path d="M80.8418 91.1929L93.3064 84.9554L86.0846 61.9913L73.62 68.2841L80.8418 91.1929Z" fill="#231F20"/>
<path d="M85.3803 51.2481C73.2783 56.9364 70.7122 60.4005 70.7122 60.4005L72.332 65.3809L100.111 51.4898L98.5806 46.7858C98.5806 46.7858 96.0731 46.209 85.3803 51.2481Z" fill="white"/>
<path d="M70.7982 28.4819L70.9501 28.5406L71.0883 28.627C71.1263 28.6477 71.3231 28.7824 71.6271 29L75.9823 26.724L62.8407 25.6637L70.7982 28.4819Z" fill="#231F20"/>
<path d="M93.3081 84.9554L80.8435 91.1929L73.6217 68.2841L86.0829 61.9913L93.3081 84.9554Z" fill="white"/>
<path d="M101.298 54.4764L108.523 77.3886L96.0171 83.6123L88.7919 60.7035L101.298 54.4764Z" fill="white"/>
<path d="M40.1157 52.3647C40.0985 52.3993 40.0847 52.42 40.0674 52.4545V54.6615V56.081V64.2699C40.0674 64.6152 39.7635 64.7914 39.3974 64.6601L25.0919 59.4829C24.7258 59.3482 24.4495 58.9649 24.4495 58.623L24.4391 49.0146C24.4391 48.9835 24.4426 48.949 24.4495 48.9179V47.0736C24.4288 46.9631 24.4357 46.8353 24.4875 46.7282L25.5063 44.3106C25.6479 43.979 26.0589 43.8098 26.4216 43.9445L40.734 49.1182C41.0932 49.2391 41.2797 49.6225 41.1381 49.9575L40.1157 52.3647Z" fill="white"/>
<path d="M19.9185 45.1156C19.8977 45.1605 19.877 45.1881 19.8494 45.233V48.6419V57.0311C19.8494 57.3696 19.5351 57.5457 19.1656 57.4145L4.86007 52.2545C4.49397 52.1233 4.22458 51.7365 4.22458 51.3911V41.7896C4.22458 41.7447 4.21421 41.6998 4.22458 41.6653V39.7105C4.22458 39.631 4.25911 39.5481 4.2902 39.4652L5.31596 37.058C5.45757 36.7126 5.86511 36.5572 6.23121 36.6919L20.5402 41.8518C20.9028 41.9865 21.0824 42.3595 20.9442 42.698L19.9185 45.1156Z" fill="white"/>
<path d="M4.80861 61.5964L19.121 66.7529C19.4871 66.8876 19.7669 67.309 19.7634 67.6923V82.2672C19.7634 82.6644 19.4526 82.8613 19.0899 82.7231L4.78443 77.5666C4.41834 77.4319 4.13513 77.0106 4.13858 76.6272V62.0454C4.13858 61.669 4.44597 61.4652 4.80861 61.5964Z" fill="white"/>
<path d="M25.2142 68.7767L39.5197 73.9505C39.8858 74.0852 40.1621 74.4892 40.1621 74.8795V89.4544C40.1621 89.8447 39.8547 90.0381 39.4886 89.9068L25.1831 84.7435C24.817 84.6191 24.5372 84.1943 24.5372 83.8075V69.243C24.5372 68.8527 24.8481 68.6455 25.2142 68.7767Z" fill="white"/>
<path d="M124.25 113.085L116.762 110.411L103.414 117.184L110.857 119.806L124.25 113.085Z" fill="white"/>
<path d="M96.5358 124.512L101.824 124.526L107.726 121.552L100.283 118.931L92.3257 122.885L96.6429 124.526L96.5358 124.512Z" fill="white"/>
<path d="M113.731 124.512L116.141 124.526L114.705 124.018L113.731 124.512Z" fill="white"/>
<path d="M124.51 124.512L124.52 119.065L118.245 122.27L124.406 124.54L124.51 124.512Z" fill="white"/>
<path d="M124.495 106.742L120.761 108.679L124.509 109.999V106.776L124.495 106.742Z" fill="white"/>
<path d="M3.49681 28.4952L41.6229 41.9959L41.7783 42.0547L41.9165 42.141C42.0822 42.2412 45.5913 44.5414 47.2905 47.6808C48.2161 48.154 49.2074 48.641 50.24 49.128L69.4878 56.2324L69.474 56.2773C76.4403 52.8753 89.9928 46.1992 94.4136 44.0613L75.1658 37.0363L74.5511 36.8153L74.3231 36.2074C74.1504 35.7481 73.9087 35.2922 73.6185 34.8605L76.1605 33.6447C76.3539 33.9625 76.5301 34.2837 76.6855 34.6118L99.1039 42.9595L99.0935 42.9699C99.9466 43.2704 100.181 43.9128 100.181 43.9128L110.698 76.3056L112.349 79.597L80.7437 95.3704V98.5306L112.867 82.1183V87.2471L115.741 85.8415C116.456 85.4892 117.084 85.7309 117.094 86.3699V90.9012C117.105 91.5436 116.566 92.3483 115.848 92.7075L114.635 93.2912L108.339 96.3616C107.624 96.707 107.003 96.479 106.992 95.8194V91.7543L105.745 92.3622C105.027 92.7075 104.457 93.5123 104.468 94.165L104.492 95.5707L96.5515 99.4355L96.5584 99.8914L96.4859 99.9224L96.5066 101.114C96.517 101.76 95.9471 102.565 95.2322 102.917L93.6711 103.673L87.7203 106.578C87.0053 106.916 86.3906 106.688 86.3802 106.036V102.882C86.3733 102.409 86.6669 101.846 87.1089 101.446L84.7846 102.585C84.0662 102.927 83.5308 103.735 83.5377 104.378V106.288L80.7678 107.914L3.48645 80.6504L3.4899 91.5781L84.7327 120.269L92.6868 116.21L85.4028 113.596L86.2731 110.988L96.2303 114.47L109.572 107.804L103.773 105.745L104.644 103.072L113.223 106.06L119.015 103.128L124.53 105.649L124.51 3.4934H3.4899L3.50372 4.64005L47.9156 20.3788L43.3118 21.7189L3.4899 7.61374L3.49681 28.4952Z" fill="white"/>
<path d="M70.4031 14.7141L72.3821 16.4686L66.0652 18.489L87.8239 23.2207C88.7909 23.421 91.5194 24.0185 91.5194 24.0185C91.5712 24.0358 88.9256 25.3447 87.4578 26.1287L65.219 37.388C64.9254 36.9356 64.2865 36.8699 64.0896 36.642C63.8928 36.4037 64.1691 35.9961 64.7079 35.7198L71.3425 32.3628C71.0041 32.0623 70.6863 31.8067 70.4169 31.603L51.2555 41.5774C50.7167 41.8503 50.1226 41.8986 49.9258 41.6672C49.7358 41.4462 50.0086 41.0283 49.9396 40.2961L68.4863 30.6394L51.9669 24.7818L47.9537 24.4571C47.7706 24.4813 47.6256 24.4675 47.515 24.4295L42.1306 26.1529L43.519 23.2656L70.4031 14.7141Z" fill="#1F3C90"/>
<path d="M71.6259 29.0015C71.3255 28.7839 71.1251 28.6457 71.0871 28.6285L70.949 28.5387L70.797 28.4834L62.843 25.6617L75.9811 26.7254L71.6259 29.0015Z" fill="white"/>
<path d="M55.7552 23.1554C55.7552 23.1554 79.1786 25.0895 79.2166 25.1171C80.2631 25.2622 82.4044 25.3934 82.4044 25.3934C82.4044 25.3934 80.9262 26.1118 80.3874 26.4054L73.1138 30.1803C73.4074 30.4359 73.7044 30.7122 74.0014 31.0127L86.2519 24.7994L63.8197 19.9365C63.5123 19.7914 63.4191 19.5048 63.5883 19.2872L53.7347 22.437L55.7552 23.1554Z" fill="white"/>
</svg>
