<svg width="128" height="129" viewBox="0 0 128 129" fill="none" xmlns="http://www.w3.org/2000/svg">
<path d="M0 0.416664H128V128.413H0V0.416664Z" fill="#1F3C90"/>
<path d="M24.5366 84.2233C24.5366 84.6102 24.8164 85.035 25.1825 85.1593L39.488 90.3261C39.8575 90.4574 40.1614 90.2605 40.1614 89.8737V75.2954C40.1614 74.9086 39.8851 74.5045 39.519 74.3663L25.2136 69.1926C24.8475 69.0613 24.5366 69.272 24.5366 69.6588V84.2233Z" fill="#231F20"/>
<path d="M4.13785 77.0421C4.13439 77.4255 4.4176 77.8468 4.7837 77.9815L19.0892 83.1414C19.4553 83.2796 19.7627 83.0793 19.7627 82.6855V68.1072C19.7661 67.7273 19.4864 67.3059 19.1203 67.1712L4.80788 62.0113C4.44523 61.8801 4.13785 62.0873 4.13785 62.4603V77.0421Z" fill="#231F20"/>
<path d="M20.5395 42.2673L6.2306 37.1074C5.8645 36.9761 5.45696 37.1315 5.31881 37.4735L4.28959 39.8842C4.2585 39.9636 4.22397 40.0465 4.22397 40.126V42.0808C4.2136 42.1153 4.22397 42.1637 4.22397 42.2051V51.81C4.22397 52.152 4.49336 52.5422 4.85946 52.6735L19.1684 57.8299C19.5345 57.9612 19.8522 57.785 19.8522 57.45L19.8488 49.0574L19.8522 45.6485C19.8799 45.6071 19.8971 45.576 19.9179 45.5311L20.9436 43.1135C21.0818 42.775 20.9022 42.402 20.5395 42.2673Z" fill="#231F20"/>
<path d="M40.7328 49.5332L26.4204 44.3595C26.0578 44.2282 25.6468 44.3975 25.5052 44.7256L24.4863 47.1467C24.4345 47.2537 24.4276 47.3781 24.4518 47.4886V49.3329C24.4414 49.364 24.438 49.402 24.438 49.433L24.4518 59.038C24.4518 59.3833 24.7247 59.7667 25.0907 59.8979L39.3962 65.0751C39.7623 65.2064 40.0697 65.0302 40.0697 64.6883V56.4994V55.0765V52.873C40.087 52.835 40.0973 52.8143 40.1146 52.7797L41.1369 50.3725C41.2785 50.0375 41.092 49.6541 40.7328 49.5332Z" fill="#231F20"/>
<path d="M108.525 77.8037L101.3 54.8914L88.7938 61.1185L96.0156 84.0273L108.525 77.8037Z" fill="#231F20"/>
<path d="M80.8418 91.6094L93.3064 85.3719L86.0846 62.4078L73.62 68.7006L80.8418 91.6094Z" fill="#231F20"/>
<path d="M85.3803 51.6646C73.2783 57.3529 70.7122 60.817 70.7122 60.817L72.332 65.7974L100.111 51.9063L98.5806 47.2023C98.5806 47.2023 96.0731 46.6255 85.3803 51.6646Z" fill="white"/>
<path d="M70.7982 28.8984L70.9501 28.9572L71.0883 29.0435C71.1263 29.0642 71.3231 29.1989 71.6271 29.4165L75.9823 27.1405L62.8407 26.0802L70.7982 28.8984Z" fill="#231F20"/>
<path d="M93.3081 85.3719L80.8435 91.6094L73.6217 68.7006L86.0829 62.4078L93.3081 85.3719Z" fill="white"/>
<path d="M101.298 54.8929L108.523 77.8051L96.0171 84.0288L88.7919 61.12L101.298 54.8929Z" fill="white"/>
<path d="M40.1157 52.7812C40.0985 52.8158 40.0847 52.8365 40.0674 52.871V55.078V56.4975V64.6864C40.0674 65.0317 39.7635 65.2079 39.3974 65.0766L25.0919 59.8994C24.7258 59.7648 24.4495 59.3814 24.4495 59.0395L24.4391 49.4311C24.4391 49.4 24.4426 49.3655 24.4495 49.3344V47.4901C24.4288 47.3796 24.4357 47.2518 24.4875 47.1447L25.5063 44.7271C25.6479 44.3955 26.0589 44.2263 26.4216 44.361L40.734 49.5347C41.0932 49.6556 41.2797 50.039 41.1381 50.374L40.1157 52.7812Z" fill="white"/>
<path d="M19.9185 45.5321C19.8977 45.577 19.877 45.6046 19.8494 45.6495V49.0584V57.4476C19.8494 57.7861 19.5351 57.9622 19.1656 57.831L4.86007 52.671C4.49397 52.5398 4.22458 52.153 4.22458 51.8076V42.2061C4.22458 42.1612 4.21421 42.1163 4.22458 42.0818V40.127C4.22458 40.0475 4.25911 39.9646 4.2902 39.8818L5.31596 37.4745C5.45757 37.1291 5.86511 36.9737 6.23121 37.1084L20.5402 42.2683C20.9028 42.403 21.0824 42.776 20.9442 43.1145L19.9185 45.5321Z" fill="white"/>
<path d="M4.80861 62.0129L19.121 67.1694C19.4871 67.3041 19.7669 67.7255 19.7634 68.1088V82.6837C19.7634 83.0809 19.4526 83.2778 19.0899 83.1396L4.78443 77.9831C4.41834 77.8484 4.13513 77.4271 4.13858 77.0437V62.4619C4.13858 62.0855 4.44597 61.8817 4.80861 62.0129Z" fill="white"/>
<path d="M25.2142 69.1932L39.5197 74.367C39.8858 74.5017 40.1621 74.9057 40.1621 75.296V89.8709C40.1621 90.2612 39.8547 90.4546 39.4886 90.3233L25.1831 85.16C24.817 85.0356 24.5372 84.6108 24.5372 84.224V69.6595C24.5372 69.2692 24.8481 69.062 25.2142 69.1932Z" fill="white"/>
<path d="M124.25 113.501L116.762 110.828L103.414 117.601L110.857 120.222L124.25 113.501Z" fill="white"/>
<path d="M96.5358 124.929L101.824 124.942L107.726 121.969L100.283 119.347L92.3257 123.302L96.6429 124.942L96.5358 124.929Z" fill="white"/>
<path d="M113.731 124.929L116.141 124.942L114.705 124.435L113.731 124.929Z" fill="white"/>
<path d="M124.51 124.928L124.52 119.482L118.245 122.687L124.406 124.956L124.51 124.928Z" fill="white"/>
<path d="M124.495 107.158L120.761 109.096L124.509 110.415V107.193L124.495 107.158Z" fill="white"/>
<path d="M3.49681 28.9117L41.6229 42.4124L41.7783 42.4712L41.9165 42.5575C42.0822 42.6577 45.5913 44.9579 47.2905 48.0973C48.2161 48.5705 49.2074 49.0575 50.24 49.5445L69.4878 56.6489L69.474 56.6938C76.4403 53.2918 89.9928 46.6157 94.4136 44.4778L75.1658 37.4528L74.5511 37.2318L74.3231 36.6239C74.1504 36.1646 73.9087 35.7087 73.6185 35.277L76.1605 34.0612C76.3539 34.379 76.5301 34.7002 76.6855 35.0283L99.1039 43.376L99.0935 43.3864C99.9466 43.6869 100.181 44.3293 100.181 44.3293L110.698 76.7221L112.349 80.0136L80.7437 95.7869V98.9471L112.867 82.5348V87.6636L115.741 86.258C116.456 85.9057 117.084 86.1474 117.094 86.7864V91.3177C117.105 91.9601 116.566 92.7648 115.848 93.124L114.635 93.7077L108.339 96.7781C107.624 97.1235 107.003 96.8955 106.992 96.2359V92.1708L105.745 92.7787C105.027 93.124 104.457 93.9288 104.468 94.5815L104.492 95.9872L96.5515 99.852L96.5584 100.308L96.4859 100.339L96.5066 101.53C96.517 102.176 95.9471 102.981 95.2322 103.333L93.6711 104.09L87.7203 106.994C87.0053 107.333 86.3906 107.105 86.3802 106.452V103.299C86.3733 102.826 86.6669 102.263 87.1089 101.862L84.7846 103.002C84.0662 103.344 83.5308 104.152 83.5377 104.794V106.704L80.7678 108.331L3.48645 81.067L3.4899 91.9947L84.7327 120.685L92.6868 116.627L85.4028 114.012L86.2731 111.405L96.2303 114.886L109.572 108.22L103.773 106.162L104.644 103.489L113.223 106.476L119.015 103.544L124.53 106.065L124.51 3.90991H3.4899L3.50372 5.05656L47.9156 20.7953L43.3118 22.1354L3.4899 8.03025L3.49681 28.9117Z" fill="white"/>
<path d="M70.4031 15.1306L72.3821 16.8851L66.0652 18.9055L87.8239 23.6372C88.7909 23.8375 91.5194 24.435 91.5194 24.435C91.5712 24.4523 88.9256 25.7612 87.4578 26.5452L65.219 37.8045C64.9254 37.3521 64.2865 37.2864 64.0896 37.0585C63.8928 36.8202 64.1691 36.4126 64.7079 36.1363L71.3425 32.7793C71.0041 32.4788 70.6863 32.2232 70.4169 32.0195L51.2555 41.9939C50.7167 42.2668 50.1226 42.3151 49.9258 42.0837C49.7358 41.8627 50.0086 41.4448 49.9396 40.7126L68.4863 31.0559L51.9669 25.1983L47.9537 24.8736C47.7706 24.8978 47.6256 24.884 47.515 24.846L42.1306 26.5694L43.519 23.6821L70.4031 15.1306Z" fill="#1F3C90"/>
<path d="M71.6259 29.418C71.3255 29.2004 71.1251 29.0622 71.0871 29.045L70.949 28.9552L70.797 28.8999L62.843 26.0782L75.9811 27.1419L71.6259 29.418Z" fill="white"/>
<path d="M55.7552 23.5719C55.7552 23.5719 79.1786 25.506 79.2166 25.5336C80.2631 25.6787 82.4044 25.8099 82.4044 25.8099C82.4044 25.8099 80.9262 26.5283 80.3874 26.8219L73.1138 30.5968C73.4074 30.8524 73.7044 31.1287 74.0014 31.4292L86.2519 25.2159L63.8197 20.353C63.5123 20.2079 63.4191 19.9213 63.5883 19.7037L53.7347 22.8535L55.7552 23.5719Z" fill="white"/>
</svg>
