<svg width="50" height="50" viewBox="0 0 50 50" fill="none" xmlns="http://www.w3.org/2000/svg">
<rect x="1" y="1" width="48" height="48" rx="10" fill="white"/>
<path d="M38.75 50H11.25C5.04 50 0 44.96 0 38.75V11.25C0 5.04 5.04 0 11.25 0H38.75C44.96 0 50 5.04 50 11.25V38.75C50 44.97 44.97 50 38.75 50ZM46.75 38.75V11.25C46.75 6.83 43.17 3.25 38.75 3.25H11.25C6.83 3.25 3.25 6.83 3.25 11.25V38.75C3.25 43.17 6.83 46.75 11.25 46.75H38.75C43.17 46.75 46.75 43.17 46.75 38.75Z" fill="#1F3C90"/>
<path d="M17.37 16.16H14.18H14H12.19H11H7.63C6.76 16.16 6.26001 16.97 6.26001 17.72C6.26001 18.4 6.75002 19.26 7.61002 19.28H9.64001H10.83V32.28C10.83 33.15 11.71 33.59 12.52 33.59C13.46 33.59 14.21 33.15 14.21 32.28V26.59V19.27H15.4H17.43C18.29 19.25 18.78 18.39 18.78 17.71C18.75 16.97 18.25 16.16 17.37 16.16Z" fill="#1F3C90"/>
<path d="M29.72 31.9999C29.72 31.2499 29.22 30.4399 28.34 30.4399H23.59V26.1299H27.53C28.4 26.1299 28.9 25.3799 28.9 24.6899C28.9 23.9399 28.4 23.2499 27.53 23.2499H23.59V19.3099H27.97C28.84 19.3099 29.34 18.4399 29.34 17.7499C29.34 16.9999 28.84 16.1899 27.97 16.1899H21.59C20.72 16.1899 20.22 16.8799 20.22 17.6299V32.2599C20.22 33.1299 21.09 33.5699 21.91 33.5699H28.35C29.22 33.5699 29.72 32.6899 29.72 31.9999Z" fill="#1F3C90"/>
<path d="M39.41 25.9399C41.04 25.1299 42.41 23.6899 42.41 21.1299C42.41 17.7599 39.91 16.1899 37.47 16.1899H32.78C31.9 16.1899 31.41 16.8799 31.41 17.6299V32.3199C31.41 33.1899 32.29 33.6299 33.1 33.6299C34.04 33.6299 34.79 33.1899 34.79 32.3199V26.6299H36.23L39.04 32.9399C39.29 33.4399 39.73 33.6299 40.23 33.6299C41.23 33.6299 42.67 32.6899 42.1 31.5699L39.41 25.9399ZM35.79 24.1299H34.79V19.0699H35.98C37.54 19.0699 38.92 19.7599 38.92 21.5099C38.91 23.6299 36.98 24.1299 35.79 24.1299Z" fill="#1F3C90"/>
</svg>
