<svg width="50" height="50" viewBox="0 0 50 50" fill="none" xmlns="http://www.w3.org/2000/svg">
<rect x="1" y="1" width="48" height="48" rx="10" fill="white"/>
<path d="M38.75 50H11.25C5.04 50 0 44.96 0 38.75V11.25C0 5.04 5.04 0 11.25 0H38.75C44.96 0 50 5.04 50 11.25V38.75C49.99 44.97 44.96 50 38.75 50ZM46.74 38.75V11.25C46.74 6.83 43.16 3.25 38.74 3.25H11.25C6.83 3.25 3.25 6.83 3.25 11.25V38.75C3.25 43.16 6.83 46.74 11.25 46.74H38.75C43.16 46.74 46.73 43.17 46.74 38.75Z" fill="#1F3C90"/>
<path d="M17.01 16.16H7.26001C6.38001 16.16 5.89001 16.97 5.89001 17.72C5.89001 18.4 6.38002 19.26 7.24002 19.28H10.45V32.28C10.45 33.16 11.33 33.59 12.14 33.59C13.08 33.59 13.83 33.15 13.83 32.28V19.28H17.04C17.9 19.26 18.39 18.4 18.39 17.72C18.38 16.97 17.88 16.16 17.01 16.16Z" fill="#1F3C90"/>
<path d="M41.31 16.18C40.81 16.22 40.39 16.56 40.24 17.04L39.41 20.09L37.23 27.94L35.05 20.09L34.22 17.04C34.07 16.56 33.64 16.22 33.15 16.18C32.16 16.03 30.6 16.74 30.99 17.94L31.97 21.12L35.18 31.55C35.18 31.55 35.51 32.59 35.64 32.92C35.84 33.42 36.51 33.61 37 33.6H37.47C37.96 33.6 38.63 33.42 38.83 32.92C38.97 32.58 39.29 31.55 39.29 31.55L42.5 21.12L43.48 17.94C43.86 16.75 42.29 16.03 41.31 16.18Z" fill="#1F3C90"/>
<path d="M29.98 24.04C28.74 24.02 27.4 24 26.04 24.06C25.71 24.1 25.4 24.24 25.16 24.47C24.63 24.97 24.75 25.62 24.94 26.09C25.17 26.66 25.71 26.8 26.12 26.81C26.47 26.82 27.53 26.83 27.53 26.83H27.66V26.95C27.66 26.97 27.65 27.44 27.65 27.44C27.62 27.94 27.53 28.43 27.39 28.91C27.12 29.67 26.51 30.17 25.51 30.44C24.57 30.71 23.56 30.57 22.73 30.05C22.05 29.59 21.62 28.85 21.54 28.04C21.47 27.48 21.33 25.3 21.39 24.84V24.29V23.05C21.41 22.34 21.48 21.42 21.92 20.58C22.27 19.94 22.86 19.47 23.56 19.29C24.42 19.03 25.36 19.12 26.16 19.54C26.58 19.81 26.95 20.14 27.27 20.52C27.36 20.62 27.45 20.71 27.53 20.8C28.1 21.4 29.01 21.5 29.7 21.04C30.34 20.59 30.55 19.73 30.18 19.04C29.5 17.68 28.31 16.82 26.55 16.39C25.89 16.23 25.22 16.15 24.55 16.15C23.67 16.15 22.8 16.29 21.97 16.57C21.09 16.85 20.29 17.36 19.66 18.03C18.71 19.07 18.17 20.39 18.06 21.96C17.96 23.37 17.95 24.76 17.94 26.05C17.94 27.59 18.13 28.8 18.55 29.87C19.26 31.66 20.57 32.82 22.5 33.31C24.35 33.78 26.1 33.64 27.68 32.89C28.59 32.47 29.37 31.8 29.93 30.97C31.06 29.28 31.13 27.39 31.1 25.27C31.08 24.54 30.64 24.05 29.98 24.04Z" fill="#1F3C90"/>
</svg>
