<?xml version="1.0" encoding="utf-8"?>
<!-- Generator: Adobe Illustrator 26.3.1, SVG Export Plug-In . SVG Version: 6.00 Build 0)  -->
<svg version="1.1" id="Layer_1" xmlns="http://www.w3.org/2000/svg" xmlns:xlink="http://www.w3.org/1999/xlink" x="0px" y="0px"
	 viewBox="0 0 283.5 283.5" style="enable-background:new 0 0 283.5 283.5;" xml:space="preserve">
<style type="text/css">
	.st0{fill-rule:evenodd;clip-rule:evenodd;fill:#00A092;}
	.st1{fill:#FFFFFF;}
</style>
<g>
	<path class="st0" d="M283.5,141.7c0,78.3-63.5,141.7-141.7,141.7C63.5,283.5,0,220,0,141.7C0,63.5,63.5,0,141.7,0
		C220,0,283.5,63.5,283.5,141.7"/>
	<path class="st1" d="M82.7,216.7v-118c-9.1,7.2-23.6,14.2-33.6,18.7l-10.2-23c15.7-6.6,34.7-16.6,49.5-27.9h26.2v150.1H82.7z
		 M187.9,220.7c-33.4,0-52.3-20-52.3-42.7c0-20,11.3-32.5,25.7-40c-13-8.1-21-18.3-21-33.8c0-24.9,22.5-42.1,48.3-42.1
		c26.4,0,48.3,13,48.3,38.7c0,14-7.2,25.9-21.3,34.4c13.8,6.6,25.9,19.3,25.9,39.1C241.5,202.8,218.8,220.7,187.9,220.7
		 M185.4,148.4c-9.8,3.8-19.6,14.5-19.6,26.2c0,12.3,8.1,24,22.5,24c14.2,0,22.1-10,22.1-21.9C210.5,163.1,198.2,154.8,185.4,148.4
		 M189,83.8c-11.7,0-19.1,7.2-19.1,17.6c0,12.3,12.3,20,21.9,24c7.9-3.6,16.4-13.4,16.4-22.8C208.2,92.3,201.3,83.8,189,83.8"/>
</g>
</svg>
