<svg xmlns="http://www.w3.org/2000/svg" width="377.953" height="377.953" viewBox="0 0 283.465 283.465">
  <g data-name="Layer 1">
    <clipPath id="a">
      <path transform="matrix(1 0 0 -1 0 283.465)" d="M0 283.465h283.465V0H0z"/>
    </clipPath>
    <g clip-path="url(#a)">
      <path
        d="M0 141.733C0 63.46 63.46 0 141.742 0c78.273 0 141.723 63.46 141.723 141.732 0 78.272-63.45 141.732-141.723 141.732C63.46 283.465 0 220.005 0 141.733"
        fill="#77c696"/>
      <path
        d="M255.361 172.573c0-7.24-4.39-10.572-10.582-12.852l-3.82-1.39c-2.12-.73-5.13-2.03-5.13-4.64 0-1.95 1.39-4.31 6.02-4.31 2.771 0 6.271.98 8.791 2.6l3.5-8.383c-2.28-1.14-6.27-2.85-11.72-2.85-10.172 0-17.094 6.521-17.094 14.732 0 6.351 3.751 9.692 9.361 11.892l3.581 1.381c2.361.89 6.431 2.03 6.431 5.29 0 3.411-3.66 4.471-6.67 4.471-3.432 0-7.412-1.3-10.183-3.25l-3.49 8.381c2.431 1.46 7.321 3.33 12.762 3.33 11.402 0 18.243-5.94 18.243-14.402m-40.682 13.01h-11.4v-43.447h11.4zm.731-54.999c0 3.501-2.44 6.021-6.35 6.021-3.902 0-6.432-2.52-6.432-6.02 0-3.5 2.53-6.02 6.431-6.02 3.91 0 6.351 2.52 6.351 6.02m-33.287 34.501c0-5.86-1.39-14.402-8.632-14.402-2.28 0-4.07.97-5.29 2.2-1.95 1.87-2.192 3.09-2.192 5.611v14.732c0 3.011 1.781 5.701 6.992 5.701 7.321 0 9.122-7.9 9.122-13.842m11.882-1.71c0 9.771-5.142 23.603-19.043 23.603-3.26 0-7.08-1.3-9.283-3.34v1.96h-11.07V125.37h11.481v22.463c2.93-4.23 6.261-7.08 11.792-7.08 11.392 0 16.123 12.131 16.123 22.623m-43.25-72.32c-32.977 57.218-52.96 102.105-52.96 125.7H63.54c0-19.784 5.32-32.536 18.503-57l36.586-68.06H45.676V66.592h105.078z"
        fill="#231f20"/>
    </g>
  </g>
</svg>
