<svg xmlns="http://www.w3.org/2000/svg" width="377.953" height="377.953" viewBox="0 0 283.465 283.465">
  <g data-name="Layer 1">
    <clipPath id="a">
      <path transform="matrix(1 0 0 -1 0 283.465)" d="M0 283.465h283.465V0H0z"/>
    </clipPath>
    <g clip-path="url(#a)">
      <path
        d="M0 141.733C0 63.45 63.45 0 141.732 0c78.283 0 141.733 63.45 141.733 141.732s-63.45 141.732-141.733 141.732C63.45 283.465 0 220.015 0 141.733"
        fill="#8d6539"/>
      <path
        d="M215.388 216.642V66.428h-26.174C174.322 77.7 155.39 87.702 139.637 94.303l10.221 22.973c9.993-4.89 24.464-11.49 33.615-18.722v118.088zm-125.463 0V98.554c-9.15 7.231-23.612 13.832-33.604 18.722L46.1 94.303c15.751-6.6 34.674-16.603 49.566-27.875h26.185v150.214z"
        fill="#fff"/>
    </g>
  </g>
</svg>
