<?xml version="1.0" encoding="utf-8"?>
<!-- Generator: Adobe Illustrator 26.3.1, SVG Export Plug-In . SVG Version: 6.00 Build 0)  -->
<svg version="1.1" id="Layer_1" xmlns="http://www.w3.org/2000/svg" xmlns:xlink="http://www.w3.org/1999/xlink" x="0px" y="0px"
	 viewBox="0 0 283.5 283.5" style="enable-background:new 0 0 283.5 283.5;" xml:space="preserve">
<style type="text/css">
	.st0{fill:#6E491E;}
	.st1{fill:#FFFFFF;}
</style>
<g>
	<path class="st0" d="M0,141.7C0,63.5,63.4,0,141.7,0C220,0,283.5,63.5,283.5,141.7S220,283.5,141.7,283.5C63.4,283.5,0,220,0,141.7
		"/>
	<path class="st1" d="M89.9,216.6V98.6c-9.2,7.2-23.6,13.8-33.6,18.7l-10.2-23c15.8-6.6,34.7-16.6,49.6-27.9h26.2v150.2H89.9z
		 M215.4,216.6V66.4h-26.2c-14.9,11.3-33.8,21.3-49.6,27.9l10.2,23c10-4.9,24.5-11.5,33.6-18.7v118.1H215.4z"/>
</g>
</svg>
