<?xml version="1.0" encoding="utf-8"?>
<!-- Generator: Adobe Illustrator 26.3.1, SVG Export Plug-In . SVG Version: 6.00 Build 0)  -->
<svg version="1.1" id="Layer_1" xmlns="http://www.w3.org/2000/svg" xmlns:xlink="http://www.w3.org/1999/xlink" x="0px" y="0px"
	 viewBox="0 0 283.5 283.5" style="enable-background:new 0 0 283.5 283.5;" xml:space="preserve">
<style type="text/css">
	.st0{fill:#6E6E00;}
	.st1{fill:#FFFFFF;}
</style>
<g>
	<path class="st0" d="M0,141.7C0,63.5,63.5,0,141.7,0C220,0,283.5,63.5,283.5,141.7S220,283.5,141.7,283.5C63.5,283.5,0,220,0,141.7
		"/>
	<path class="st1" d="M194.3,171.6c0-21.1-12.6-33.8-29.2-37v-0.4c16-6,24.3-18.3,24.3-33.8c0-20-17.5-38.3-48.1-38.3
		c-18.9,0-32.8,4.9-45.5,13.4l10.9,22.1c4.9-4.3,14-10.9,27.9-10.9c15.8,0,23,8.7,23,18.3c0,11.5-9.1,19.2-23.8,19.2H118V149h15.5
		c15.3,0,28.5,6,28.5,23.2c0,12.8-10.9,23-28.3,23c-12.8,0-23.2-5.3-29.6-9.8l-11.7,23.2c10,6,21.9,11.3,43.4,11.3
		C170.7,219.9,194.3,198,194.3,171.6"/>
</g>
</svg>
