<svg xmlns="http://www.w3.org/2000/svg" width="377.953" height="377.953" viewBox="0 0 283.465 283.465">
  <g data-name="Layer 1">
    <clipPath id="a">
      <path transform="matrix(1 0 0 -1 0 283.465)" d="M0 283.465h283.465V0H0z"/>
    </clipPath>
    <g clip-path="url(#a)">
      <path
        d="M0 141.732C0 63.45 63.46 0 141.732 0c78.283 0 141.733 63.45 141.733 141.732 0 78.283-63.45 141.733-141.733 141.733C63.46 283.465 0 220.015 0 141.732"
        fill="#662c91"/>
      <path
        d="M194.646 92.994h-.42c-.63 2.54-4.892 11.702-10.852 21.073l-30.635 48.078h41.907zm29.794 92.564v31.275h-29.794v-31.275h-67.66v-27.874l58.3-91.074h39.154v95.535h17.663v23.413zm-146.179 31.28V98.73c-9.15 7.23-23.614 13.832-33.615 18.733L34.424 94.479c15.752-6.591 34.686-16.592 49.577-27.874h26.185v150.233z"
        fill="#fff"/>
    </g>
  </g>
</svg>
