<?xml version="1.0" encoding="utf-8"?>
<!-- Generator: Adobe Illustrator 26.3.1, SVG Export Plug-In . SVG Version: 6.00 Build 0)  -->
<svg version="1.1" id="Layer_1" xmlns="http://www.w3.org/2000/svg" xmlns:xlink="http://www.w3.org/1999/xlink" x="0px" y="0px"
	 viewBox="0 0 283.5 283.5" style="enable-background:new 0 0 283.5 283.5;" xml:space="preserve">
<style type="text/css">
	.st0{clip-path:url(#SVGID_00000072993926488918334570000006738583468680211134_);fill:#D282BE;}
	.st1{clip-path:url(#SVGID_00000072993926488918334570000006738583468680211134_);fill-rule:evenodd;clip-rule:evenodd;}
</style>
<g>
	<defs>
		<rect id="SVGID_1_" width="283.5" height="283.5"/>
	</defs>
	<clipPath id="SVGID_00000171718115945186050080000013949157310528877230_">
		<use xlink:href="#SVGID_1_"  style="overflow:visible;"/>
	</clipPath>
	<path style="clip-path:url(#SVGID_00000171718115945186050080000013949157310528877230_);fill:#D282BE;" d="M0,141.7
		C0,63.5,63.4,0,141.7,0C220,0,283.5,63.5,283.5,141.7c0,78.3-63.4,141.7-141.7,141.7C63.4,283.5,0,220,0,141.7"/>
	
		<path style="clip-path:url(#SVGID_00000171718115945186050080000013949157310528877230_);fill-rule:evenodd;clip-rule:evenodd;" d="
		M195.4,175c0-19.8-12.1-32.6-26-39.1c14.1-8.5,21.3-20.4,21.3-34.5c0-25.8-21.9-38.7-48.3-38.7c-25.7,0-48.3,17.2-48.3,42.1
		c0,15.5,8.1,25.8,21.1,33.8c-14.5,7.4-25.8,20-25.8,40c0,22.8,18.9,42.8,52.3,42.8C172.6,221.4,195.4,203.5,195.4,175 M162,103.3
		c0,9.4-8.5,19.2-16.4,22.8c-9.6-4-21.9-11.7-21.9-24c0-10.4,7.4-17.7,19.1-17.7C155.2,84.4,162,92.9,162,103.3 M164.3,177.4
		c0,11.9-7.9,21.9-22.1,21.9c-14.5,0-22.6-11.7-22.6-24c0-11.7,9.8-22.3,19.6-26.2C152,155.4,164.3,163.7,164.3,177.4"/>
</g>
</svg>
