<svg xmlns="http://www.w3.org/2000/svg" width="377.953" height="377.953" viewBox="0 0 283.465 283.465"><g data-name="Layer 1"><clipPath id="a"><path transform="matrix(1 0 0 -1 0 283.465)" d="M0 283.465h283.465V0H0z"/></clipPath><g clip-path="url(#a)"><path d="M0 141.733C0 63.45 63.46 0 141.732 0c78.283 0 141.733 63.45 141.733 141.733 0 78.282-63.45 141.732-141.733 141.732C63.46 283.465 0 220.015 0 141.733" fill="#b80b4b"/><path d="M178.738 220.282c-17.445 0-30.843-3.826-42.322-10.844l12.118-23.393c8.293 5.744 16.807 9.57 28.499 9.57 11.693 0 26.368-7.018 26.368-24.667 0-10.844-7.226-25.732-34.873-26.154-8.505 0-18.502-.213-23.394-.213l5.958-78.045h78.89V91.63h-54.015l-2.121 28.498c.852 0 2.761.21 4.252.21 41.044 1.916 57.629 25.092 57.629 47.632 0 28.711-22.755 52.313-56.989 52.313m-97.793-3.613V98.647c-9.145 7.231-23.607 14.25-33.603 18.715l-10.21-22.967C52.872 87.803 71.8 77.806 86.68 66.536h26.164V216.67z" fill="#fff"/></g></g></svg>