<svg xmlns="http://www.w3.org/2000/svg" width="377.953" height="377.953" viewBox="0 0 283.465 283.465">
  <g data-name="Layer 1">
    <clipPath id="a">
      <path transform="matrix(1 0 0 -1 0 283.465)" d="M0 283.465h283.465V0H0z"/>
    </clipPath>
    <g clip-path="url(#a)">
      <path
        d="M0 141.732C0 63.46 63.45 0 141.732 0c78.283 0 141.733 63.46 141.733 141.732 0 78.283-63.45 141.732-141.733 141.732C63.45 283.464 0 220.015 0 141.732"
        fill="#c5a3cd"/>
      <path
        d="M164.297 177.357c0 11.922-7.871 21.914-22.134 21.914-14.462 0-22.554-11.692-22.554-24.044 0-11.702 9.783-22.333 19.574-26.174 12.772 6.391 25.114 14.682 25.114 28.304m-2.34-74.041c0 9.361-8.512 19.153-16.393 22.763-9.572-4.04-21.904-11.692-21.904-24.044 0-10.421 7.442-17.653 19.144-17.653 12.351 0 19.153 8.502 19.153 18.934m33.404 71.701c0-19.793-12.121-32.565-25.954-39.136 14.053-8.532 21.285-20.434 21.285-34.486 0-25.754-21.924-38.736-48.319-38.736-25.723 0-48.298 17.243-48.298 42.137 0 15.542 8.102 25.754 21.075 33.835-14.473 7.441-25.754 20.003-25.754 40.006 0 22.774 18.942 42.757 52.338 42.757 30.854 0 53.627-17.863 53.627-46.377"
        fill="#231f20" fill-rule="evenodd"/>
    </g>
  </g>
</svg>
