<svg xmlns="http://www.w3.org/2000/svg" width="377.952" height="377.953" viewBox="0 0 283.464 283.465">
  <g data-name="Layer 1">
    <clipPath id="a">
      <path transform="matrix(1 0 0 -1 0 283.465)" d="M0 283.465h283.464V0H0z"/>
    </clipPath>
    <g clip-path="url(#a)">
      <path
        d="M283.464 141.73c0 78.28-63.458 141.735-141.734 141.735C63.454 283.465 0 220.01 0 141.73 0 63.454 63.454 0 141.73 0c78.276 0 141.734 63.454 141.734 141.73"
        fill="#cec92a" fill-rule="evenodd"/>
      <path
        d="M181.186 216.672h-34.242c0-19.775 5.317-32.537 18.5-56.991l36.578-68.05h-72.94V66.54h105.05v24.454c-32.954 57.204-52.946 102.073-52.946 125.679m-105.664 0V98.65c-9.145 7.23-23.606 14.249-33.603 18.714L31.718 94.398c15.732-6.592 34.659-16.59 49.547-27.86h26.154v150.134z"
        fill="#231f20"/>
    </g>
  </g>
</svg>
