<svg xmlns="http://www.w3.org/2000/svg" width="377.953" height="377.953" viewBox="0 0 283.465 283.465"><g data-name="Layer 1"><clipPath id="a"><path transform="matrix(1 0 0 -1 0 283.465)" d="M0 283.465h283.465V0H0z"/></clipPath><g clip-path="url(#a)"><path d="M0 141.732C0 63.46 63.46 0 141.732 0c78.282 0 141.732 63.46 141.732 141.732 0 78.283-63.45 141.732-141.732 141.732C63.46 283.464 0 220.015 0 141.732" fill="#f59fb3"/><path d="M196.172 91.246V66.772H91.046v25.114h72.991l-36.596 68.09c-13.192 24.465-18.513 37.237-18.513 57.02h34.265c0-23.604 19.994-68.521 52.98-125.75" fill="#231f20"/></g></g></svg>