<svg xmlns="http://www.w3.org/2000/svg" width="377.953" height="377.953" viewBox="0 0 283.465 283.465">
  <g data-name="Layer 1">
    <clipPath id="a">
      <path transform="matrix(1 0 0 -1 0 283.465)" d="M0 283.465h283.465V0H0z"/>
    </clipPath>
    <g clip-path="url(#a)">
      <path
        d="M0 141.732C0 63.46 63.45 0 141.732 0c78.283 0 141.732 63.46 141.732 141.732 0 78.273-63.449 141.732-141.732 141.732C63.45 283.464 0 220.004 0 141.732"
        fill="#9b993b"/>
      <path
        d="M194.348 171.573c0-21.063-12.552-33.835-29.155-37.026v-.42c15.953-5.95 24.264-18.293 24.264-33.825 0-20.013-17.463-38.306-48.088-38.306-18.942 0-32.775 4.89-45.547 13.402l10.862 22.133c4.89-4.26 14.042-10.852 27.874-10.852 15.753 0 22.974 8.722 22.974 18.293 0 11.502-9.131 19.163-23.824 19.163h-15.752v24.884h15.542c15.323 0 28.505 5.961 28.505 23.194 0 12.772-10.852 22.984-28.295 22.984-12.772 0-23.193-5.32-29.585-9.782L92.422 208.61c10.01 5.951 21.923 11.262 43.417 11.262 34.885 0 58.509-21.904 58.509-48.298"
        fill="#fff"/>
    </g>
  </g>
</svg>
