<?xml version="1.0" encoding="utf-8"?>
<!-- Generator: Adobe Illustrator 26.3.1, SVG Export Plug-In . SVG Version: 6.00 Build 0)  -->
<svg version="1.1" id="Layer_1" xmlns="http://www.w3.org/2000/svg" xmlns:xlink="http://www.w3.org/1999/xlink" x="0px" y="0px"
	 viewBox="0 0 283.5 283.5" style="enable-background:new 0 0 283.5 283.5;" xml:space="preserve">
<style type="text/css">
	.st0{clip-path:url(#SVGID_00000078731935693763607030000003548581607173110711_);fill:#FF5A00;}
	.st1{clip-path:url(#SVGID_00000078731935693763607030000003548581607173110711_);}
</style>
<g>
	<defs>
		<rect id="SVGID_1_" width="283.5" height="283.5"/>
	</defs>
	<clipPath id="SVGID_00000090272025682513365470000006533262832655656088_">
		<use xlink:href="#SVGID_1_"  style="overflow:visible;"/>
	</clipPath>
	<path style="clip-path:url(#SVGID_00000090272025682513365470000006533262832655656088_);fill:#FF5A00;" d="M0,141.7
		C0,63.5,63.5,0,141.7,0C220,0,283.5,63.5,283.5,141.7S220,283.5,141.7,283.5C63.5,283.5,0,220,0,141.7"/>
	<path style="clip-path:url(#SVGID_00000090272025682513365470000006533262832655656088_);" d="M192.7,168.3
		c0-22.6-16.6-45.7-57.7-47.7c-1.5,0-3.4-0.2-4.3-0.2l2.1-28.5h54.1V66.8H108l-6,78.1c4.9,0,14.9,0.2,23.4,0.2
		c27.7,0.4,34.9,15.3,34.9,26.2c0,17.7-14.7,24.7-26.4,24.7c-11.7,0-20.2-3.8-28.5-9.6l-12.1,23.4c11.5,7,24.9,10.9,42.3,10.9
		C169.9,220.6,192.7,197,192.7,168.3"/>
</g>
</svg>
