<?xml version="1.0" encoding="utf-8"?>
<!-- Generator: Adobe Illustrator 26.3.1, SVG Export Plug-In . SVG Version: 6.00 Build 0)  -->
<svg version="1.1" id="Layer_1" xmlns="http://www.w3.org/2000/svg" xmlns:xlink="http://www.w3.org/1999/xlink" x="0px" y="0px"
	 viewBox="0 0 283.5 283.5" style="enable-background:new 0 0 283.5 283.5;" xml:space="preserve">
<style type="text/css">
	.st0{fill:#00643C;}
	.st1{fill:#FFFFFF;}
</style>
<g>
	<path class="st0" d="M0,141.7C0,63.5,63.5,0,141.7,0C220,0,283.5,63.5,283.5,141.7S220,283.5,141.7,283.5C63.5,283.5,0,220,0,141.7
		"/>
	<path class="st1" d="M80,216.9V98.8c-9.1,7.2-23.6,13.8-33.6,18.7l-10.2-23C51.9,88,70.9,78,85.7,66.7h26.2v150.2H80z M234.6,216.9
		v-25.1h-61.9c1.9-8.7,17-21.9,24.7-28.9c18.1-16.4,34.5-28.5,34.5-54.3c0-30.6-24.9-46-51.3-46c-20.2,0-33.6,6-48.1,18.5l15.7,20.8
		c3.6-4,12.8-13.6,26-13.6c16.4,0,24.9,10.8,24.9,23.8c0,14.5-10.8,25.3-20.8,34c-20,17.5-37.2,33.4-41.1,50.8v19.8H234.6z"/>
</g>
</svg>
