<?xml version="1.0" encoding="utf-8"?>
<!-- Generator: Adobe Illustrator 26.3.1, SVG Export Plug-In . SVG Version: 6.00 Build 0)  -->
<svg version="1.1" id="Layer_1" xmlns="http://www.w3.org/2000/svg" xmlns:xlink="http://www.w3.org/1999/xlink" x="0px" y="0px"
	 viewBox="0 0 283.5 283.5" style="enable-background:new 0 0 283.5 283.5;" xml:space="preserve">
<style type="text/css">
	.st0{fill:#A50034;}
	.st1{fill:#FFFFFF;}
</style>
<g>
	<path class="st0" d="M0,141.7C0,63.4,63.5,0,141.7,0C220,0,283.5,63.4,283.5,141.7c0,78.3-63.4,141.7-141.7,141.7
		C63.5,283.5,0,220,0,141.7"/>
	<path class="st1" d="M80.9,216.7v-118c-9.1,7.2-23.6,14.2-33.6,18.7l-10.2-23c15.7-6.6,34.7-16.6,49.5-27.9h26.2v150.1H80.9z
		 M178.7,220.3c-17.4,0-30.8-3.8-42.3-10.8l12.1-23.4c8.3,5.7,16.8,9.6,28.5,9.6c11.7,0,26.4-7,26.4-24.7c0-10.8-7.2-25.7-34.9-26.2
		c-8.5,0-18.5-0.2-23.4-0.2l6-78H230v25.1h-54l-2.1,28.5c0.9,0,2.8,0.2,4.3,0.2c41,1.9,57.6,25.1,57.6,47.6
		C235.7,196.7,213,220.3,178.7,220.3"/>
</g>
</svg>
