<svg xmlns="http://www.w3.org/2000/svg" width="377.953" height="377.953" viewBox="0 0 283.465 283.465">
  <g data-name="Layer 1">
    <clipPath id="a">
      <path transform="matrix(1 0 0 -1 0 283.465)" d="M0 283.465h283.465V0H0z"/>
    </clipPath>
    <g clip-path="url(#a)">
      <path
        d="M0 141.733C0 63.46 63.45 0 141.732 0c78.283 0 141.732 63.46 141.732 141.732 0 78.282-63.449 141.732-141.732 141.732C63.45 283.465 0 220.015 0 141.733"
        fill="#77c696"/>
      <path
        d="M162.64 172.264c0 12.982-7.661 25.104-22.564 25.104-15.312 0-23.603-13.822-23.603-28.084 0-4.47 0-10.432 1.7-12.982 2.98-4.68 10.632-8.302 20.203-8.302 14.902 0 24.264 10.222 24.264 24.264m30.225-3.4c0-28.095-20.014-44.468-44.908-44.468-16.172 0-25.954 5.742-31.054 10.192 2.13-30.204 17.432-47.007 38.506-47.007 8.72 0 16.603 1.91 20.643 3.61l4.68-25.533c-6.381-1.48-14.041-2.55-22.563-2.55-48.077 0-72.551 37.455-72.551 89.583 0 39.786 14.682 68.301 55.749 68.301 31.484 0 51.498-22.124 51.498-52.128"
        fill="#231f20" fill-rule="evenodd"/>
    </g>
  </g>
</svg>
