<svg xmlns="http://www.w3.org/2000/svg" width="377.953" height="377.953" viewBox="0 0 283.465 283.465">
  <g data-name="Layer 1">
    <clipPath id="a">
      <path transform="matrix(1 0 0 -1 0 283.465)" d="M0 283.465h283.465V0H0z"/>
    </clipPath>
    <g clip-path="url(#a)">
      <path
        d="M283.465 141.73c0 78.277-63.454 141.735-141.73 141.735C63.454 283.465 0 220.007 0 141.73 0 63.456 63.454 0 141.735 0c78.276 0 141.73 63.455 141.73 141.73"
        fill="#f59fb3" fill-rule="evenodd"/>
      <path
        d="M185.509 147.35c-9.57 0-17.223 3.613-20.206 8.292-1.695 2.552-1.695 8.505-1.695 12.97 0 14.25 8.292 28.072 23.597 28.072 14.888 0 22.54-12.123 22.54-25.093 0-14.036-9.356-24.241-24.236-24.241m2.975 72.936c-41.043 0-55.718-28.494-55.718-68.257 0-52.104 24.459-89.53 72.514-89.53 8.514 0 16.167 1.062 22.54 2.554l-4.677 25.519c-4.04-1.704-11.905-3.618-20.624-3.618-21.05 0-36.364 16.8-38.486 46.995 5.096-4.466 14.88-10.205 31.046-10.205 24.876 0 44.869 16.375 44.869 44.442 0 29.985-19.993 52.1-51.464 52.1m-109.278-3.613V98.65c-9.144 7.23-23.606 14.249-33.602 18.714L35.403 94.398c15.73-6.591 34.659-16.588 49.546-27.86h26.155v150.135z"
        fill="#231f20"/>
    </g>
  </g>
</svg>
