<?xml version="1.0" encoding="utf-8"?>
<!-- Generator: Adobe Illustrator 26.3.1, SVG Export Plug-In . SVG Version: 6.00 Build 0)  -->
<svg version="1.1" id="Layer_1" xmlns="http://www.w3.org/2000/svg" xmlns:xlink="http://www.w3.org/1999/xlink" x="0px" y="0px"
	 viewBox="0 0 283.5 283.5" style="enable-background:new 0 0 283.5 283.5;" xml:space="preserve">
<style type="text/css">
	
		.st0{clip-path:url(#SVGID_00000114066186342845749310000018002283595995188354_);fill-rule:evenodd;clip-rule:evenodd;fill:#D2D200;}
	.st1{clip-path:url(#SVGID_00000114066186342845749310000018002283595995188354_);}
</style>
<g>
	<defs>
		<rect id="SVGID_1_" width="283.5" height="283.5"/>
	</defs>
	<clipPath id="SVGID_00000154391595698439779510000016265647249254480048_">
		<use xlink:href="#SVGID_1_"  style="overflow:visible;"/>
	</clipPath>
	
		<path style="clip-path:url(#SVGID_00000154391595698439779510000016265647249254480048_);fill-rule:evenodd;clip-rule:evenodd;fill:#D2D200;" d="
		M283.5,141.7c0,78.3-63.5,141.7-141.7,141.7C63.5,283.5,0,220,0,141.7C0,63.5,63.5,0,141.7,0C220,0,283.5,63.5,283.5,141.7"/>
	<path style="clip-path:url(#SVGID_00000154391595698439779510000016265647249254480048_);" d="M75.5,216.7v-118
		c-9.1,7.2-23.6,14.2-33.6,18.7l-10.2-23c15.7-6.6,34.7-16.6,49.5-27.9h26.2v150.1H75.5z M181.2,216.7h-34.2
		c0-19.8,5.3-32.5,18.5-57L202,91.6h-72.9V66.5h105.1V91C201.2,148.2,181.2,193.1,181.2,216.7"/>
</g>
</svg>
