<svg xmlns="http://www.w3.org/2000/svg" width="377.953" height="377.953" viewBox="0 0 283.465 283.465">
  <g data-name="Layer 1">
    <clipPath id="a">
      <path transform="matrix(1 0 0 -1 0 283.465)" d="M0 283.465h283.465V0H0z"/>
    </clipPath>
    <g clip-path="url(#a)">
      <path
        d="M0 141.732C0 63.46 63.45 0 141.731 0c78.273 0 141.733 63.46 141.733 141.732 0 78.283-63.46 141.732-141.733 141.732-78.282 0-141.73-63.449-141.73-141.732"
        fill="#cec92a"/>
      <path
        d="M165.862 114.79c0 4.471 0 10.421-1.7 12.982-2.981 4.681-10.642 8.301-20.223 8.301-14.883 0-24.244-10.22-24.244-24.263 0-12.973 7.66-25.104 22.554-25.104 15.312 0 23.613 13.832 23.613 28.084m30.855 16.603c0-39.797-14.682-68.31-55.75-68.31-31.484 0-51.487 22.123-51.487 52.138 0 28.094 20.003 44.466 44.887 44.466 16.182 0 25.965-5.74 31.075-10.21-2.13 30.213-17.453 47.026-38.516 47.026-8.721 0-16.592-1.92-20.643-3.62l-4.671 25.533c6.38 1.5 14.042 2.552 22.554 2.552 48.088 0 72.55-37.447 72.55-89.575"
        fill="#231f20" fill-rule="evenodd"/>
    </g>
  </g>
</svg>
