<?xml version="1.0" encoding="utf-8"?>
<!-- Generator: Adobe Illustrator 26.3.1, SVG Export Plug-In . SVG Version: 6.00 Build 0)  -->
<svg version="1.1" id="Layer_1" xmlns="http://www.w3.org/2000/svg" xmlns:xlink="http://www.w3.org/1999/xlink" x="0px" y="0px"
	 viewBox="0 0 283.5 283.5" style="enable-background:new 0 0 283.5 283.5;" xml:space="preserve">
<style type="text/css">
	.st0{clip-path:url(#SVGID_00000049915170247895469800000011701411972755834513_);fill:#82C8E6;}
	.st1{clip-path:url(#SVGID_00000049915170247895469800000011701411972755834513_);}
</style>
<g>
	<defs>
		<rect id="SVGID_1_" width="283.5" height="283.5"/>
	</defs>
	<clipPath id="SVGID_00000027575675927421720950000006307742164212486062_">
		<use xlink:href="#SVGID_1_"  style="overflow:visible;"/>
	</clipPath>
	<path style="clip-path:url(#SVGID_00000027575675927421720950000006307742164212486062_);fill:#82C8E6;" d="M0,141.7
		C0,63.4,63.5,0,141.7,0C220,0,283.5,63.4,283.5,141.7S220,283.5,141.7,283.5C63.5,283.5,0,220,0,141.7"/>
	<path style="clip-path:url(#SVGID_00000027575675927421720950000006307742164212486062_);" d="M81.9,216.6V98.5
		c-9.1,7.2-23.6,13.8-33.6,18.7l-10.2-23c15.8-6.6,34.7-16.6,49.6-27.9h26.2v150.2H81.9z M236.7,172c0-21.1-12.6-33.8-29.2-37v-0.4
		c16-5.9,24.3-18.3,24.3-33.8c0-20-17.5-38.3-48.1-38.3c-18.9,0-32.8,4.9-45.5,13.4l10.9,22.1c4.9-4.2,14-10.9,27.9-10.9
		c15.7,0,23,8.7,23,18.3c0,11.5-9.1,19.2-23.8,19.2h-15.7v24.9h15.5c15.3,0,28.5,6,28.5,23.2c0,12.8-10.8,23-28.3,23
		c-12.8,0-23.2-5.3-29.6-9.8L134.8,209c10,6,21.9,11.3,43.4,11.3C213.1,220.3,236.7,198.4,236.7,172"/>
</g>
</svg>
