<?xml version="1.0" encoding="utf-8"?>
<!-- Generator: Adobe Illustrator 26.3.1, SVG Export Plug-In . SVG Version: 6.00 Build 0)  -->
<svg version="1.1" id="Layer_1" xmlns="http://www.w3.org/2000/svg" xmlns:xlink="http://www.w3.org/1999/xlink" x="0px" y="0px"
	 viewBox="0 0 283.5 283.5" style="enable-background:new 0 0 283.5 283.5;" xml:space="preserve">
<style type="text/css">
	.st0{clip-path:url(#SVGID_00000010312260601140086540000013232106289718658450_);fill:#DC9600;}
	.st1{clip-path:url(#SVGID_00000010312260601140086540000013232106289718658450_);}
</style>
<g>
	<defs>
		<rect id="SVGID_1_" width="283.5" height="283.5"/>
	</defs>
	<clipPath id="SVGID_00000160869276300753126620000008378870820176334992_">
		<use xlink:href="#SVGID_1_"  style="overflow:visible;"/>
	</clipPath>
	<path style="clip-path:url(#SVGID_00000160869276300753126620000008378870820176334992_);fill:#DC9600;" d="M0,141.7
		C0,63.5,63.4,0,141.7,0C220,0,283.5,63.5,283.5,141.7c0,78.3-63.5,141.7-141.7,141.7C63.4,283.5,0,220,0,141.7"/>
	<path style="clip-path:url(#SVGID_00000160869276300753126620000008378870820176334992_);" d="M81.7,216.9V98.8
		c-9.1,7.2-23.6,13.8-33.6,18.7l-10.2-23C53.7,88,72.6,78,87.5,66.7h26.2v150.2H81.7z M244.5,141.6c0,34.7-9.8,79.4-55.1,79.4
		c-45.3,0-54.3-44.7-54.3-79.4s9.8-79.4,55.1-79.4C235.5,62.2,244.5,106.9,244.5,141.6 M211.9,141.6c0-15.7-0.6-54-22.1-54
		c-21.7,0-22.3,38.7-22.3,54c0,15.1,1.1,54.3,22.3,54.3C211,195.9,211.9,156.5,211.9,141.6"/>
</g>
</svg>
