<?xml version="1.0" encoding="utf-8"?>
<!-- Generator: Adobe Illustrator 26.3.1, SVG Export Plug-In . SVG Version: 6.00 Build 0)  -->
<svg version="1.1" id="Layer_1" xmlns="http://www.w3.org/2000/svg" xmlns:xlink="http://www.w3.org/1999/xlink" x="0px" y="0px"
	 viewBox="0 0 283.5 283.5" style="enable-background:new 0 0 283.5 283.5;" xml:space="preserve">
<style type="text/css">
	
		.st0{clip-path:url(#SVGID_00000078728877120052688750000003718913396527893143_);fill-rule:evenodd;clip-rule:evenodd;fill:#FF82B4;}
	.st1{clip-path:url(#SVGID_00000078728877120052688750000003718913396527893143_);}
</style>
<g>
	<defs>
		<rect id="SVGID_1_" width="283.5" height="283.5"/>
	</defs>
	<clipPath id="SVGID_00000143598500599891163830000012687518895938846378_">
		<use xlink:href="#SVGID_1_"  style="overflow:visible;"/>
	</clipPath>
	
		<path style="clip-path:url(#SVGID_00000143598500599891163830000012687518895938846378_);fill-rule:evenodd;clip-rule:evenodd;fill:#FF82B4;" d="
		M283.5,141.7c0,78.3-63.5,141.7-141.7,141.7C63.5,283.5,0,220,0,141.7C0,63.5,63.5,0,141.7,0C220,0,283.5,63.5,283.5,141.7"/>
	<path style="clip-path:url(#SVGID_00000143598500599891163830000012687518895938846378_);" d="M79.2,216.7v-118
		c-9.1,7.2-23.6,14.2-33.6,18.7l-10.2-23c15.7-6.6,34.7-16.6,49.5-27.9h26.2v150.1H79.2z M188.5,220.3c-41,0-55.7-28.5-55.7-68.3
		c0-52.1,24.5-89.5,72.5-89.5c8.5,0,16.2,1.1,22.5,2.6l-4.7,25.5c-4-1.7-11.9-3.6-20.6-3.6c-21,0-36.4,16.8-38.5,47
		c5.1-4.5,14.9-10.2,31-10.2c24.9,0,44.9,16.4,44.9,44.4C239.9,198.2,220,220.3,188.5,220.3 M185.5,147.3c-9.6,0-17.2,3.6-20.2,8.3
		c-1.7,2.6-1.7,8.5-1.7,13c0,14.2,8.3,28.1,23.6,28.1c14.9,0,22.5-12.1,22.5-25.1C209.7,157.6,200.4,147.3,185.5,147.3"/>
</g>
</svg>
