<?xml version="1.0" encoding="utf-8"?>
<!-- Generator: Adobe Illustrator 26.3.1, SVG Export Plug-In . SVG Version: 6.00 Build 0)  -->
<svg version="1.1" id="Layer_1" xmlns="http://www.w3.org/2000/svg" xmlns:xlink="http://www.w3.org/1999/xlink" x="0px" y="0px"
	 viewBox="0 0 283.5 283.5" style="enable-background:new 0 0 283.5 283.5;" xml:space="preserve">
<style type="text/css">
	.st0{clip-path:url(#SVGID_00000064339783262407986210000012222916478051048107_);fill:#D2D200;}
	.st1{clip-path:url(#SVGID_00000064339783262407986210000012222916478051048107_);fill-rule:evenodd;clip-rule:evenodd;}
</style>
<g>
	<defs>
		<rect id="SVGID_1_" width="283.5" height="283.5"/>
	</defs>
	<clipPath id="SVGID_00000080925341370901299380000010589652642747449989_">
		<use xlink:href="#SVGID_1_"  style="overflow:visible;"/>
	</clipPath>
	<path style="clip-path:url(#SVGID_00000080925341370901299380000010589652642747449989_);fill:#D2D200;" d="M0,141.7
		C0,63.5,63.4,0,141.7,0C220,0,283.5,63.5,283.5,141.7c0,78.3-63.5,141.7-141.7,141.7C63.4,283.5,0,220,0,141.7"/>
	
		<path style="clip-path:url(#SVGID_00000080925341370901299380000010589652642747449989_);fill-rule:evenodd;clip-rule:evenodd;" d="
		M196.7,131.4c0-39.8-14.7-68.3-55.7-68.3c-31.5,0-51.5,22.1-51.5,52.1c0,28.1,20,44.5,44.9,44.5c16.2,0,26-5.7,31.1-10.2
		c-2.1,30.2-17.5,47-38.5,47c-8.7,0-16.6-1.9-20.6-3.6l-4.7,25.5c6.4,1.5,14,2.6,22.6,2.6C172.3,221,196.7,183.5,196.7,131.4
		 M165.9,114.8c0,4.5,0,10.4-1.7,13c-3,4.7-10.6,8.3-20.2,8.3c-14.9,0-24.2-10.2-24.2-24.3c0-13,7.7-25.1,22.6-25.1
		C157.6,86.7,165.9,100.5,165.9,114.8"/>
</g>
</svg>
