<svg xmlns="http://www.w3.org/2000/svg" width="377.953" height="377.953" viewBox="0 0 283.465 283.465">
  <g data-name="Layer 1">
    <clipPath id="a">
      <path transform="matrix(1 0 0 -1 0 283.465)" d="M0 283.465h283.465V0H0z"/>
    </clipPath>
    <g clip-path="url(#a)">
      <path
        d="M0 141.733C0 63.46 63.46 0 141.732 0c78.283 0 141.733 63.46 141.733 141.732 0 78.272-63.45 141.732-141.733 141.732C63.46 283.465 0 220.005 0 141.733"
        fill="#006db8"/>
      <path
        d="M193.949 216.813v-25.114h-61.91c1.91-8.732 17.023-21.904 24.664-28.935 18.093-16.382 34.485-28.514 34.485-54.258 0-30.635-24.904-45.957-51.288-45.957-20.213 0-33.615 5.96-48.087 18.513l15.742 20.843c3.62-4.041 12.772-13.613 25.975-13.613 16.382 0 24.873 10.853 24.873 23.824 0 14.473-10.841 25.334-20.833 34.056-20.013 17.443-37.246 33.395-41.077 50.848v19.793z"
        fill="#fff"/>
    </g>
  </g>
</svg>
