<svg xmlns="http://www.w3.org/2000/svg" width="377.953" height="377.953" viewBox="0 0 283.465 283.465">
  <g data-name="Layer 1">
    <clipPath id="a">
      <path transform="matrix(1 0 0 -1 0 283.465)" d="M0 283.465h283.465V0H0z"/>
    </clipPath>
    <g clip-path="url(#a)">
      <path
        d="M0 141.733C0 63.45 63.45 0 141.732 0c78.283 0 141.733 63.45 141.733 141.732s-63.45 141.732-141.733 141.732C63.45 283.465 0 220.015 0 141.733"
        fill="#008c5a"/>
      <path
        d="M234.61 216.893V191.78H172.7c1.91-8.72 17.022-21.903 24.674-28.934 18.083-16.373 34.475-28.505 34.475-54.259 0-30.635-24.904-45.957-51.289-45.957-20.213 0-33.615 5.961-48.087 18.523l15.742 20.833c3.622-4.04 12.773-13.602 25.975-13.602 16.382 0 24.874 10.842 24.874 23.823 0 14.473-10.832 25.325-20.834 34.046-20.013 17.453-37.246 33.395-41.076 50.848v19.793zm-154.61 0V98.794c-9.14 7.242-23.614 13.843-33.616 18.733l-10.22-22.983c15.752-6.59 34.695-16.593 49.577-27.864h26.174v150.213z"
        fill="#fff"/>
    </g>
  </g>
</svg>
