<svg xmlns="http://www.w3.org/2000/svg" width="377.953" height="377.953" viewBox="0 0 283.465 283.465">
  <g data-name="Layer 1">
    <clipPath id="a">
      <path transform="matrix(1 0 0 -1 0 283.465)" d="M0 283.465h283.465V0H0z"/>
    </clipPath>
    <g clip-path="url(#a)">
      <path
        d="M0 141.733C0 63.46 63.45 0 141.722 0c78.282 0 141.742 63.46 141.742 141.732 0 78.272-63.46 141.732-141.742 141.732C63.45 283.465 0 220.005 0 141.733"
        fill="#bb4a9b"/>
      <path
        d="M141.646 161.935H99.74l30.635-48.078c5.96-9.371 10.211-18.523 10.851-21.073h.42zm47.448 23.404v-23.404h-17.643V66.4h-39.166l-58.3 91.064v27.875h67.661v31.275h29.805v-31.275z"
        fill="#fff" fill-rule="evenodd"/>
    </g>
  </g>
</svg>
