<svg xmlns="http://www.w3.org/2000/svg" width="377.953" height="377.953" viewBox="0 0 283.465 283.465">
  <g data-name="Layer 1">
    <clipPath id="a">
      <path transform="matrix(1 0 0 -1 0 283.465)" d="M0 283.465h283.465V0H0z"/>
    </clipPath>
    <g clip-path="url(#a)">
      <path
        d="M283.464 141.735c0 78.276-63.453 141.73-141.729 141.73C63.455 283.465 0 220.01 0 141.735 0 63.46 63.454 0 141.735 0c78.276 0 141.73 63.459 141.73 141.734"
        fill="#00b397" fill-rule="evenodd"/>
      <path
        d="M189.01 83.767c-11.7 0-19.14 7.227-19.14 17.649 0 12.33 12.33 19.988 21.901 24.028 7.865-3.614 16.38-13.397 16.38-22.754 0-10.418-6.81-18.923-19.14-18.923m-3.614 64.644c-9.784 3.826-19.568 14.46-19.568 26.158 0 12.33 8.08 24.028 22.541 24.028 14.25 0 22.115-9.997 22.115-21.902 0-13.61-12.33-21.906-25.088-28.284m2.548 72.3c-33.39 0-52.309-19.988-52.309-42.742 0-19.988 11.266-32.537 25.728-39.976-12.97-8.084-21.049-18.29-21.049-33.811 0-24.881 22.541-42.108 48.268-42.108 26.367 0 48.27 12.97 48.27 38.703 0 14.035-7.228 25.945-21.263 34.45 13.822 6.592 25.941 19.349 25.941 39.129 0 28.494-22.754 46.355-53.586 46.355m-105.239-4.04V98.65c-9.144 7.23-23.597 14.249-33.593 18.715l-10.21-22.967c15.741-6.592 34.66-16.588 49.547-27.86h26.155v150.134z"
        fill="#fff"/>
    </g>
  </g>
</svg>
