<svg xmlns="http://www.w3.org/2000/svg" width="377.953" height="377.953" viewBox="0 0 283.465 283.465">
  <g data-name="Layer 1">
    <clipPath id="a">
      <path transform="matrix(1 0 0 -1 0 283.465)" d="M0 283.465h283.465V0H0z"/>
    </clipPath>
    <g clip-path="url(#a)">
      <path
        d="M0 141.733C0 63.46 63.47 0 141.732 0c78.283 0 141.733 63.46 141.733 141.732 0 78.272-63.45 141.732-141.733 141.732C63.47 283.465 0 220.005 0 141.733"
        fill="#f78f4b"/>
      <path
        d="M192.66 168.299c0-22.553-16.593-45.737-57.66-47.657-1.49 0-3.39-.21-4.25-.21l2.12-28.515h54.048V66.803h-78.942l-5.961 78.093c4.9 0 14.903.21 23.414.21 27.654.43 34.895 15.322 34.895 26.173 0 17.664-14.673 24.695-26.374 24.695-11.711 0-20.223-3.841-28.524-9.582l-12.122 23.394c11.482 7.03 24.894 10.862 42.337 10.862 34.255 0 57.019-23.614 57.019-52.35"
        fill="#231f20"/>
    </g>
  </g>
</svg>
