<svg xmlns="http://www.w3.org/2000/svg" width="377.953" height="377.953" viewBox="0 0 283.465 283.465"><g data-name="Layer 1"><clipPath id="a"><path transform="matrix(1 0 0 -1 0 283.465)" d="M0 283.465h283.465V0H0z"/></clipPath><g clip-path="url(#a)"><path d="M0 141.733C0 63.45 63.46 0 141.732 0c78.283 0 141.733 63.45 141.733 141.732s-63.45 141.732-141.733 141.732C63.46 283.465 0 220.015 0 141.733" fill="#87d3df"/><path d="M236.73 171.957c0-21.073-12.553-33.835-29.155-37.026v-.42c15.952-5.95 24.263-18.293 24.263-33.825 0-20.003-17.463-38.306-48.088-38.306-18.942 0-32.774 4.89-45.546 13.402l10.861 22.133c4.892-4.25 14.043-10.85 27.875-10.85 15.742 0 22.974 8.72 22.974 18.302 0 11.491-9.132 19.152-23.825 19.152h-15.742v24.885h15.523c15.332 0 28.514 5.961 28.514 23.193 0 12.772-10.85 22.984-28.295 22.984-12.77 0-23.203-5.31-29.574-9.782l-11.712 23.194c10.002 5.951 21.913 11.262 43.417 11.262 34.885 0 58.51-21.903 58.51-48.298m-154.825 44.69V98.547c-9.142 7.241-23.613 13.832-33.615 18.733L38.068 94.297c15.763-6.59 34.695-16.592 49.578-27.864h26.174v150.213z" fill="#231f20"/></g></g></svg>