<?xml version="1.0" encoding="utf-8"?>
<!-- Generator: Adobe Illustrator 26.3.1, SVG Export Plug-In . SVG Version: 6.00 Build 0)  -->
<svg version="1.1" id="Layer_1" xmlns="http://www.w3.org/2000/svg" xmlns:xlink="http://www.w3.org/1999/xlink" x="0px" y="0px"
	 viewBox="0 0 283.5 283.5" style="enable-background:new 0 0 283.5 283.5;" xml:space="preserve">
<style type="text/css">
	.st0{clip-path:url(#SVGID_00000150096942023713765520000004993609588893754020_);fill:#82DC73;}
	.st1{clip-path:url(#SVGID_00000150096942023713765520000004993609588893754020_);fill-rule:evenodd;clip-rule:evenodd;}
</style>
<g>
	<defs>
		<rect id="SVGID_1_" width="283.5" height="283.5"/>
	</defs>
	<clipPath id="SVGID_00000078031539372728716030000016931139742700432020_">
		<use xlink:href="#SVGID_1_"  style="overflow:visible;"/>
	</clipPath>
	<path style="clip-path:url(#SVGID_00000078031539372728716030000016931139742700432020_);fill:#82DC73;" d="M0,141.7
		C0,63.5,63.5,0,141.7,0C220,0,283.5,63.5,283.5,141.7c0,78.3-63.4,141.7-141.7,141.7C63.5,283.5,0,220,0,141.7"/>
	
		<path style="clip-path:url(#SVGID_00000078031539372728716030000016931139742700432020_);fill-rule:evenodd;clip-rule:evenodd;" d="
		M192.9,168.9c0-28.1-20-44.5-44.9-44.5c-16.2,0-26,5.7-31.1,10.2c2.1-30.2,17.4-47,38.5-47c8.7,0,16.6,1.9,20.6,3.6l4.7-25.5
		c-6.4-1.5-14-2.6-22.6-2.6c-48.1,0-72.6,37.5-72.6,89.6c0,39.8,14.7,68.3,55.7,68.3C172.9,221,192.9,198.9,192.9,168.9
		 M162.6,172.3c0,13-7.7,25.1-22.6,25.1c-15.3,0-23.6-13.8-23.6-28.1c0-4.5,0-10.4,1.7-13c3-4.7,10.6-8.3,20.2-8.3
		C153.3,148,162.6,158.2,162.6,172.3"/>
</g>
</svg>
