<svg xmlns="http://www.w3.org/2000/svg" width="377.953" height="377.953" viewBox="0 0 283.465 283.465"><g data-name="Layer 1"><clipPath id="a"><path transform="matrix(1 0 0 -1 0 283.465)" d="M0 283.465h283.465V0H0z"/></clipPath><g clip-path="url(#a)"><path d="M0 141.733C0 63.46 63.45 0 141.732 0c78.283 0 141.733 63.46 141.733 141.732 0 78.282-63.45 141.732-141.733 141.732C63.45 283.465 0 220.015 0 141.733" fill="#87d3df"/><path d="M145.39 170.938c0 26.384-23.604 48.277-58.489 48.277-21.484 0-33.396-5.32-43.397-11.26l11.712-23.195c6.381 4.471 16.802 9.792 29.554 9.792 17.463 0 28.305-10.212 28.305-22.974 0-17.233-13.192-23.183-28.505-23.183H69.028v-24.874H84.77c14.682 0 23.824-7.672 23.824-19.154 0-9.57-7.221-18.292-22.954-18.292-13.832 0-22.993 6.601-27.874 10.851L46.905 74.803C59.686 66.293 73.498 61.4 92.442 61.4c30.624 0 48.067 18.293 48.067 38.287 0 15.522-8.301 27.874-24.254 33.815v.42c16.593 3.19 29.135 15.963 29.135 37.016m116.769-18.475c0 8.461-6.832 14.402-18.224 14.402-5.45 0-10.351-1.87-12.792-3.33l3.501-8.39c2.77 1.95 6.771 3.26 10.182 3.26 3.01 0 6.661-1.06 6.661-4.482 0-3.25-4.051-4.39-6.421-5.29l-3.571-1.38c-5.621-2.19-9.371-5.532-9.371-11.883 0-8.22 6.921-14.732 17.092-14.732 5.451 0 9.442 1.71 11.722 2.85l-3.51 8.382c-2.511-1.63-6.021-2.6-8.782-2.6-4.631 0-6.021 2.35-6.021 4.31 0 2.6 3.011 3.911 5.131 4.641l3.821 1.38c6.181 2.28 10.582 5.621 10.582 12.862m-40.691-30.433h-11.392v43.447h11.392zm.74-11.562c0-3.5-2.44-6.02-6.361-6.02-3.9 0-6.421 2.52-6.421 6.02 0 3.501 2.521 6.032 6.421 6.032 3.921 0 6.361-2.53 6.361-6.032m-33.292 34.508c0 5.941-1.791 13.832-9.112 13.832-5.21 0-7.001-2.68-7.001-5.69v-14.733c0-2.52.25-3.75 2.201-5.61a7.33 7.33 0 0 1 5.29-2.2c7.242 0 8.622 8.54 8.622 14.401m11.891-1.71c0-10.492-4.72-22.624-16.122-22.624-5.531 0-8.871 2.84-11.792 7.071V105.26h-11.492v60.23h11.072v-1.96c2.201 2.03 6.031 3.34 9.282 3.34 13.912 0 19.052-13.833 19.052-23.604" fill="#231f20" fill-rule="evenodd"/></g></g></svg>