<?xml version="1.0" encoding="utf-8"?>
<!-- Generator: Adobe Illustrator 26.3.1, SVG Export Plug-In . SVG Version: 6.00 Build 0)  -->
<svg version="1.1" id="Layer_1" xmlns="http://www.w3.org/2000/svg" xmlns:xlink="http://www.w3.org/1999/xlink" x="0px" y="0px"
	 viewBox="0 0 283.5 283.5" style="enable-background:new 0 0 283.5 283.5;" xml:space="preserve">
<style type="text/css">
	.st0{fill:#640082;}
	.st1{fill:#FFFFFF;}
</style>
<g>
	<path class="st0" d="M0,141.7C0,63.5,63.5,0,141.7,0C220,0,283.5,63.5,283.5,141.7c0,78.3-63.4,141.7-141.7,141.7
		C63.5,283.5,0,220,0,141.7"/>
	<path class="st1" d="M78.3,216.8V98.7c-9.2,7.2-23.6,13.8-33.6,18.7l-10.2-23C50.2,87.9,69.1,77.9,84,66.6h26.2v150.2H78.3z
		 M224.4,185.6v31.3h-29.8v-31.3H127v-27.9l58.3-91.1h39.2v95.5h17.7v23.4H224.4z M194.6,93h-0.4c-0.6,2.5-4.9,11.7-10.9,21.1
		l-30.6,48.1h41.9V93z"/>
</g>
</svg>
