<svg xmlns="http://www.w3.org/2000/svg" width="377.953" height="377.953" viewBox="0 0 283.465 283.465"><g data-name="Layer 1"><clipPath id="a"><path transform="matrix(1 0 0 -1 0 283.465)" d="M0 0h283.465v283.465H0z"/></clipPath><g clip-path="url(#a)"><path d="M0 141.733C0 63.46 63.45 0 141.732 0c78.273 0 141.733 63.46 141.733 141.732 0 78.282-63.46 141.732-141.733 141.732C63.45 283.465 0 220.015 0 141.733" fill="#e0b03b"/><path d="M211.895 141.601c0-15.742-.64-54.048-22.134-54.048-21.703 0-22.344 38.726-22.344 54.048 0 15.103 1.071 54.26 22.344 54.26 21.274 0 22.134-39.367 22.134-54.26m32.555 0c0 34.686-9.79 79.363-55.118 79.363-45.318 0-54.259-44.677-54.259-79.363s9.792-79.362 55.108-79.362c45.328 0 54.27 44.676 54.27 79.362M81.737 216.926V98.828c-9.132 7.241-23.614 13.832-33.615 18.732L37.92 94.587c15.744-6.6 34.686-16.603 49.56-27.875h26.183v150.214z" fill="#231f20"/></g></g></svg>